/* XPM */
static char *bomber_xpm[] = {
/* columns rows colors chars-per-pixel */
"512 32 64 1",
"  c Gray0",
". c Gray3",
"X c #080000",
"o c Gray8",
"O c #180800",
"+ c #251000",
"@ c #240800",
"# c Gray14",
"$ c #343434",
"% c #292931",
"& c #181821",
"* c #483418",
"= c #423939",
"- c #5a420a",
"; c #744a03",
": c #735a2f",
"> c #464646",
", c #565656",
"< c #676767",
"1 c #787879",
"2 c #8d4c00",
"3 c #9c7321",
"4 c #9c6b4a",
"5 c #d65a08",
"6 c #de6b00",
"7 c #ff4a08",
"8 c #ff7701",
"9 c #ff6e0d",
"0 c #ff772d",
"q c None",
"w c #a28c5f",
"e c #ff8814",
"r c #ff9800",
"t c #ff9c18",
"y c #f39000",
"u c #fa902f",
"i c #ffa900",
"p c #ffb500",
"a c #ffb539",
"s c #ffa546",
"d c #ffb272",
"f c #dba25d",
"g c #ffce4a",
"h c #ffc67b",
"j c #ffc639",
"k c #888888",
"l c #989898",
"z c #94948c",
"x c #a9a9a9",
"c c Gray73",
"v c #bdbdc6",
"b c #dab38e",
"n c #fadb87",
"m c #f3d6a9",
"M c #ffebb4",
"N c #decea5",
"B c #c6c6c6",
"V c #cecece",
"C c #dadada",
"Z c #d0d1d4",
"A c Gray92",
"S c #fffff7",
"D c Gray97",
"F c #f7f2de",
/* pixels */
"qqqqqqqqqqqqqqqqqqqqqqqqqqqqqqqqqqqqqqqqqqqqqqqqqqqqqqqqqqqqqqqqqqqqqqqqqqqqqqqqqqqqqqqqqqqqqqqqqqqqqqqqqqqqqqqqqqqqqqqqqqqqqqqqqqqqqqqqqqqqqqqqqqqqqqqqqqqqqqqqqqqqqqqqqqqqqqqqqqqqqqqqqqqqqqqqqqqqqqqqqqqqqqqqqqqqqqqqqqqqqqqqqqqqqqqqqqqqqqqqqqqqqqqqqqqqqqqqqqqqqqqqqqqqqqqqqqqqqqqqqqqqqqqqqqqqqqqqqqqqqqqqqqqqqqqqqqqqqqqqqqqqqqqqqqqqqqqqqqqqqqqqqqqqqqqqqqqqqqqqqqqqqqqqqqqqqqqqqqqqqqqqqqqqqqqqqqqqqqqqqqqqqqqqqqqqqqqqqqqqqqqqqqqqqqqqqqqqqqqqqqqqqqqqqqqqqqqqqqqqqqqqqqqqqqqqqqqqqqqqqqqqqqqqqCqqqqqqqqqqqqqqCqqqqqqq",
"qqqqqqqqqqqqqqqqqqqqqqqqqqqqqqqqqqqqqqqqqqqqqqqqqqqqqqqqqqqqqqqqqqqqqqqqqqqqqqqqqqqqqqqqqqqqqqqqqqqqqqqqqqqqqqqqqqqqqqqqqqqqqqqqqqqqqqqqqqqqqqqqqqqqqqqqqqqqqqqqqqqqqqqqqqqqqqqqqqqqqqqqqqqqqqqqqqqqqqqqqqqqqqqqqqqqqqqqqqqqqqqqqqqqqqqqqqqqqqqqqqqqqqqqqqqqqqqqqqqqqqqqqqqqqqqqqqqqqqqqqqqqqqqqqqqqqqqqqqqqqqqqqqqqqqqqqqqqqqqqqqqqqqqqqqqqqqqqqqqqqqqqqqqqqqqqqqqqqqqqqqqqqqqqqqqqqqqqqqqqqqqqqqqqqqqqqqqqqqqqqqqqqqqqqqqqqqqqqqqqqqqqqqqqqqqqqqqqqqqqqqqqqqqqqqqqqqqqqqqqqqqxqqqqqqqqqqqqqqqqqqqqqqqqqqqqqqqqqqqqqqqqqqqqqqqq",
"qqqqqqqqqqqqqqqqqqqqqqqqqqqqqqqqqqqqqqqqqqqqqqqqqqqqqqqqqqqqqqqqqqqqqqqqqqqqqqqqqqqqqqqqqqqqqqqqqqqqqqqqqqqqqqqqqqqqqqqqqqqqqqqqqqqqqqqqqqqqqqqqqqqqqqqqqqqqqqqqqqqqqqqqqqqqqqqqqqqqqqqqqqqqqqqqqqqqqqqqqqqqqqqqqqqqqqqqqqqqqqqqqqqqqqqqqqqqqqqqqqqqqqqqqqqqqqqqqqqqqqqqqqqqqqqqqqqqqqqqqqqqqqqqqqqqqqqqqqqqqqqqqqqqqqqqqqqqqqqqqqqqqqqqqqqqqqqqqqqqqqqqqqqqqqqqqqqqqqqqqqqqqqqqqqqqqqqauaqqqqqqqqqqqqqqqqqqqqqqqqqqqqqqqqqqqqqqqqqqqqqqqqqqqqqqqqqqqqqqqqqqqqqqqqqqqqqqqqCqqqqlqqqqqqCqqqqqqqqqqqqqqqqqqqqqqqqqqqqqqqqqqqqqqqqq",
"qqqqqqqqqqqqqqqqqqqqqqqqqqqqqqqqqqqqqqqqqqqqqqqqqqqqqqqqqqqqqqqqqqqqqqqqqqqqqqqqqqqqqqqqqqqqqqqqqqqqqqqqqqqqqqqqqqqqqqqqqqqqqqqqqqqqqqqqqqqqqqqqqqqqqqqqqqqqqqqqqqqqqqqqqqqqqqqqqqqqqqqqqqqqqqqqqqqqqqqqqqqqqqqqqqqqqqqqqqqqqqqqqqqqqqqqqqqqqqqqqqqqqqqqqqqqqqqqqqqqqqqqqqqqqqqqqqqqqqqqqqqqqqqqqqqqqqqqqqqqqqqqqqqqqqqqqqqqqqqqqqqqqqqqqqqqqqqqqqqqqqqqqqqqqqqqqqqqqqqqqqqck<,,,<xqqhe8usgqqqqqqqqqqqqqqqqqqqqqqqqqqqqqauaqqqqqqqqqqqqqqqqqqqqqqqqqqqqqqqqqqqqqqqqqqqqqqqxqqqqqqqqqqDBqqqqqqqqqqqqqqqqqqqqqqqqqqqqqqqqqqqqqqqqq",
"qqqqqqqqqqqqqqqqqqqqqqqqqqqqqqqqqqqqqqqqqqqqqqqqqqqqqqqqqqqqqqqqqqqqqqqqqqqqqqqqqqqqqqqqqqqqqqqqqqqqqqqqqqqqqqqqqqqqqqqqqqqqqqqqqqqqqqqqqqqqqqqqqqqqqqqqqqqqqqqqqqqqqqqqqqqqqqqqqqqqqqqqqqqqqqqqqqqqqqqqqqqqqqqqqqqqqqqqqqqqqqqqqqqqqqqqqqqqqqqqqqqqqqqqqqqqqqqqqqqqqqqqqqqqqqqqqqqqqqqqqqqqqqqqqqqqqqqqqqqqqqqqqqqqqqqqqqqqqqqqqqqqqqqqqqqkk1kklqqqqqqqqqqqqqqqqqqqqqqqqk,1CCACBx3ytue88uggqqqqqqqqqqqqqqqqck<,,,<xqqheeusgqqqqqqqqqqqqqqqqqqqqqqqqqqqqqqqqqqqqqqqqqqqqqqqqqqqqqqqqqqqqqqqqqqqqqqqCqqqqqqqqqqqqqqqqqqqqqqqqCqqq",
"qqqqqqqqqqqq<#. .o1qqqqqqqqqqqqqqqqqqqqqqqqq<#. .o1qqqqqqqqqqqqqqqqqqqqqqqqq<#. .o1qqqqqqqqqqqqqqqqqqqqqqqqqqqqqqqqqqqqqqqqqqqqqqqqqqqqqqqqqqqqqqqqqqqqqqqqqqqqqqqqqqqqqqqqqqqqqqqqqqqqqqqqqqqqqqqqqqqqqqqq$.. $##qqqqqqqqqqqqqqqqqqqqqqqqqqtsdnnMqqqqqqqqqqqqqqqqqqqqqqqqqqqqqqqqqqqqqqqqqqqqqqqqqqqqqqqqqqqqqqqqqqqqqqqqqqqqqqqqqqqqqqqk,11kl1$.o,qqqqqqqqqqqqqqqqqqqk,BDSSDAVBVd9esdueeaaqqqqqqqqqqqqqqk,1ZCACBx3ytue88uggqqqqqqqqqqqqqqqqqqcqqqqqqqqqqqqqqqqqqqqqqqqqqqqqqqqqqqqqqqqqqqqqqqqqqqqqqqqqqqqqqqqqqqqqqqqqqqqqqqq",
"qqqqqqqqqqqo o  .. <qqqqqqqqqqqqqqqqqqqqqqqo o  .. <qqqqqqqqqqqqqqqqqqqqqqqo o  .. <qqqqqqqqqqqqqqqqqqqqqqqq<#   .1qqqqqqqqqqqqqqqqqqqqqqqqq<o. .#<qqqqqqqqqqqqqqqqqqqqqqqqqqqqqqqqqqqqqqqqqqqqqqqqqqqqqqq >l>>lc%%qqqqqqqqqqqqqqqqqqqqqqqqi89unnnMqqqqqqqqqqqqqqqqqqqqqqqqqqqqqqqqqqqqqqqqqqqqqqqqqqqqqqqqqkkkllkqqqqqqqqqqqqqqqqqqqqqx>xSSSSCBck#;3:laaMqqqqqqqqqqqqifSSSACVBccx1:5essattgaqqqqqqqqqqqk,cDSSDAVBVd9esdueeaaqqqqqqqqqqqqqqqqqqxqqBBqqqqqqqqqqqqqqqqqCqqqqqqqqqqqqqqqqqqqqlDqqqqqqqqqqqqqqqqqqqqqqqqqqqqqqqqqqqq",
"qqqqqqqqqq<olv$ zC1.qqqqqqqqqqqqqqqqqqqqqq<olv$ zC1.qqqqqqqqqqqqqqqqqqqqqq<ozv$ zC1.qqqqqqqqqqqqqqqqqqqqqqqo .  .o <qqqqqqqqqqqqqqqqqqqqqqq. .  . .<qqqqqqqqqqqqqqqqqqqqqqqq<#.  o1qqqqqqqqqqqqqqqqqqqqqqo Z42dbMzwqqqqqqqqqqqqqqqqqqqqqqqqi82@;agNqqqqqqqqqqqqqqqqqqqqqqql,###oo#o#>zqqqqqqqqqqqqqqqqqqqq1,lZCAc1>$1kqqqqqqqqqqqqqqqq<>ASSSSAVcxc16eu99eanqqqqqqqqqqesahSSACBxl1,# X-68riiaaqqqqqqqqqqifSSSACZBccx1:5essattgaqqqqqqqqqqqqqBqqqqqqxqqqqqqqqqqqqqqqqqqqCqqqqqqqqqqqqqqqqqqqqqqqqqqqqqqqqqqqqqqqqqqqqqqqqqqqqqqqqq",
"qqqqqqqqqq$,A$*:$kS$lqqqqqqqqqqqqqqqqqqqqq$,A%*:=kD%lqqqqqqqqqqqqqqqqqqqqq$,D$*:=kS$lqqqqqqqqqqqqqqqqqqqqq<oxB% zAk.qqqqqqqqqqqqqqqqqqqqqq>#xx..cZ>>qqqqqqqqqqqqqqqqqqqqqqqo o  .o <qqqqqqqqqqqqqqqqqqqqqo;audmMmdguqqqqqqqqqqqqqqqqqqqqqq<66O  3y*qqqqqqqqqqqqqqqqqqqqk#      ...    .,qqqqqqqqqqqqqqqqq#>ASSSSDCc<o %kqqqqqqqqqqqqq1 ZSSSSSDCcxxx4euu88sgqqqqqqqqqe8esagmll1<,$o.   +268yrrqqqqqqqqqesahSSACBxl1,# X-68rriaaqqqqqqqqqqqqqqCqqqqqqqqqcAqqqqqqqqqqqqqqqqqqqqqqqqqqqqqqqqqqqqqqqqqqqqqqqqqqqqqqqqqqqqqqqqqqqqqqqq",
"qqqqqqqqqq#*f5eMmnNokqqqqqqqqqqqqqqqqqqqqq#*f5uMmnNokqqqqqqqqqqqqqqqqqqqqq#*u5uMNnNokqqqqqqqqqqqqqqqqqqqqq>>A#*4>kD%lqqqqqqqqqqqqqqqqqqqqq#1A#*:$CCo<qqqqqqqqqqqqqqqqqqqqq1oxB$ zA1oqqqqqqqqqqqqqqqqqqqqq#2rusu3222->qqqqqqqqqqqqqqqqqqqqk ++    X #kqqqqqqqqqqqqqqqqlo     #lBl1,#.    .1qqqqqqqqqqqqqk.#ASSSSSAVcx>.  ,kqqqqqqqqqqh;-ASSSSSAZcxxvw6eae8sgqqqqqqqqty88raay#o##oo.      +-;2qqqqqqqqqe8esagmll1<,$o.   +268rrrqqqqqqqqqqlcqqqqqqqqqqqVVqqqqqqqqqqqqqqqqqqqqqqqqqqqqqqqqqqqqqqqqqCqqqqqqqqqqqqqqqqqqqqqqqqqqqqqqC",
"qqqqqqqqqz289shmMna-$qqqqqqqqqqqqqqqqqqqqk289anmMna-$qqqqqqqqqqqqqqqqqqqqk289snmMna-$qqqqqqqqqqqqqqqqqqqqq#*e6uMMnfo>qqqqqqqqqqqqqqqqqqqq1.:s5sFNMw  >qqqqqqqqqqqqqqqqqqqq#>A%*4$zS#,kqqqqqqqqqqqqqqqqqq1.O+++O       $qqqqqqqqqqqqqqqq1#            .,qqqqqqqqqqqqq,      <ASSDABl=o     >qqqqqqqqqqq<  xSSSSSSABxx1# O*..,qqqqqqqttaanSSSSAABcxxvx5eutragqqqqqqquaueeriaa2 .             oqqqqqqqqty88raay#o##oo.      +-;2qqqqqqqqqqqqcBqqqqqqqqqqqqqqqqqqqqqqqCqqqqqqqqqqqqqqqqqqqqqqqqqqCqqqqqqqqqqqqqqqqqqqqqqqqqqqqqqqqqq",
"qqqqqqqql.;69989euf: oqqqqqqqqqqqqqqqqqql.;67989tuf: oqqqqqqqqqqqqqqqqqql.;69999tuf: oqqqqqqqqqqqqqqqqqqk.289ahmmng; olqqqqqqqqqqqqqqqq1. 289snmmns+   <qqqqqqqqqqqqqqq1$  -u6uMMnfo   >qqqqqqqqqqqqqq<.                ,qqqqqqqqqqqqko                 <qqqqqqqqqlo      1SSSSACBBx>.     oqqqqqqqqx#  >SSSSSSSAVxxx$*6uf* ,qqqqqtyreatgSDACBcxxxBc:8etiggqqqqqqqesatttita6               .qqqqqqquaueeriaa2 .             oqqqqqqqqqqqqqqqqqqqqqqqqqqqxcqqqqqqqqqAqqqqqqqqqqqqqqqqqqqqqqqqqqDqqqqqqqqqqqqqqqqqqqqqqqqqqqqqqqqq",
"qqqqqqqx.  O++@@++X   #qqqqqqqqqqqqqqqqx.  O++@@++X   #qqqqqqqqqqqqqqqqx.  O++@@++X   #qqqqqqqqqqqqqqqq$  -569968ew*   >qqqqqqqqqqqqqq#   269899esf#    $qqqqqqqqqqqqk.   289shmmng-     >qqqqqqqqqqq#                   #qqqqqqqqqq$        .%$$#.      #qqqqqqql       >SSSSSDABccl%      >qqqqqq,  ++kSSSSSSDCcxxc<58tghwqqqqqqs88yytihACBcxxxcVx#28ragfqqqqqqqqerriiiii5.               qqqqqqqesatttita6               .qqqqqqqqqqAqqqqqqqqqqqqqqqqqqqqqqqqqqqqqqqqqqqqqqqqqqqqqqqqqqqqqqqqqqqqqqqqqqqqqqqqqqqqqqqqqqqqqqqq",
"qqqqqqqo               $qqqqqqqqqqqqqqqo               $qqqqqqqqqqqqqqqo               $qqqqqqqqqqqqqq#    XXXXXXX      #qqqqqqqqqqqx.     +@@+++O       #qqqqqqqqqq#     -569969ew*      olqqqqqqqq.                     #qqqqqqqq.        ,CSSAck>o      qqqqqq#o#     vSSSSSSAZccB1o    >%qqqqq> O4syfSSSDDACBcxxBb8eipgnnqqqqtusuerippmZccxccBc< +6yaeqqqqqqqqqq266yyy6+                qqqqqqqqerriiiii5.               qqqqqqqqqqqcqqqqqqqqqqqqqqqqqqqqqqqqqqqqqqqqqqqqqqqqqqqqqqqqqqqqqqqqqqqqqqqqqqqqqqqqqqqqqqqqqqqqqqq",
"qqqqqq,        ooo.     1qqqqqqqqqqqqq,        o&o.     1qqqqqqqqqqqqq,        o&o.     1qqqqqqqqqqqq#                   >qqqqqqqqql                      #qqqqqqq1.       XXXXXXX          >qqqqq1          .$>>$o        #qqqqqqo        1SSSSAZBx<.     .qqqqq<qq.   #DSSSSSSSCBcBc$   oqqqqqqq#:fnae8MDAACCBBxxcVf8iirrggqqqqeeusatpppfZcccxxk>o  *66+qqqqqqqqqq$ X+-;O                 qqqqqqqqq266yyy6+                qqqqqqqqqqqqqqqqqqqqqqqqqqqqqqqqqqqqqqqqqqqqqqqqqqqqqqqqqqqqqqqqqqqqqqqqqqqqqqqqqqqqqqqqqqqqqqqqqqq",
"qqqqqq.      okxl,%.    oqqqqqqqqqqqqq.      okxl,%.    oqqqqqqqqqqqqq.      okxl,#.    oqqqqqqqqqqq>         o$$o.       <qqqqqqql           .ooo.        oqqqqq>  o                        %qqq1          1BCVBx1#        ,qqqq,        ,SSSSSABcBc,      $qqqqqqq   O1SSSSSSSSABccC4;;O qqqqqqqmnnaii8sDCVBvcxxxcNuippaeeaqqqqq888riipiuvxk1<>#.    .  qqqqqqqqqqo                       qqqqqqqqq$ X+-;O                 qqqqqqqqVBAqqqqqqqqqqqqqqqqqVxVqqqqqAqqqqqqqqqqqqqqqqqqqqqqqqqqqqBcqqqqqqqqqqqqqqqqqqqqqqqqqqqqqqqc",
"qqqqq<      $ASAZx<%.    1qqqqqqqqqqq<      $ASAVx<#.    1qqqqqqqqqqq<      $ASAVx<#.    1qqqqqqqqq1        .1CCck>o       qqqqqqqo         #kVcxk,#        1qqqqo1q1         .oo         o1<olqq          lSSAVccc1#     .  qqqq q      oASSSSSACccBlo   .q$qqqqqqq +whgFSSSSSSDAcxcmutgf*lqqqqqqhhtriir8NZccxccccVNyiiphatqqqqqqqq588yee2%$##oo         qqqqqqqqqq.                       qqqqqqqqqo                       qqqqqqqqqqqqqqqqqqqqqqqqqqqqqqqqqqqqxAqqqqqqqqqqqqqqqqqqqqqqqqqqqqqCqqqqqqqqqqqqqqqqqqqqqqqqqqqqqqq",
"qqqqq#     .VSSCBcx,o    >qqqqqqqqqqq#     .VSSCBcx,o    >qqqqqqqqqqq#     .ZSSCBcx,o    >qqqqqqqqq        >CSSAVBx,o      >qqqqqk $1o    .lDSSABcx1#.   o<$ qqqqqqq.       #kAAx<$o       qqqqq<o>       1SSSACBccx<o    oq$1qqqqq      >SSSSSSSAVccc$    qqqqqqqqq-fnhaaSSSSSSAVcxcf9rangfqqqqqqqtytpppydCcxccccVCdyipgnwqqqqqqqqq.+-22* X...           qqqqqqqqqq                        qqqqqqqqq.                       qqqqqqqqqqqqqqqqqqqqqqqqqqqqqqqqqqqqqqqqqqqqqqqqqqqqqqqqqqqqqqqqqqqqqqqqqqqqqqqqqqqqqqqqqqqqqqqqqqq",
"qqqqq      ,SSSACcc1$.   oqqqqqqqqqqq      ,SSSACcc1$.   oqqqqqqqqqqq      ,SSSACcc1$.   oqqqqqqqq< 1#    ,SSSSACcBc,.   .ooqqqqq<kqq    oBSSSSABccck$   .qq><qqqqq>       1DSSACBx,o      <qqqq<qk      #DSSSSDCBccx=     qqqqqqqq      kSSSSSSSDCccB,X   1qqqqqqqfagairiMSDDAACvxxcfeirangqqqqqqqqthjpprexBBBBBvcz:8tgg3oqqqqqqqqq#                     qqqqqqqqqqo                      .qqqqqqqqq                        qqqqqqqqqqqqqqqqqqqqqqqqqqqVlqqqqqqqqqqqqqqqqqqqqqqqqqqqqqqqqqqqqqqqqqqqqqqqqqqqqqqqqqqqqqqqqqqqqqq",
"qqqqk      xSSSSAVcl,o    1qqqqqqqqqk      xSSSSAVcl,o    1qqqqqqqqqk      xSSSSAVcl,o    1qqqqqqqqqqo   oCSSSSDAVcBx$   oq$qqqqqqqq%   .BSSSSDDAVccc1o   qqqqqqqqx       lSSSSACccc<o     oqqqqqq#      <SSSSSSDZccc1o    kqqqqqqq.     cSSSSSSSDCccC1    >qqqqqqqetryytahDACCVcxxxburiryahgqqqqqqqqghapr6o$<kk1,$oX2ef- >qqqqqqqqq<                    oqqqqqqqqq1$                      >qqqqqqqqqo                      .qqqqqqqqqqclqqqqqqqqqqqqqqqqqqqqqqqqqqqqqqqqqqqqqqqqqqqqqqqqqqqqqqqqqqqqqqqqqqqqqqqqqqqqqqqqqqqqqqq",
"qqqqk     #ASSSSDCcc<#.   1qqqqqqqqqk     #ASSSSDCcc<#.   1qqqqqqqqqk     #ASSSSDCcc<#.   1qqqqqqqqql    <SSSSSSDCBcB<    kqqqqqqqqq    kSSSSSSSDCBccc>   <qqqqqqq<      lSSSSSDCBccc>     oqqqqqqo      xSSSSSSDABcBl#    <qqqqqqqo     cSSSSSSSDCccC<    $qqqqqqq9988taggmZccccxxxfeiittytnqqqqqqqqwfgar5   .oo.   X+   kqqqqqqqqqq.                   <qqqqqqqqqoo                      qqqqqqqqq1$                      >qqqqqqqqqDqqqqqqqqqqqqqqqqCqqqqqqqqqqqqqqqqqqqqqqqqqqqqqqqqqqqqqqqqqqqqqqqqqqqqqqqqqqqqqqqqqqqqqqqq",
"qqqq1 .   >SSSSSSABck$. #o1qqqqqqqqq1 .   >SSSSSSABck$. #o1qqqqqqqqq1 .   >SSSSSSABck$. #o1qqqqqqqqqk    xSSSSSSSAVcBlo   $qqqqqqqqx.  .CSSSSSSSSACccB1.  >qqqqqqq#     >SSSSSSSDCccBlo    .qqqqqq<      CSSSSSSSAVcBx#    1qqqqqqq,  O++1SSSSSSDABccC4234*$qqqqqqqu77yipghhZcxxxxxb9ippggtaqqqqqqqqqqo3u6*              oqqqqqqqqqqql                  oqqqqqqqqqq1                      ,qqqqqqqqqoo                      qqqqqqqqqqqqqcqqqqqqqqqqqqqxqqqqqqqqqqqDCqqqqqqqqqqqqqqqqqqqqqqqqcqqqqqqqqqqqqqqqqqqqqqqqqqqqqqqqqqq",
"qqqqqlo   1SSSSSSAVcx>. >kqqqqqqqqqqqlo   1SSSSSSAVcx>. >kqqqqqqqqqqqlo   1SSSSSSAVcx>. >kqqqqqqqqqql    VSSSSSSSDCcBl#   #qqqqqqqqc   >SSSSSSSSSSAccBlo  $qqqqqqq$     lSSSSSSSSABccc>    oqqqqqqq      CSSSSSSSABcBx#    kqqqqqqqq+4fnhsMSDDDACVccBZtythnhqqqqqqqq09yiiahhZcccxxcberiphggqqqqqqqqqqq, OO               kqqqqqqqqqqqq,                 qqqqqqqqqqqq$                    >qqqqqqqqqq1                      ,qqqqqqqqqqqqBxqqqqqqqqqqqqqqqqqqqqqqqqqqqqqqqqqqqqqqqqqqqqqqqqqqqqDqqqqqqqqqqqqqqqqqqqqqqqqqqqqqqqqC",
"qqqqqqo   1SSSSSSACBc,. 1qqqqqqqqqqqqqo   1SSSSSSACBc,. 1qqqqqqqqqqqqqo   1SSSSSSACBc,. 1qqqqqqqqqqqq   oCSSSSSSSDABBx$.  $qqqqqqqqqo  >SSSSSSSSSDABcBl#  %qqqqqqq1     cSSSSSSSSDCBcV<.   oqqqqqqqo     cSSSSSSACBcBx#    lqqqqqqqtatsuuafADCCVBcccCN8779uhgqqqqqqqq288rpggACBccvZb8yaggwqqqqqqqqqqqqq=                1qqqqqqqqqqqqqq>               qqqqqqqqqqqqqq<                  >qqqqqqqqqqqq$                    >qqqqqqqqqqqqqqqqqqqqqqqqAcqqqqqqqqqqqqqqqqqqqqqqqqqqqqqqqqqqqqqqqqqqqqCqqqqqqqqqqqqqqqqqqqqqqqqqqqqqq",
"qqqqqqo   lSSSSSSACBc<. <qqqqqqqqqqqqqo   lSSSSSSACBc<. <qqqqqqqqqqqqqo   lSSSSSSACBc<. <qqqqqqqqqqqqo  .VSSSSSSSDAZcc,   >qqqqqqqqq#  oASSSSSSSSDCccBko  ,qqqqqqql    .VSSSSSSSSACcvVk.   $qqqqqqq,     ,SSSDAACBccVlo    qqqqqqqqtte979g3,ACccccBBx:677799tqqqqqqqqk2988s31VCBBcl>5tga3qqqqqqqqqqqqqqq,             #qqqqqqqqqqqqqqqqq1o           $qqqqqqqqqqqqqqqqq1$o              1qqqqqqqqqqqqq<                  >qqqqqqqqqqqqqqqqqqxqqqqqqqVqqqqqqqqqqqqqqqqqqqqqqqqqqqqqqqqqqqqqAqqqqqqqqqqqqqqqqqqqqqqqqqqqqqqqqqqqqq",
"qqqqqq>   xSSSSSSAVcc<. 1qqqqqqqqqqqqq>   xSSSSSSAVBc<. 1qqqqqqqqqqqqq>   xSSSSSSAZcc<. 1qqqqqqqqqqqq>   cSSSSSSSDCcBc>.  1qqqqqqqqq1   lSSSSDDDACBccB1.  lqqqqqqqqo    vSSSSSSSDABccCzo   kqqqqqqqq     #DSDCVBcccBB,.   >qqqqqqqqqd9798gw >cCVBxz<&-999tuqqqqqqqqqqqk-595O #,<<># +52*qqqqqqqqqqqqqqqqqk$         .<qqqqqqqqqqqqqqqqqqqql,o     o>qqqqqqqqqqqqqqqqqqqqqq1#            qqqqqqqqqqqqqqqq1$o              1qqqqqqqqqqqqqqqqqqAqqqBqqqqqqqqqqqqqqqqqqqqqqqqqqqqqqqqqqqqqqqqqxAqqqqqqqqqqqqqqqqqqqqqqqqqqqqqqqqqqqq",
"qqqqqqk   <SSSSDACBBc,. lqqqqqqqqqqqqqk   <SSSSDACBBc,. lqqqqqqqqqqqqqk   <SSSSDACBBc,. lqqqqqqqqqqqqq   kSSSDDDACBcBx$   qqqqqqqqqqq   #ASDACCZVcccBc,   qqqqqqqqq,    lSSSSDDDACccBC1    qqqqqqqqq$     ,DSCccccBc1#X  .qqqqqqqqqqqd988ah+ .,1,>#. 289egqqqqqqqqqqqqqx#*O    ..O    #qqqqqqqqqqqqqqqqqqqqk>o     >qqqqqqqqqqqqqqqqqqqqqqqqqqqqqqqqqqqqqqqqqqqqqqqqqqqqqqqqqz,#       #qqqqqqqqqqqqqqqqqqq1#            qqqqqqqqqqqqqqqqqqqqqqqxqqqqqqqqqqqqqqqqqqqqqqqqqqqqqqqqqqqqqqqqqqqqqqqqqqqqqqqqqqqqqqqqqqqqqqqqqqqqCqq",
"qqqqqqq.  #ASAACZBcBc> .qqqqqqqqqqqqqqq.  #ASAACZBcBc> .qqqqqqqqqqqqqqq.  #ASAACZBcBc> .qqqqqqqqqqqqqq<  oBSACCCVBcBc<o  <qqqqqqqqqqq>   <AACBBccccBB1o  $qqqqqqqqqq.   $SSDAACCVBccVB$   $qqqqqqqqqqoO*;;*,xBVVBcl,;23321qqqqqqqqqqqqs88ah+    .    *esgqqqqqqqqqqqqqqqql$        .#kqqqqqqqqqqqqqqqqqqqqqqqq<  $qqqqqqqqqqqqqqqqqqqqqqqqqqqqqqqqqqqqqqqqqqqqqqqqqqqqqqqqqqqqqq>     $qqqqqqqqqqqqqqqqqqqqqqql,#       #qqqqqqqqqqqqqqqqqqqqqqqVqqqqqqqqqqqqqqqqqqqqCqqqqqqqqqqqqqqqDqqqqqqqqqqqqqqqqqqqqqqqqqqqqqqqqqqqqqqqqqq",
"qqqqqqqk   1SAVBcccVloX>qqqqqqqqqqqqqqqk   1SAVBcccVlo >qqqqqqqqqqqqqqqk   1SAVBcvvVl& >qqqqqqqqqqqqqqq$  &xCZBBBccl,o  <qqqqqqqqqqqqqo   %lBcccccxl,o   qqqqqqqqqqq1    <AACVBBBcBBB,    qqqqqqqqqqqbyrripy-&,<,>#;yryriaqqqqqqqqqqqqqhes:          .4qqqqqqqqqqqqqqqqqqqqx1$o.o$1qqqqqqqqqqqqqqqqqqqqqqqqqqqqqqqqqqqqqqqqqqqqqqqqqqqqqqqqqqqqqqqqqqqqqqqqqqqqqqqqqqqqqqqqqqqqqqqqqqqqqqqqqqqqqqqqqqqqqqqqqqqqqq>     $qqqqqqqqqqqqqqqqqqqqqqqqqqqqqqqqqqqqqqqqqqqqqqqqqqcqqqqqqqqqqqVqqqqqqqqqqqqCqqqqqqqqqqqqqqqqqqqqqqqqqqqq",
"qqqqqqqq422-zZVVZVVNw;-bqqqqqqqqqqqqqqqq422-zZVVVVVNw;-bqqqqqqqqqqqqqqqq422*zZVVVVZNw;-bqqqqqqqqqqqqqqqq4;;*>1kkk1<>--*4qqqqqqqqqqqqqqq<*2;*$>,<<,>:;-*#qqqqqqqqqqqqqk  +224kxBcBcl14-*OX1qqqqqqqqqqqae325rpr2    ;rr52fsaqqqqqqqqqqqqqqqqq1>o   .o>1qqqqqqqqqqqqqqqqqqqqqqqqqqqqqqqqqqqqqqqqqqqqqqqqqqqqqqqqqqqqqqqqqqqqqqqqqqqqqqqqqqqqqqqqqqqqqqqqqqqqqqqqqqqqqqqqqqqqqqqqqqqqqqqqqqqqqqqqqqqqqqqqqqqqqqqqqqqqqqqqqqqqqqqqqqqqqqqqqqqqqqqqqqqqqqqqqqqqqqqqqqqqqqqqqqqqqVqqqqqqqqqqqqqqqqqqqqqqqqqqqqqqqqqqqqqqqqqqqqqqqqqqqqq",
"qqqqqqq08ripy3,1kwfuriiigqqqqqqqqqqqqqq08riiy3,1kwfuriiigqqqqqqqqqqqqqq08riiy3,1kwfuyiiigqqqqqqqqqqqqqqu8ypiy:#o&*36riipqqqqqqqqqqqqqqq08riiy* ..*5yriitqqqqqqqqqqqqqqw29rryy:>>$$36yiiywqqqqqqqqqqqqqqqqk:;2-   +66qqqqqqqqqqqqqqqqqqqqqqqqqqqqqqqqqqqqqqqqqqqqqqqqqqqqqqqqqqqqqqqqqqqqqqqqqqqqqqqqqqqqqqqqqqqqqqqqqqqqqqqqqqqqqqqqqqqqqqqqqqqqqqqqqqqqqqqqqqqqqqqqqqqqqqqqqqqqqqqqqqqqqqqqqqqqqqqqqqqqqqqqqqqqqqqqqqqqqqqqqqqqqqqqqqqqqqqqqqqqqqqqqqqqqqqqqqqqqqqqqqqqqqqqqqqqxqqqqqqqqqqqqqqqqqqqqqqqqqqqqqqqqqqqqqqqCqqqqqqq",
"qqqqqqu9dssstaqqqb70dbburqqqqqqqqqqqqqu9dssstaqqqb70dbburqqqqqqqqqqqqqu9dssstaqqqb70dbburqqqqqqqqqqqqqs9dssstaqqqb7udddurqqqqqqqqqqqqqu0dssstgqqqb9sdddeaqqqqqqqqqqqqqd9dasstuqqqf70ddbuiqqqqqqqqqqqqqqqqqqqqqqqqqqqqqqqqqqqqqqqqqqqqqqqqqqqqqqqqqqqqqqqqqqqqqqqqqqqqqqqqqqqqqqqqqqqqqqqqqqqqqqqqqqqqqqqqqqqqqqqqqqqqqqqqqqqqqqqqqqqqqqqqqqqqqqqqqqqqqqqqqqqqqqqqqqqqqqqqqqqqqqqqqqqqqqqqqqqqqqqqqqqqqqqqqqqqqqqqqqqqqqqqqqqqqqqqqqqqqqqqqqqqqqqqqqqqqqqqqqqqqqqqqqqqqqqqqqqqqqqCqqqqqqqqqqqqqqqqqqqqqqqqCqqqqqqqqqqqqqqqqqqqqqq"
};
