/* XPM */
static char * faller_xpm[] = {
"240 30 64 1",
" 	c None",
".	c #ABABAB",
"+	c #4E4D4D",
"@	c #131313",
"#	c #000000",
"$	c #080808",
"%	c #888888",
"&	c #353535",
"*	c #979797",
"=	c #252525",
"-	c #6E6E6E",
";	c #B9B9B9",
">	c #DADADA",
",	c #080000",
"'	c #CACACA",
")	c #A5ADB5",
"!	c #563512",
"~	c #F7FFFF",
"{	c #251D16",
"]	c #312921",
"^	c #737B84",
"/	c #DED6CE",
"(	c #E0E5E4",
"_	c #291808",
":	c #755A27",
"<	c #92652E",
"[	c #DE9C21",
"}	c #ED5600",
"|	c #FFB267",
"1	c #FCF1D1",
"2	c #DEC69C",
"3	c #FFEBAE",
"4	c #ED712C",
"5	c #F36A08",
"6	c #FFE797",
"7	c #FFDA8F",
"8	c #AD5000",
"9	c #FF7700",
"0	c #FAB052",
"a	c #FFD9A8",
"b	c #FECC57",
"c	c #FFCC68",
"d	c #FD9228",
"e	c #FFB130",
"f	c #A39E94",
"g	c #B5944A",
"h	c #FF8903",
"i	c #FF5500",
"j	c #0F0203",
"k	c #FF9213",
"l	c #FFBD46",
"m	c #BD862A",
"n	c #FDD672",
"o	c #C6944A",
"p	c #ECECEC",
"q	c #FFF7ED",
"r	c #F7F7F7",
"s	c #AD734A",
"t	c #FFAA12",
"u	c #FF9902",
"v	c #FFC642",
"w	c #FFAF04",
"x	c #FFC639",
"y	c #421808",
"                                                                                                                                                                                                                                                ",
"                                                                                                                                                                                                                                                ",
"                                                                                                                                                                                                                                                ",
"                                                                                                                                                                                                                                                ",
"           .+@##$+                                                                                                                                                                             .+@##$+                       %&$##$+            ",
"          *##$##@#=                      .+@##$+                        -@$#$=              ++                     ++               -@$#$=                       .+$##$+                      *##$##@#=                     +#@$#$@#+           ",
"          @+;*#&>.=%                    %#$$,#@#@            %@&%      $#$##$#$     -&@=%    +#&      +@###=     &#=     %@&%      $#$##$#$     -&@=%           %#$$##@#=                     @+;*#&>.=%                    #-'-#->*@           ",
"          $);@!+&~%+                    =+'%,&>;{*            .&##]%  +=..$@;'+& -=##=^       +##-   ##$##@@#  @##+       .&##=%  +=..$@;/&& ^=##=-             =+'%#&>;=*                    $);@!+&~%+                   %$(-_:++~+-          ",
"        %^$<[}|123+&%                  %#.._:-&~%&%             -###$-@->=!+&>>##$##+          =##= +&;;@@;>+$###+          ^###$-@^(=!+&>(#####+              %#.)_:-&~%&%                 %^$<[}|123+&%                  -_4456177]-          ",
"     %+=#$89407a6b<##$]+*        %+@@$$$$<45c177+####&+-         -$####:d}e126f####-            ###$$->_!<&'(###@            -$####:d}e126f####-         %+@@$$$@<45c177+####&+-         %+=#$89407a6b<##$]+*            g-!hid|7a7b<$+-        ",
"   +@####j85545kdlg$#####&%   -=$######j59k07a6cm$######$=%       ^##$89907a6c[_##=             -####:d}01a6g###%             -###89507a6n[_##=       -=$######j}9k0766bm$######$=%    +@####j85545kdlg$#####&%       --@$#_855559[o:####=-     ",
" -#########__jj@jj#########+*       +##$:}}}}55o:###-              $##8}54hkd0o_,$               @#,8990c77ce_#@               $##8555kkd0o_#$              +##$:}}}}55o:###-        -#########__jj@jj#########+*   -+###$$##j,,,,,########&-   ",
" =+-  %@#####@&&@$####@  -+#=         $##@-%%%%&###+               =###f//////+##@               +#,<54d4dd|g@#=               =##$f//////+##@                $##@-%%%%&###+        -=+-  %@#####@&&@$####@  -+#=  -##$=@###############+=###*  ",
"       -###@*pqp.-@###-               ##@'~~~r('-$#@               =##+~~~~~rp;=##               +#&>qqp((>(;@#=               =##+~~~~~pr;=##                ##@'~~~r('-@#@               -###@*pqp.-@###-       *=     @####@&++@$$##@  -+##- ",
"       =##$.~~rp';+@##&              &##*~~~~p'')+@#-              ##$;~~~~r>>'-@#-              @#-~~~rp('''+$$               ##$;~~~~r>>'-@#-              &#,*~~~~p''.+@#-              =##$.~~rp';+@##&              @###+>p>/*+$$##-     * ",
"      %###-~~~r>''.=$##              ##+r~~~~p';;%&$=             -##&r~~~~rp''*=$=              ##.~~~rp>';'-@$              -##&p~~~~rp''*=$=              ##+r~~~~p';;%&$=             %###-~~~r>''.=$##             %###+r~~p>'*&$##=       ",
"      +##@;~~~~p';;-@##%            -##-~~~~~p>;;.+@@             =##+r~~~~rp>';+@=              ##.~~~~rp>;'*=#              =#$+r~~~~~p>';+@=             -##-~~~~~r>.;.+@@             +##@;~~~~p';;-@##%            =##=/~~~p>';-=$#@       ",
"      @##&>~~~~r>;;%=$#-            &##*~~~~~r>;;;-@$-            @##+~~~~~~rp''-@@              ##.~~~~rp>;;.&#              @##+~~~~~~r>''-@@             &##*~~~~~r>;;;-@$-            @##&>~~~~r>;;%=$#-            @##-r~~~rp';*&$#@       ",
"      $##-~~~~~~>';*&$#+            =#@'~~~~~r>;;;-=$$            @#$+~~~~~~r>';-@@             %##.~~~~~p>;;.+$-             @##+~~~~~~r>''-@@             =#@'~~~~~r>;.;-=$$            $##-~~~~~~>';*&$#+            $##.~~~~~p';;+@$#       ",
"      ###%~~~~~~p;;*+@#=            $#=>~~~~~r>;.;%=#$            @##-rr~~~~p';;-@@             *##%~~~~rp';;.+$-             @##-~~~~~~p';;-@$             $#=>~~~~~r>;.;%=#$            ###%~~~~~~p;;*+@#=            ##$'~~~~~p>;;-@$#       ",
"      ##@;~~~~~~>;;.+@#&            $#=>~~~~~p';.;-@#$            !##+p~~~~r>;;;+$@             g@#+~~~rp>';;.+#- cc          !##+p~~~~r>;;;+$@             $#=>~~~~~p';.;^@#$            ##@;~~~~~~>;;.+@#&            ##@'~~~~~r';;%=$#       ",
"     2@#$;~~~~~r>;;.+$#+          3n!@$;~~~~p>'.;;-$jsca        blt8!];~rrp>';;*&_8dhu        cvttm:>~p(>>;;;*&!5hhtc       bvt8!];~rrp>';;*&_8dhu        3n!@$;~~~~r>'.;;-$jsc6         2@#$;~~~~~r>;;.+$#+            @#@>~~~~~p';;%=$$       ",
"    bv[8!.~~~rr>'.;;+!89ue       6cvttmfr~rp(';.;.:89hue3      bneuen[fp(>/';;;-89huhtn      bntueccn>>>';;;.-}huwhd7      bneueb[fpp(>';;;-89huhtn      6cvttmfr~rp>';.;.:89hue3       bv[8!.~~~rr>'.;;+!89ue        7n!,#'~~~~rp'.;%=#]hh     ",
"   bneuebbq~rp'';.;.59uuh07      bcthecb2rp';;.;;s9hwuh07      bchhtenb2p';;;;*<huwwhh7     1cl99utnbo''';;;-}hwwwh9n6     bchhuenb2p'';;;%<huwwhh7      bcthecb2rp';;.;;s9hwuh07      bneuebbq~rp'';.;.59uuh07      bcet[:f~~ppp>;;.-!8hhue    ",
"   b0hhuvncqr>';;;;5hwtu9e7     1clhhuenb2('.;;;siuwwu9d71    6cei5hwvn0;;;;.-:iuwww99ln    60diihwe6b-*..*-89wwwwuilc    6ceiihwv70.;;;.-:iuwww99vn    1clhhuenb2(>.;;)siuwwu9d71     b0hhuvncqr>';;;;5hwtu9e7     6cluuxnl1~p>/';'.<9uuuhb7   ",
"  6cei9utbcb...)*)49wwwu9kn3    7bkiihwx7[^;;.*-}hwwwt9hb3    7lhii9uunc!+--+@8hwttxdidv    7e9iiihubn!&+&&@89ttxleikx    7vkii9uunc!+--+=8htttedidv    7bkiihwx7[-;;.*-}hwwwt9hb3    6cei9utbcb...)*)49wwwu9kn3    nnk9hwvnb>p>'';)s9uwwuie7   ",
"  7lhii9ut7b_&++++}uwweeh9e6    ne9iiihucb_&+&=_iutevlh9e6     k5dii9uec!#@$@#89txbbvdh      d0a0i99ke!#@$##89txlc67d      k5dii9hec!#@@@#8htxbbvdh     ne9iiihwcb_=++=_iutevlh9e6    7lhii9ut7b_&++++}uwweeh9e6    bl9i9uwcng^%%--+}hwwwt9kb3  ",
"   khdii9ul0_$@=@_ihexbleht      d099i99ee@#$$$jihexbll0t          |59h[_##$##89htb               cd}8j#####y}el6              |59h[_##$##89htb          d099i99ee@#$$$jihexbll0t      khdii9ul0_$@=@_ihexbleht     ediii9ut7m#@==@_iutxllhhea  ",
"       059h#@####_#9uen               |dd$$####$$dec                  -]######&-                                                                              |dd$$####$$dec               059h#@####_#9uen          ddd4i9hlm#,#,@!iktvb7a0t   ",
"                                                                                                                                                                                                                          0de        den        "};
