/* XPM */
static char * climber_xpm[] = {
"152 48 9 1",
" 	c None",
".	c #5A395A",
"+	c #DEBD5A",
"@	c #DEDEBD",
"#	c #FFFFF7",
"$	c #000000",
"%	c #5D3C5D",
"&	c #FFFF9E",
"*	c #FFFFFF",
"                          .....                                  ....                                 .....                                  ....       ",
"         ..              .++++..                ..              .++++.               ..              .++++..                ..              .++++.      ",
"        .@#..        $$$$$$+++++...            .@#..         $$$$$++++...           .@#..        $$$$$$+++++...            .@#..         $$$$$++++...   ",
"  %%%  .@ @.&..      $*****$++++.++.          .@ @.&..      $*****$+++.++.         .@ @.&..      $*****$++++.++.          .@ @.&..      $*****$+++.++.  ",
" %%%%% . @.&&&&..   $******$+++++++.          . @.&&&&..   $******$+++++++.        . @.&&&&..   $******$+++++++.          . @.&&&&..   $******$+++++++. ",
" %%%%%  .......&.   $******$+++++++.   %       .......&.   $******$+++++++.   %%%   .......&.   $******$+++++++.   %       .......&.   $******$+++++++. ",
" %%%%  .&&&&&&&&&...$******$++++++++..%%%     .&&&&&&&&&...$******$++++++++. %%%%% .&&&&&&&&&...$******$++++++++..%%%     .&&&&&&&&&...$******$++++++++.",
"%%%%&%%.&&&&&...&.#@#$***$$++++++++++.%%%  %%..&&&&&...&.#@#$***$$+++++++++. %%%% %.&&&&&...&.#@#$***$$++++++++++.%%%  %%..&&&&&...&.#@#$***$$+++++++++.",
"%%%%&&&.&&&..&&&.#@.@#$$$++++++++++++.%%%%%&&&.&&&..&&&.#@.@#$$$+++++++++++.%%%%%%&.&&&..&&&.#@.@#$$$++++++++++++.%%%%%&&&.&&&..&&&.#@.@#$$$+++++++++++.",
"%%%&&&&.........#@.@#@#$$$$++++++++++.%%%&&&&&.........#@.@#@#$$$$+++++++++.%%%%&%&.........#@.@#@#$$$$++++++++++.%%%&&&&&.........#@.@#@#$$$$+++++++++.",
" %%&&%&.&&..&&&.@#@#@$$****$+++++++++.%%%&&%&&.&&..&&&.@#@#@$$****$++++++++.%%&&&&&.&&..&&&.@#@#@$$****$+++++++++.%%%&&%&&.&&..&&&.@#@#@$$****$++++++++.",
"   %%%&.&&&&..&.#@#@$*******$++++++++.%%%%%&&&.&&&&..&.#@#@$*******$+++++++. %%&&&&.&&&&..&.#@#@$*******$++++++++.%%%%%&&&.&&&&..&.#@#@$*******$+++++++.",
"    %&&.&&&&&&...#@#$*******$++++++++.%%%&&&&&.&&&&&&...#@#$*******$+++++++.%%%&&&&.&&&&&&...#@#$*******$++++++++.%%%&&&&&.&&&&&&...#@#$*******$+++++++.",
" %% %&&.&&&&&&&&..#@$*******$+++++++. %%%&&&&&.&&&&&&&&..#@$*******$+++++++.%%%%&&&.&&&&&&&&..#@$*******$+++++++. %%%&&&&&.&&&&&&&&..#@$*******$+++++++.",
"%%%%%&&.&&&&.&&&&..#$*******$++++++.  %%%&&&&&.&&&&.&&&&..#$*******$++++++. %%%&%&&.&&&&.&&&&..#$*******$++++++.  %%%&&&&&.&&&&.&&&&..#$*******$++++++. ",
"%%%%&&&.&&..&&&&&.#@#$****$$+++++++.  %%%%%%&&.&&..&&&&&.#@#$****$$+++++++. %%%%&%&.&&..&&&&&.#@#$****$$+++++++.  %%%%%%&&.&&..&&&&&.#@#$****$$+++++++. ",
"%%%%%&&.&.&&&&&&&....#$$$$+++++++++.  %%%   %..&.&&&&&&&....#$$$$+++++++++.  %%%%%%.&.&&&&&&&....#$$$$+++++++++.  %%%   %..&.&&&&&&&....#$$$$+++++++++. ",
"%%%%%%&..&&&&&&&.   .@#@#$+++++++++.   %     ...&&&&&&&..  .@#@#$++++++++.     %%% ..&&&&&&&.   .@#@#$+++++++++.   %     ...&&&&&&&..  .@#@#$++++++++.  ",
" %%%%%%.@.&&&&&.    ..@#@$++++++.+.           .@.&&&&&.    ..@#@$+++++..+.         .@.&&&&&.    ..@#@$++++++.+.           .@.&&&&&.    ..@#@$+++++..+.  ",
"   %%%.@#@.&&&.       ...$+++++++.           .@#@.&&&.       ...$+++++++.         .@#@.&&&.       ...$+++++++.           .@#@.&&&.       ...$+++++++.   ",
"      .#@#.&..         .++++++++++.          .#@#.&..         .+++++++++.         .#@#.&..         .++++++++++.          .#@#.&..         .+++++++++.   ",
"       .#...            ...+++++..            .#...           ...++++++.           .#...            ...+++++..            .#...           ...++++++.    ",
"        .               .++++++.               .               .+++++..             .               .++++++.               .               .+++++..     ",
"                         ......                                 .....                                ......                                 .....       ",
"       ....                                  .....                                 ....                                  .....                          ",
"      .++++.              ..                ..++++.              ..               .++++.              ..                ..++++.              ..         ",
"   ...++++$$$$$         ..#@.            ...+++++$$$$$$        ..#@.           ...++++$$$$$         ..#@.            ...+++++$$$$$$        ..#@.        ",
"  .++.+++$*****$      ..&.@ @.          .++.++++$*****$      ..&.@ @.         .++.+++$*****$      ..&.@ @.          .++.++++$*****$      ..&.@ @.  %%%  ",
" .+++++++$******$   ..&&&&.@ .          .+++++++$******$   ..&&&&.@ .        .+++++++$******$   ..&&&&.@ .          .+++++++$******$   ..&&&&.@ . %%%%% ",
" .+++++++$******$   .&.......       %   .+++++++$******$   .&.......   %%%   .+++++++$******$   .&.......       %   .+++++++$******$   .&.......  %%%%% ",
".++++++++$******$...&&&&&&&&&.     %%%..++++++++$******$...&&&&&&&&&. %%%%% .++++++++$******$...&&&&&&&&&.     %%%..++++++++$******$...&&&&&&&&&.  %%%% ",
".+++++++++$$***$#@#.&...&&&&&..%%  %%%.++++++++++$$***$#@#.&...&&&&&.% %%%% .+++++++++$$***$#@#.&...&&&&&..%%  %%%.++++++++++$$***$#@#.&...&&&&&.%%&%%%%",
".+++++++++++$$$#@.@#.&&&..&&&.&&&%%%%%.++++++++++++$$$#@.@#.&&&..&&&.&%%%%%%.+++++++++++$$$#@.@#.&&&..&&&.&&&%%%%%.++++++++++++$$$#@.@#.&&&..&&&.&&&%%%%",
".+++++++++$$$$#@#@.@#.........&&&&&%%%.++++++++++$$$$#@#@.@#.........&%&%%%%.+++++++++$$$$#@#@.@#.........&&&&&%%%.++++++++++$$$$#@#@.@#.........&&&&%%%",
".++++++++$****$$@#@#@.&&&..&&.&&%&&%%%.+++++++++$****$$@#@#@.&&&..&&.&&&&&%%.++++++++$****$$@#@#@.&&&..&&.&&%&&%%%.+++++++++$****$$@#@#@.&&&..&&.&%&&%% ",
".+++++++$*******$@#@#.&..&&&&.&&&%%%%%.++++++++$*******$@#@#.&..&&&&.&&&&%% .+++++++$*******$@#@#.&..&&&&.&&&%%%%%.++++++++$*******$@#@#.&..&&&&.&%%%   ",
".+++++++$*******$#@#...&&&&&&.&&&&&%%%.++++++++$*******$#@#...&&&&&&.&&&&%%%.+++++++$*******$#@#...&&&&&&.&&&&&%%%.++++++++$*******$#@#...&&&&&&.&&%    ",
".+++++++$*******$@#..&&&&&&&&.&&&&&%%% .+++++++$*******$@#..&&&&&&&&.&&&%%%%.+++++++$*******$@#..&&&&&&&&.&&&&&%%% .+++++++$*******$@#..&&&&&&&&.&&% %% ",
" .++++++$*******$#..&&&&.&&&&.&&&&&%%%  .++++++$*******$#..&&&&.&&&&.&&%&%%% .++++++$*******$#..&&&&.&&&&.&&&&&%%%  .++++++$*******$#..&&&&.&&&&.&&%%%%%",
" .+++++++$$****$#@#.&&&&&..&&.&&%%%%%%  .+++++++$$****$#@#.&&&&&..&&.&%&%%%% .+++++++$$****$#@#.&&&&&..&&.&&%%%%%%  .+++++++$$****$#@#.&&&&&..&&.&&&%%%%",
" .+++++++++$$$$#....&&&&&&&.&..%   %%%  .+++++++++$$$$#....&&&&&&&.&.%%%%%%  .+++++++++$$$$#....&&&&&&&.&..%   %%%  .+++++++++$$$$#....&&&&&&&.&.&&%%%%%",
"  .++++++++$#@#@.  ..&&&&&&&...     %   .+++++++++$#@#@.   .&&&&&&&.. %%%     .++++++++$#@#@.  ..&&&&&&&...     %   .+++++++++$#@#@.   .&&&&&&&..&%%%%%%",
"  .+..+++++$@#@..    .&&&&&.@.           .+.++++++$@#@..    .&&&&&.@.         .+..+++++$@#@..    .&&&&&.@.           .+.++++++$@#@..    .&&&&&.@.%%%%%% ",
"   .+++++++$...       .&&&.@#@.           .+++++++$...       .&&&.@#@.         .+++++++$...       .&&&.@#@.           .+++++++$...       .&&&.@#@.%%%   ",
"   .+++++++++.         ..&.#@#.          .++++++++++.         ..&.#@#.         .+++++++++.         ..&.#@#.          .++++++++++.         ..&.#@#.      ",
"    .++++++...           ...#.            ..+++++...            ...#.           .++++++...           ...#.            ..+++++...            ...#.       ",
"     ..+++++.               .               .++++++.               .             ..+++++.               .               .++++++.               .        ",
"       .....                                 ......                                .....                                 ......                         "};
