/* XPM */
static char * explosion_xpm[] = {
"64 64 14 1",
" 	c None",
".	c #000000",
"+	c #382F16",
"@	c #6F5E2D",
"#	c #A68E44",
"$	c #DEBD5A",
"%	c #E6CE6B",
"&	c #F7EE8D",
"*	c #EEDE7C",
"=	c #FFFF9E",
"-	c #FFFFCE",
";	c #FFFFFF",
">	c #FFFFE7",
",	c #FFFFB6",
"                ....                                            ",
"                .....                                           ",
"                .....                                           ",
"                ......                 ...                      ",
"                 .......              .....                   ..",
"                 ........            ......                .....",
"                 ..........         .......               ......",
"                  ...+@@.....     ....@@...             ........",
"                  ...#$$$+...........#$$#...         ...........",
"                  ...$$$$$#+........#$$$$#..       ...........  ",
"                  ...$$$$$$$@.....+#$$$$$$@..     ..........    ",
"        .....    ....$$$$$$$$$$$$$$$$$$$$$$+...............     ",
"        .............$$$$$$$$$$$$$$$$$$$$$$$+............       ",
"        ............+$$$$$$$$$$$$$$$$$$$$$$$$+....#$$...        ",
"         ...........#$$$$$$$$$$$$$$$$%&*$$$$$$#@@$$$@..         ",
"          .........#$$$$$$$$$$$$$$$$&====%$$$$$$$$$#..          ",
"           ....$$$$$$$$$*==&*$$$$$$&======%$$$$$$$$@..          ",
"           ...@$$$$$$$$&=======&===========$$$$$$$$..           ",
"           ...@$$$$$$$&====================*$$$$$$@..           ",
"           ...$$$$$$$&=====================*$$$$$$+..           ",
"    ..   ....#$$$$$$&======================*$$$$$#..            ",
"   .........#$$$$$$&=======================*$$$$$@..            ",
"   ........#$$$$$$&=====-;;>-==============$$$$$$...            ",
"   ......+$$$$$$%======>;;;;;;;;;;;;,======$$$$$$...            ",
"   .....#$$$$$$%======>;;;;;;;;;;;;;>======$$$$$$...            ",
"    ...+$$$$$$$======,;;;;;;;;;;;;;;;,=====%$$$$$@..            ",
"     ...$$$$$$$======>;;;;;;;;;;;;;;;;,=====%$$$$$+..           ",
"      ..+$$$$$$&=====-;;;;;;;;;;;;;;;;;,=====%$$$$$@..          ",
"       ..+$$$$$$&=====;;;;;;;;;;;;;;;;;;,=====%$$$$$@...        ",
"        ..+$$$$$%=====,;;;;;;;;;;;;;;;;;>=====&$$$$$$+....      ",
"        ...@$$$$$%=====-;;;;;;;;;;;;;;;;;,=====%$$$$$#......    ",
"        ....$$$$$$======;;;;;;;;;;;;;;;;;======$$$$$$$.......   ",
"        ....$$$$$$======;;;;;;;;;;;;;;;;-=====*$$$$$$+........  ",
"        ...@$$$$$*=====-;;;;;;;;;;;;;;;>=====&$$$$$$+........   ",
"       ...+$$$$$$======;;;;;;;;;;;;;;;>=====&$$$$$#....         ",
"      ....#$$$$$&=====>;;;;;;;;;;;;;;>=====&$$$$$#...           ",
"      ...#$$$$$&=====>;;;;;;;;;;;;;;>=====&$$$$$#...            ",
"     ...#$$$$$%=====,;;;;;;;;;;;;;;;,=====%$$$$$@...            ",
"    ....$$$$$$&=====>;;;;;;;;;;;;;;>======%$$$$$@...            ",
"    ...@$$$$$$*=====,;;;>--;;;;;;;;,======*$$$$$@...            ",
"     ...#$$$$$$============,;;;;;;,========$$$$$$+...           ",
"      ...#$$$$$%============,;;;;>=========%$$$$$$+....         ",
"       ...+$$$$$%=============--,==========$$$$$$$$+....        ",
"        ...+$$$$$%========================*$$$$$$$$@......      ",
"         ...@$$$$$%======================&$$$$$$@@.........     ",
"          ...#$$$$$%====&*&=============&$$$$$#............     ",
"           ..+$$$$$$$$$$$$$%======&****%$$$$$#.............     ",
"           ...#$$$$$$$$$$$$$%====&$$$$$$$$$$$....   ......      ",
"            ..+$$$$$$$$$$$$$$$**%$$$$$$$$$$$@...                ",
"            ...$$$$$$$$$$$$$$$$$$$$$$$$$$$$$@..                 ",
"            ...$$$$$$$$$$$$$$$$$$$$$$$$$$$$$+..                 ",
"            ...$$$$$$$$$#@#$$$$$$$$$$$$$$$$$...                 ",
"            ..+$$$$$#@@....+$$$$$$#@@#$@@@@....                 ",
"           ...@$$$#+........+$$$$#..............                ",
"           ...@$$#...........+$$#...............                ",
"          ..........       ...........    ......                ",
"          ........          .......         .....               ",
"         ........           ......           ....               ",
"         ......              ....             ..                ",
"         ....                ....                               ",
"                             ....                               ",
"                              ...                               ",
"                              ...                               ",
"                              ...                               "};
