/* XPM */
static char * faller_xpm[] = {
"48 76 8 1",
" 	c None",
".	c #5A395A",
"+	c #DEBD5A",
"@	c #000000",
"#	c #FFFFFF",
"$	c #FFFFF7",
"%	c #DEDEBD",
"&	c #FFFF9E",
"      .......                 .......           ",
"      .++++++.               ..++++++.          ",
"   ...++++++++....         ...++++++++....      ",
"  .+++++++++++++++. .     .+++++++++++++++. .   ",
"  .++++++++++++++++.+.    .++++++++++++++++.+.  ",
"  ..++++++++++++++.++.    ..++++++++++++++.++.  ",
" .++++++++++++++++++++.  .++++++++++++++++++++. ",
"..+++++++++++++++++++++...+++++++++++++++++++++.",
".++++++++++++++++++++++..++++++++++++++++++++++.",
".++++++++++@@@@++++++++..++++++++++@@@@++++++++.",
".++@@@@+++@####@+++++++..++@@@@+++@####@+++++++.",
".+@####@+@#####@+++++.+..+@####@+@#####@+++++.+.",
" .@####@+@######@@@@+.+. .@####@+@######@@@@+.+.",
"  @#####@@######@$%.+..   @#####@@######@$%.... ",
"  @#####@@######@%$..   ..@#####@@######@%$..   ",
"  @#####@$@#####@$%.    ..@#####@$@#####@.......",
"  @@###@$%@####@$%.     .$@@###@$%@####@$..%.%$.",
"    @@@$%$%@@@@$...     .%$%@@@$%$%@@@@$...$%$..",
"      .%.%$%$%$%.       ....&&.%.%$%$%$.&&.%$%. ",
"      .$%.%$%$.$.         .&&&.$%.%$%$.&&&.$%$. ",
"      ..$%$%$....          .&&&.$%$%$.&&&&..... ",
"    ..&&.$%$..&&&.         .&&&&.$%$..&&&&&&..  ",
"    .&&.&....&&&&&.         .&&.&...&&&&&&&..   ",
"   .&.&.&.&&.&&&&&&.        ..&.&.&&.&&&&&&.    ",
"   .&.&.&.&.&&&&&&&&.        .&.&.&.&&&&&&.     ",
"  .&&.&&..&.&&.&&&&&.        .&&..&.&&&&&&.     ",
"  ..&.&&...&&&&.&&&&&.       .&&...&&&&&&&.     ",
" .$%..&&&..&&&&.&&&...       .&&&..&&&&&&&.     ",
" .% %.&&&.&&&&&&.&.%$.       .&&&.&&&&&&&&.     ",
"  .% .&&&.&&&&&&&.%$%$.      .&&&.&&&&&&&..     ",
"   .. .............%$.        ............      ",
"       .&&&&&&&&&&&..          .&&&&&&&&&&.     ",
"    .. .&&..&&&&&..         .. .&&..&&&&&...    ",
"   ....&&&&....&....       ....&&&&....&....    ",
"   ......&&.  ......       ......&&.  ......    ",
"   ........  .......       ........  ......     ",
"    .......  ......         .......  ......     ",
"       ...    ....             ...    ....      ",
"           .......                 .......      ",
"          .++++++.                .++++++..     ",
"      ....++++++++...         ....++++++++...   ",
"   . .+++++++++++++++.     . .+++++++++++++++.  ",
"  .+.++++++++++++++++.    .+.++++++++++++++++.  ",
"  .++.++++++++++++++..    .++.++++++++++++++..  ",
" .++++++++++++++++++++.  .++++++++++++++++++++. ",
".+++++++++++++++++++++...+++++++++++++++++++++..",
".++++++++++++++++++++++..++++++++++++++++++++++.",
".++++++++@@@@++++++++++..++++++++@@@@++++++++++.",
".+++++++@####@+++@@@@++..+++++++@####@+++@@@@++.",
".+.+++++@#####@+@####@+..+.+++++@#####@+@####@+.",
".+.+@@@@######@+@####@. .+.+@@@@######@+@####@. ",
" ..+.%$@######@@#####@   ....%$@######@@#####@  ",
"   ..$%@######@@#####@     ..$%@######@@#####@..",
"    .%$@#####@$@#####@  .......@#####@$@#####@..",
"     .%$@####@%$@###@@  .$%.%..$@####@%$@###@@$.",
"     ...$@@@@%$%$@@@    ..$%$...$@@@@%$%$@@@%$%.",
"       .%$%$%$%.%.       .%$%.&&.$%$%$%.%.&&....",
"       .$.$%$%.%$.       .$%$.&&&.$%$%.%$.&&&.  ",
"       ....$%$%$..       .....&&&&.$%$%$.&&&.   ",
"      .&&&..$%$.&&..      ..&&&&&&..$%$.&&&&.   ",
"     .&&&&&....&.&&.       ..&&&&&&&...&.&&.    ",
"    .&&&&&&.&&.&.&.&.       .&&&&&&.&&.&.&..    ",
"   .&&&&&&&&.&.&.&.&.        .&&&&&&.&.&.&.     ",
"   .&&&&&.&&.&..&&.&&.       .&&&&&&.&..&&.     ",
"  .&&&&&.&&&&...&&.&..       .&&&&&&&...&&.     ",
"  ...&&&.&&&&..&&&..%$.      .&&&&&&&..&&&.     ",
"  .$%.&.&&&&&&.&&&.% %.      .&&&&&&&&.&&&.     ",
" .$%$%.&&&&&&&.&&&. %.       ..&&&&&&&.&&&.     ",
"  .$%............. ..         ............      ",
"   ..&&&&&&&&&&&.            .&&&&&&&&&&.       ",
"     ..&&&&&..&&. ..        ...&&&&&..&&. ..    ",
"    ....&....&&&&....       ....&....&&&&....   ",
"    ......  .&&......       ......  .&&......   ",
"    .......  ........        ......  ........   ",
"     ......  .......         ......  .......    ",
"      ....    ...             ....    ...       "};
