/* XPM */
static char * splat_xpm[] = {
"120 76 11 1",
" 	c None",
".	c #5D3C5D",
"+	c #FF0000",
"@	c #BF3F5F",
"#	c #DFBE5D",
"$	c #000000",
"%	c #FFFFFF",
"&	c #3F5FBF",
"*	c #FFFF9E",
"=	c #DFDFBE",
"-	c #9F3F5F",
"       ..   ...               .     .                +       +@        ++    +                              ++          ",
"       ..  .#.    ..         .... ...           +    +      ++@+   +  +            +++@      ++             ++       ++ ",
" ...  .##...#.  ...      ... .###.##. ....       +  ++      ++@+  +  +             +++@     ++++            ++      ++++",
"  .#. .###.##. ..#. . .  .###.###.##..##.....     +  ++     ++@+    +      +      ++++@    +++++           +++     +++++",
"  .###.###.##..###....  ...#############..##.      + ++ ..  .+@     +    ++ ++ + .++.+     +++++ ++ +      ++      +++  ",
"....##############.##.  .##################.      ++$$$$ .. ++@    ++   ++++++ ++.++++   +++++++  +++      +      ++    ",
" .##################.   .#################.        $%+%%$   $$$$   +   + +++++  + ++$+  + ++++++   ++      +      +     ",
" .#################.   . .################....  .  $%+%%$+ $%%%%$     +    ++++   ++++ + ++++++     +      +     ++     ",
"  .################....  .########$$$$#######.. .  $++%%%$$++%%%$     + + + ++    +++  + ++++                    +      ",
"  .########$$$$#######. ..$$$$###$%%%%$#####.      $%%+%%@@%%+%%%$+  +  ++   ++    ++   ++++  + ++   +          +       ",
"...$$$$###$%%%%$#####.  .$%+%%$#$++%%%$####..    + @%%+%$@$%%%+%%$+ +   +++   +  + +   ++++ +                           ",
".#$%&%%$#$%&%%%$####..  .$%+%%$#$%%+%%%$$$$.     +*@+%+%$@$%%+%+%$ +++   +++          +++  +                            ",
"..$%&%%$#$%%&%%%$$$$.   .$++%%%$$%%%+%%$%=.#.     +@@$$$+@+$+%%%$+ +++                +++    +                          ",
"..$&&%%%$$%%%&%%$%=.#.   $%%+%%$$%%+%+%$=%.#.++   +++@+++@+$%%%%+++++. @              +     +.                          ",
"  $%%&%%$$%%&%&%$=%.#.   $%%+%$=%$+%%%$++.+++.+-   +@@+++@++$$$++@++.           +     +    ++++                  ++     ",
"  $%%&%$=%$&%%%$$..#...   $%+%$%=$%%%%++ ++..      ++@+++++++++@+++.+          ++    +   +++++++                    ++++",
"   $%&%$%=$%%%%$=.#.    .  $$$%=%=$$$++ -- .=.      @@@++++++++@+@@@@++  ++   @+++   +   +++@+++                     +++",
" .  $$$%=%=$$$$ .#. ..   ..****... = ++--.. . . ++++++++++++++@++@+++++ +++++  +++      ++++++++                      ++",
". .... =... = .=... .=. =.+++**.... .+--*. = =. @@@@@+++@+@++@++@++++++         + @     +     +                         ",
".=.***. .... ....... . . +--++++ = .+--**.= = .   +++++++++++++@++......    ++++                                        ",
". .****.= = ..****. = =.=.**---++.+++-****.= =. +@++  +++++++++@+++++++ +  +  ++++                 +  +                 ",
".=.*****....*.****.= = ...****-+++++--**++++++    @  @@@+++++++++++++    ++          + +++++     +++           +        ",
"...****.**.**.*****.= =.    .*+-+++-+++++++++++     ++++++++++++++ +    +    +  + +  +   ++++   ++      +        +      ",
"  ....*.**.*.******....   +++++++++++++***-----+    ++@@+++++++++++++       + @@           +++  ++                 +    ",
"     .**.*.*.*****..    ------+++++++**++++    -   ++@+@+++++++++@@++++      @++       +    +++++                       ",
"     .**.*..*****.           -.++++++-+--+++++   ++++++@++++++++++@.   +   ++++       +    . +++    ++                  ",
"     .***...*****.        ++++*--++++++**---+++  .. ++@@+++++++++++.. *   +++++       ++ +  .+++    +            +   ++ ",
"     .***..******.       +++  --+*-++-+**. ---++    ++.@@+++++++++++.     + +++  +    +++     +     +                 + ",
"     .****.******.      ++   +-*.+-+-+***.   --+++++++.@+++@++++@++++ .   ++++     @  ++@ +   +    +              +   ++",
"      .***.*****..          +-  +-++-++*..    -  ++++.+@@++@++@+@++*+ ..  +++   +  @  @+@ ++      ++    +         +    +",
" ..  .*.**.**....*.        +  +-+*+-+-+..*.     +++@+ @++++@++@+@+@++ +.  +++   +  @  @+@ @+      ++    +         @    +",
".... .**.....*****.  ..  ..  .*-**+-.-****.  .. ++@++@++++++++@+@@+@+ @    +    +  +  @+@  ++      +           +        ",
".....**************. ....... .**..+-.-*****. ...++@ @+@+++++++ +@@+@++ @         + +   +@  +++                 +   +    ",
" ....*****.....*****.........******- -.*****....+++ +@+  +.+++ +@+++@+ @       +  ++   +@  +++                 +@   ++  ",
" .....**..     .***....  ....*****.+ - .***....  ++ +@+  +++++ ++  +@+ @       +   +  +++  +@++        +      +++   @+  ",
"  ......        .......  .....**.. +    .......      +    ++   ++   +@        +    +  +++  ++@+       ++   +  +++   +@  ",
"  ....           .....    ......   +     .....   @   +    ++   +    ++        ++   +   +   ++++       ++   +   +        ",
"                 ...      ....           ...        +     +    +     +         +++ +   +                   +   +        ",
"         ...   ..                  .     .      +        @+       +                       +    +          ++            ",
"    ..    .#.  ..                  ... ....      +  +   +@++      +    + ++      @+++            ++       ++            ",
"     ...  .#...##.  ...       .... .##.###. ...   +  +  +@++      ++  + ++++     @+++           ++++      ++            ",
" . . .#.. .##.###. .#.     .....##..##.###.###.    +    +@++     ++  +  +++++    @++++      +   +++++     +++           ",
"  ....###..##.###.###.     .##..#############...   +     @+.  .. ++ +   +++++     +.++. + ++ ++   +++      ++      + ++ ",
"  .##.##############....    .##################.   ++    @++ .. $$$$++  +++++++   ++++.++ ++++++    ++      +      +++  ",
"   .##################.      .#################.+   +   $$$$   $%%+%$   ++++++ +  +$++ +  +++++      +      +      ++   ",
".   .#################.   ....################.  +     $%%%%$ +$%%+%$  . ++++++ + ++++   ++++        ++     +      +    ",
" ....################.   ..#######$$$$########.  +     $%%%++$$%%%++$  .   ++++ +  +++    ++ + +      +                 ",
" .#######$$$$########.     .#####$%%%%$###$$$$..  +  +$%%%+%%@@%%+%%$    +  ++++   ++    ++   ++       +          +   ++",
"  .#####$%%%%$###$$$$...   ..####$%%%++$#$%%+%$.   + +$%%+%%%$@$%+%%@ +    + ++++   + +  +   +++                        ",
"  ..####$%%%&%$#$%%&%$#.    .$$$$%%%+%%$#$%%+%$.  +++ $%+%+%%$@$%+%+@*+     +  +++          +++                         ",
"   .$$$$%%%&%%$#$%%&%$..   .#.=%$%%+%%%$$%%%++$.  +++ +$%%%+$+@+$$$@@+    +    +++                                      ",
"  .#.=%$%%&%%%$$%%%&&$.. ++.#.%=$%+%+%%$$%%+%%$ @ .+++++%%%%$+@+++@+++    .+     +                                      ",
"  .#.%=$%&%&%%$$%%&%%$  -+.+++.++$%%%+$%=$%+%%$    .++@++$$$++@+++@@+    ++++    +     +             ++                 ",
" ...#..$$%%%&$%=$%&%%$     ..++ ++%%%%$=%$%+%$     +.+++@+++++++++@++   +++++++   +    ++       ++++                    ",
"    .#.=$%%%%$=%$%&%$     .=. -- ++$$$=%=%$$$  . ++@@@@+@++++++++@@@    +++@+++   +   +++@   ++ +++                     ",
"  .. .#. $$$$=%=%$$$  .  . . ..--++ = ...****..  +++++@++@++++++++++++++++++++++      +++  +++++++                      ",
" .=. ...=. = ...= .... . .= = .*--+. ....**+++.= ++++++@++@++@+@+++@@@@@ +     +     @ +                                ",
". . ....... .... .***.=. . = =.**--+. = ++++--+ ......++@+++++++++++++                  ++++                            ",
".= = .****.. = =.****. . .= =.****-+++.++---**.= +++++++@+++++++++  ++@+              ++++  +  +                 +  +   ",
". = =.****.*....*****.=.  ++++++**--+++++-****..   +++++++++++++@@@  @      +++++ +          ++         +           +++ ",
".= =.*****.**.**.****... +++++++++++-+++-+*.        + ++++++++++++++       ++++   +  + +  +    +      +        +      ++",
" ....******.*.**.*....  +-----***+++++++++++++     +++++++++++++@@++      +++           @@ +        +                 ++",
"    ..*****.*.*.**.     -    ++++**+++++++------ ++++@@+++++++++@+@++   ++++    +       ++@                            +",
"      .*****..*.**.       +++++--+-++++++.-     +   .@++++++++++@++++++ +++ .    +       ++++                     ++    ",
"      .*****...***.      +++---**++++++--*++++   * ..+++++++++++@@++ .. +++.  + ++       +++++   ++   +            +    ",
"      .******..***.     ++--- .**+-++-*+--  +++    .+++++++++++@@.++     +     +++    +  +++ +   +                 +    ",
"      .******.****.     +--   .***+-+-+.*-+   ++ . ++++@++++@+++@.++++++ +   + @++  @     ++++  ++   +              +   ",
"      ..*****.***.       -    ..*++-++-+  -+    .. +*++@+@++@++@@+.++++     ++ @+@  @  +   +++  +    +         +    ++  ",
"     .*....**.**.*.  ..      .*..+-+-+*+-+  +   .+ ++@+@+@++@++++@ +@+++    +@ @+@  @  +   +++  +    @         +    ++  ",
" ..  .*****.....**. .... ..  .****-.-+**-*.  ..  @ +@+@@+@++++++++@++@++   ++  @+@  +  +    +           +           +   ",
"... .**************........ .*****-.-+..**. ....@ ++@+@@+ +++++++@+@ @++  +++  @+   + +             +   +               ",
"....*****.....*****.... ....*****.- -******.....@ +@+++@+ +++.+  +@+ +++  +++  @+   ++  +         ++   @+               ",
" ....***.     ..**.....  ....***. - +.*****.... @ +@+  ++ +++++  +@+ ++  ++@+  +++  +   +         +@   +++      +       ",
" .......        ......   .......    + ..**.....   @+   ++   ++    +      +@++  +++  +    +        @+   +++  +   ++      ",
"  .....           ....    .....     +   ......    ++    +   ++    +   @  ++++   +   +   ++              +   +   ++      ",
"    ...                     ...           ....    +     +    +     +            +   + +++               +   +           "};
