/* XPM */
static char * walker_xpm[] = {
"96 76 9 1",
" 	c None",
".	c #5A395A",
"+	c #DEBD5A",
"@	c #000000",
"#	c #FFFFFF",
"$	c #FFFFF7",
"%	c #DEDEBD",
"&	c #FFFF9E",
"*	c #5D3C5D",
"      .......                 ........                .......                 ........          ",
"      .++++++.              ..++++++++...             .++++++.              ..++++++++...       ",
"   ...++++++++....         .+++++++++++++..        ...++++++++....         .+++++++++++++..     ",
"  .+++++++++++++++. .     .++++++++++++++++..     .+++++++++++++++. .     .++++++++++++++++..   ",
"  .++++++++++++++++.+.    .+++++++++++++++.++.    .++++++++++++++++.+.    .+++++++++++++++.++.  ",
"  ..++++++++++++++.++.    ..++++++++++++++.+++.   ..++++++++++++++.++.    ..++++++++++++++.+++. ",
" .++++++++++++++++++++.  .++++++++++++++++++++.  .++++++++++++++++++++.  .++++++++++++++++++++. ",
"..+++++++++++++++++++++..++++++++++++++++++++++...+++++++++++++++++++++..++++++++++++++++++++++.",
".++++++++++++++++++++++..++++++++++@@@@++++++++..++++++++++++++++++++++..++++++++++@@@@++++++++.",
".++++++++++@@@@++++++++..++@@@@+++@####@+++++++..++++++++++@@@@++++++++..++@@@@+++@####@+++++++.",
".++@@@@+++@####@+++++++..+@####@+@#####@+++++++..++@@@@+++@####@+++++++..+@####@+@#####@+++++++.",
".+@####@+@#####@+++++.+. .@####@+@######@@@@+.+..+@####@+@#####@+++++.+. .@####@+@######@@@@+.+.",
" .@####@+@######@@@@+.+.  @#####@@######@$%.+..  .@####@+@######@@@@+.+.  @#####@@######@$%.+.. ",
"  @#####@@######@$%.+..   @#####@@######@%$...    @#####@@######@$%.+..   @#####@@######@%$...  ",
"  @#####@@######@%$..     @#####@$@#####@$%.      @#####@@######@%$..     @#####@$@#####@$%.    ",
"  @#####@$@#####@$%.       @###@$%@####@$%.       @#####@$@#####@$%.       @###@$%@####@$%.     ",
"  @@###@$%@####@$%.         @@@$%$%@@@@$...       @@###@$%@####@$%.         @@@$%$%@@@@$...     ",
"    @@@$%$%@@@@$...           .%.%$%$%$%.           @@@$%$%@@@@$...           .%.%$%$%$%.       ",
"      .%.%$%$%$%.             .$%.%$%$.$.             .%.%$%$%$%.             .$%.%$%$.$.       ",
"      .$%.%$%$.$.             ..$%$%$.....            .$%.%$%$.$.             ..$%$%$.....      ",
"      ..$%$%$....           ..&&.$%$..&&&.            ..$%$%$....           ..&&.$%$..&&&.      ",
"    ..&&.$%$..&&&.          .&&.&....&&&&&.         ..&&.$%$..&&&.          .&&.&....&&&&&.     ",
"    .&&.&....&&&&&.        .&.&.&.&&.&&&&&&.        .&&.&....&&&&&.        .&.&.&.&&.&&&&&&.    ",
"   .&.&.&.&&.&&&&&&.       .&.&.&.&.&&&&&&&&.      .&.&.&.&&.&&&&&&.       .&.&.&.&.&&&&&&&&.   ",
"   .&.&.&.&.&&&&&&&&.     .&&.&&..&.&&.&&&&&.      .&.&.&.&.&&&&&&&&.     .&&.&&..&.&&.&&&&&.   ",
"  .&&.&&..&.&&.&&&&&.     ..&.&&...&&&&.&&&&&.    .&&.&&..&.&&.&&&&&.     ..&.&&...&&&&.&&&&&.  ",
"  ..&.&&...&&&&.&&&&&.   .$%..&&&..&&&&.&&&...    ..&.&&...&&&&.&&&&&.   .$%..&&&..&&&&.&&&...  ",
" .$%..&&&..&&&&.&&&...   .% %.&&&.&&&&&&.&.%$.   .$%..&&&..&&&&.&&&...   .% %.&&&.&&&&&&.&.%$.  ",
" .% %.&&&.&&&&&&.&.%$.    .% .&&&.&&&&&&&.%$%$.  .% %.&&&.&&&&&&.&.%$.    .% .&&&.&&&&&&&.%$%$. ",
"  .% .&&&.&&&&&&&.%$%$.    .. .............%$.    .% .&&&.&&&&&&&.%$%$.    .. .............%$.  ",
"   .. .............%$.         .&&&&&&&&.. ..      .. .............%$.         .&&&&&&&&.. ..   ",
"       *&&&&&&&&&&*..          *&&&&&&&&*              *&&&&&&&&*  ..          *&&&&&&&&*       ",
"    ** *&&**&&&&&***           *&&*&&&&*              * **&&&&&***             *&&*&&&&*        ",
"   ****&&&&****&****            *&&*&&&*             ****&&&&&*&**              *&&*&&&*        ",
"   ******&&*  ******            *&&*&&&*             *****&&&*&***              *&&*&&&*        ",
"   ********  ******           ***********            *****&******             ***********       ",
"    *******  ******          *************            ***********            *************      ",
"       ***    ****            ***********               *** ****              ***********       ",
"           .......                ........                 .......                ........      ",
"          .++++++.             ...++++++++..              .++++++.             ...++++++++..    ",
"      ....++++++++...        ..+++++++++++++.         ....++++++++...        ..+++++++++++++.   ",
"   . .+++++++++++++++.     ..++++++++++++++++.     . .+++++++++++++++.     ..++++++++++++++++.  ",
"  .+.++++++++++++++++.    .++.+++++++++++++++.    .+.++++++++++++++++.    .++.+++++++++++++++.  ",
"  .++.++++++++++++++..   .+++.++++++++++++++..    .++.++++++++++++++..   .+++.++++++++++++++..  ",
" .++++++++++++++++++++.  .++++++++++++++++++++.  .++++++++++++++++++++.  .++++++++++++++++++++. ",
".+++++++++++++++++++++...++++++++++++++++++++++..+++++++++++++++++++++...++++++++++++++++++++++.",
".++++++++++++++++++++++..++++++++@@@@++++++++++..++++++++++++++++++++++..++++++++@@@@++++++++++.",
".++++++++@@@@++++++++++..+++++++@####@+++@@@@++..++++++++@@@@++++++++++..+++++++@####@+++@@@@++.",
".+++++++@####@+++@@@@++..+++++++@#####@+@####@+..+++++++@####@+++@@@@++..+++++++@#####@+@####@+.",
".+.+++++@#####@+@####@+..+.+@@@@######@+@####@. .+.+++++@#####@+@####@+..+.+@@@@######@+@####@. ",
".+.+@@@@######@+@####@.  ..+.%$@######@@#####@  .+.+@@@@######@+@####@.  ..+.%$@######@@#####@  ",
" ..+.%$@######@@#####@    ...$%@######@@#####@   ..+.%$@######@@#####@    ...$%@######@@#####@  ",
"   ..$%@######@@#####@      .%$@#####@$@#####@     ..$%@######@@#####@      .%$@#####@$@#####@  ",
"    .%$@#####@$@#####@       .%$@####@%$@###@       .%$@#####@$@#####@       .%$@####@%$@###@   ",
"     .%$@####@%$@###@@       ...$@@@@%$%$@@@         .%$@####@%$@###@@       ...$@@@@%$%$@@@    ",
"     ...$@@@@%$%$@@@           .%$%$%$%.%.           ...$@@@@%$%$@@@           .%$%$%$%.%.      ",
"       .%$%$%$%.%.             .$.$%$%.%$.             .%$%$%$%.%.             .$.$%$%.%$.      ",
"       .$.$%$%.%$.            .....$%$%$..             .$.$%$%.%$.            .....$%$%$..      ",
"       ....$%$%$..            .&&&..$%$.&&..           ....$%$%$..            .&&&..$%$.&&..    ",
"      .&&&..$%$.&&..         .&&&&&....&.&&.          .&&&..$%$.&&..         .&&&&&....&.&&.    ",
"     .&&&&&....&.&&.        .&&&&&&.&&.&.&.&.        .&&&&&....&.&&.        .&&&&&&.&&.&.&.&.   ",
"    .&&&&&&.&&.&.&.&.      .&&&&&&&&.&.&.&.&.       .&&&&&&.&&.&.&.&.      .&&&&&&&&.&.&.&.&.   ",
"   .&&&&&&&&.&.&.&.&.      .&&&&&.&&.&..&&.&&.     .&&&&&&&&.&.&.&.&.      .&&&&&.&&.&..&&.&&.  ",
"   .&&&&&.&&.&..&&.&&.    .&&&&&.&&&&...&&.&..     .&&&&&.&&.&..&&.&&.    .&&&&&.&&&&...&&.&..  ",
"  .&&&&&.&&&&...&&.&..    ...&&&.&&&&..&&&..%$.   .&&&&&.&&&&...&&.&..    ...&&&.&&&&..&&&..%$. ",
"  ...&&&.&&&&..&&&..%$.   .$%.&.&&&&&&.&&&.% %.   ...&&&.&&&&..&&&..%$.   .$%.&.&&&&&&.&&&.% %. ",
"  .$%.&.&&&&&&.&&&.% %.  .$%$%.&&&&&&&.&&&. %.    .$%.&.&&&&&&.&&&.% %.  .$%$%.&&&&&&&.&&&. %.  ",
" .$%$%.&&&&&&&.&&&. %.    .$%............. ..    .$%$%.&&&&&&&.&&&. %.    .$%............. ..   ",
"  .$%............. ..      .. ..&&&&&&&&.         .$%............. ..      .. ..&&&&&&&&.       ",
"   ..*&&&&&&&&&&*              *&&&&&&&&*          ..  *&&&&&&&&*              *&&&&&&&&*       ",
"    ***&&&&&**&&* **            *&&&&*&&*             ***&&&&&** *              *&&&&*&&*       ",
"    ****&****&&&&****           *&&&*&&*              **&*&&&&&****             *&&&*&&*        ",
"    ******  *&&******           *&&&*&&*              ***&*&&&*****             *&&&*&&*        ",
"     ******  ********          ***********             ******&*****            ***********      ",
"     ******  *******          *************            ***********            *************     ",
"      ****    ***              ***********              **** ***               ***********      "};
