/* XPM */
static char * angel_xpm[] = {
"184 30 64 1",
" 	c None",
".	c #020206",
"+	c #363636",
"@	c #8E5606",
"#	c #7A8626",
"$	c #FEB606",
"%	c #FED26E",
"&	c #DE9228",
"*	c #EAE3D7",
"=	c #AAAAAE",
"-	c #DEB646",
";	c #0E2A16",
">	c #1A2226",
",	c #724206",
"'	c #FEEE86",
")	c #9E6E1E",
"!	c #FECA4E",
"~	c #B6B0A8",
"{	c #FEEEBE",
"]	c #5E5E16",
"^	c #D6CEC2",
"/	c #7A7A7E",
"(	c #623606",
"_	c #281B09",
":	c #DED2C2",
"<	c #FEAA06",
"[	c #967256",
"}	c #060A0B",
"|	c #4E4E4E",
"1	c #BCBBBD",
"2	c #FBF5E7",
"3	c #522A06",
"4	c #5D5B61",
"5	c #D6BE9E",
"6	c #FEDA96",
"7	c #8C857E",
"8	c #CCCACB",
"9	c #D27606",
"0	c #949390",
"a	c #FE8A06",
"b	c #FDFAEE",
"c	c #68686B",
"d	c #EAEAEE",
"e	c #E5D5C7",
"f	c #151615",
"g	c #FEBE3E",
"h	c #F6EADA",
"i	c #ECDACB",
"j	c #FEAA26",
"k	c #A69E96",
"l	c #2A2E2E",
"m	c #F6FEFE",
"n	c #32423E",
"o	c #F8EEDC",
"p	c #F6F6F6",
"q	c #262626",
"r	c #DBD9DB",
"s	c #F6BE76",
"t	c #CFD5DA",
"u	c #FE9606",
"v	c #EEDECE",
"w	c #F1E2D2",
"x	c #3D3E3D",
"y	c #F3E6D6",
"                    b b b b                                       b b b b                                       b b b b                                       b b b b b                 ",
"                 b b       b b                                 b b       b b                                 b b       b b                                   b         b                ",
"                b b           b                               b b           b                               b b           b                                 b           b               ",
"                 b b       b b                                 b b       b b                                 b b       b b                                   b         b                ",
"                    b b b b                                       b b b b                                       b b b b                                       b b b b b                 ",
"                                                                                                                                                                                        ",
"          0 0         > >         0 0                     0         > >       0                           0       > >                                   0       | > c       0           ",
"         w i h       } . .       h e w                   v w       } . .     1 i 8                       e       } . .     e                         8 i 1     } . } l     w v          ",
"        e i i h     . q q n     h v i e                 e i w     . q q n     i i                         v     . q q n     e                         i v     } t 1 t 0   w v e         ",
"       i v v w ^   q t o d |   ^ w v v i               : v w :   q t o d |   w v v                       v     q t o d |   w :                       v v w     p t t 0   : w v :        ",
"      i w w h h     5 & - [     y h w v i             e v y h     5 & - [   h h w i                     i h     5 & - [     v                       i w h h   q s 6 % |   y y v e       ",
"     v y y o 2 h   ) j { ' ]   h 2 o y y v             w h o h   ) j { ' ] y o o y e                     h h   ) j { ' ]   o i                     e y o o y . a % o ! . h o h w        ",
"    e v y 2 2 2 * . g ! % ' . * 2 2 2 y v i           v w 2 2 8 . g ! % ' } o 2 o w                     i 2   . g ! % ' . h o                       v o 2 o } & ! ! 6 # ~ 2 2 y v       ",
"   ^ v h 2 b 2 2 . _ , 3 , ; l 2 2 b 2 h v ^         : y 2 b o . _ , 3 , ; x 2 b o v                     2 1 . _ , 3 , ; l 2 w                     v o b 2 > . , ( ( ( . * b 2 y :      ",
"    w y 2 b b 2 . + . } > . + q p b b 2 h w           w 2 b 2 . + . } > . + r 2 b h v                   y b . + . } > . + 7 2                     v h 2 b y . . . l } } n 2 b 2 y       ",
"   v h     b 2 + . . / t 1 } + c 2 b     h v         v 2   b c . . / t 1 } + 2 b   h ~                 8   4 . . / t 1 } + 2 h                   ~ h   b 2 f + + 1 8 4 + c b   2 v      ",
"    y         / > . 1 . . r . + c         y /       7 h     ~ > . 1 . . r . x 7     w                       > . 1 . . r . x c ~                   v       x + 4 p | m 4 + ~     o 7     ",
"   w           + } . p | p . } +           v         v       + } . p | p . } +                             + } . p | p . } +                               + } m . . d } f       v      ",
"                + } . . . . } f                               + } . . . . } >       ~                       + } . . . . } f                       ~       + } . . | . } } +             ",
"               + . . . | } } . +                             + . . . | } } . +                             + . . . | } } . +                               f . . . . } . f              ",
"                . . } } } } . .                               . . } } } } . .                               . . } } } } . .                               + . } } | } } . +             ",
"               + / } 4 m 4 } + +                             + / } 4 m 4 } + +                             + / } 4 m 4 } + +                               . 4 } m m } 4 .              ",
"                . m m m p 8 = .                               . m m m p 8 = .                               . m m m p 8 = .                               c / m m p d = | c             ",
"                 c p d d 8 k +                                 c p d d 8 k +                                 c p d d 8 k +                                 . d m d r 1 0 .              ",
"                l 8 r r 8 = / +                               l 8 r r 8 = / +                               l 8 r r 8 = / +                                 l d r 8 1 = }               ",
"                 _ = 1 = = 0 .                                 _ = 1 = = 0 .                                 _ = 1 = = 0 .                                   4 1 1 = k l )              ",
"                  , 4 / / | } j                                 , 4 / / | } j                                 , 4 / / | } j                                 9 + / / c f @               ",
"                 u @ , k ( , u                                 u @ , k ( , u                                 u @ , k ( , u                                   u ( [ 4 , 9 !              ",
"                  < <     u u                                   < <     u u                                   < <     u u                                   j < a   a u <               ",
"                   $ <     <                                     $ <     <                                     $ <     <                                     < $     u <                "};
