/* XPM */
static char * ballooner_xpm[] = {
"240 62 64 1",
" 	c None",
".	c #040508",
"+	c #024626",
"@	c #7A4806",
"#	c #282829",
"$	c #F89614",
"%	c #8198F1",
"&	c #363636",
"*	c #BEBBC0",
"=	c #522A06",
"-	c #FA3F4F",
";	c #5E5A62",
">	c #929296",
",	c #797574",
"'	c #623606",
")	c #D1CBCE",
"!	c #CF0815",
"~	c #F8C374",
"{	c #F64D54",
"]	c #666666",
"^	c #FDB80A",
"/	c #7287ED",
"(	c #576FE8",
"_	c #F3393F",
":	c #CED6DE",
"<	c #02DA6E",
"[	c #0E4E2E",
"}	c #DA4202",
"|	c #FCC451",
"1	c #C7A4E9",
"2	c #E20B1A",
"3	c #FE8A06",
"4	c #FEDA96",
"5	c #DADADE",
"6	c #EAEAEE",
"7	c #474848",
"8	c #F22B3D",
"9	c #172422",
"0	c #FCC53F",
"a	c #C2569E",
"b	c #047D40",
"c	c #AC9DEA",
"d	c #FE758C",
"e	c #E0A8AC",
"f	c #E42228",
"g	c #FEDB70",
"h	c #FEC41B",
"i	c #617FED",
"j	c #F6FCFA",
"k	c #F2101C",
"l	c #F9AB08",
"m	c #E07C09",
"n	c #FD5C72",
"o	c #9E6E1E",
"p	c #5B614B",
"q	c #161616",
"r	c #968DE6",
"s	c #9A9DF2",
"t	c #F67E5E",
"u	c #D42406",
"v	c #FED95B",
"w	c #ABA6A8",
"x	c #FDBB24",
"y	c #A688DB",
"                  _kkk_                          _kkk_                          _kkk_                         _kkk_                        _kkk_                        _kkk_                        _kkk_                          _kkk_       ",
"                nkkkkk2k                       nkkkkk2k                       nkkkkk2k                      nkkkkk2k                     nkkkkk2k                     nkkkkk2k                     nkkkkk2k                       nkkkkk2k      ",
"               nkk8{n{822n                    nkk8{n{822n                    nkk8{n{822n                   nkk8{n{822n                  nkk8{n{822n                  nkk8{n{822n                  nkk8{n{822n                    nkk8{n{822n    ",
"               kk_nddn-2!k                    kk_nddn-2!k                    kk_nddn-2!k                   kk_nddn-2!k                  kk_nddn-2!k                  kk_nddn-2!k                  kk_nddn-2!k                    kk_nddn-2!k    ",
"              -2kndddn_k!!{                  -2kndddn_k!!{                  -2kndddn_k!!{                 -2kndddn_k!!{                -2kndddn_k!!{                -2kndddn_k!!{                -2kndddn_k!!{                  -2kndddn_k!!{   ",
"              k2k-nnn{k2!!f                  k2k-nnn{k2!!f                  k2k-nnn{k2!!f                 k2k-nnn{k2!!f                k2k-nnn{k2!!f                k2k-nnn{k2!!f                k2k-nnn{k2!!f                  k2k-nnn{k2!!f   ",
"       ||     222k_8kk22!!f           ||     222k_8kk22!!f           ||     222k_8kk22!!f          ||     222k_8kk22!!f         ||     222k_8kk22!!f         ||     222k_8kk22!!f         ||     222k_8kk22!!f           ||     222k_8kk22!!f   ",
"    ~0hhhh0|  k222k222!!!!f        ~0hhhh0|  k222k222!!!!f        ~0hhhh0|  k222k222!!!!f       ~0hhhh0|  k222k222!!!!f      ~0hhhh0|  k222k222!!!!f      ~0hhhh0|  k222k222!!!!f      ~0hhhh0|  k222k222!!!!f        ~0hhhh0|  k222k222!!!!f   ",
"   ~x^h00xx^|tk2k22222!!!!u       ~x^h00xx^|tk2k22222!!!!u       ~x^h00xx^|tk2k22222!!!!u      ~x^h00xx^|tk2k22222!!!!u     ~x^h00xx^|tk2k22222!!!!u     ~x^h00xx^|tk2k22222!!!!u     ~x^h00xx^|tk2k22222!!!!u       ~x^h00xx^|tk2k22222!!!!u   ",
"   x^vvggvh^^$u22!!!!!!!!!f       x^vvggvh^^$u22!!!!!!!!!f       x^vvggvh^^$u22!!!!!!!!!f      x^vvggvh^^$u22!!!!!!!!!f     x^vvggvh^^$u22!!!!!!!!!f     x^vvggvh^^$u22!!!!!!!!!f     x^vvggvh^^$u22!!!!!!!!!f       x^vvggvh^^$u22!!!!!!!!!f   ",
"  0^^vvggg0^^l}!!!2!2!!!!!_      0^^vvggg0^^l}!!!2!2!!!!!_      0^^vvggg0^^l}!!!2!2!!!!!_     0^^vvggg0^^l}!!!2!2!!!!!_    0^^vvggg0^^l}!!!2!2!!!!!_    0^^vvggg0^^l}!!!2!2!!!!!_    0^^vvggg0^^l}!!!2!2!!!!!_      0^^vvggg0^^l}!!!2!2!!!!!_   ",
"  ^^^hgvvvh^llmu!22222!!!!       ^^^hgvvvh^llmu!22222!!!!       ^^^hgvvvh^llmu!22222!!!!      ^^^hgvvvh^llmu!22222!!!!     ^^^hgvvvh^llmu!22222!!!!     ^^^hgvvvh^llmu!22222!!!!     ^^^hgvvvh^llmu!22222!!!!       ^^^hgvvvh^llmu!22222!!!!    ",
"  ll^^hhhh^^ll3}u222222!!_       ll^^hhhh^^ll3}u222222!!_       ll^^hhhh^^ll3}u222222!!_      ll^^hhhh^^ll3}u222222!!_     ll^^hhhh^^ll3}u222222!!_     ll^^hhhh^^ll3}u222222!!_     ll^^hhhh^^ll3}u222222!!_       ll^^hhhh^^ll3}u222222!!_    ",
"  ^l^^^^^^^l^l$tk2222222f        ^l^^^^^^^l^l$tk2222222f        ^l^^^^^^^l^l$tk2222222f       ^l^^^^^^^l^l$tk2222222f      ^l^^^^^^^l^l$tk2222222f      ^l^^^^^^^l^l$tk2222222f      ^l^^^^^^^l^l$tk2222222f        ^l^^^^^^^l^l$tk2222222f     ",
"  ^lll^^^l^^lll {k2!222k         ^lll^^^l^^lll {k2!222k         ^lll^^^l^^lll {k2!222k        ^lll^^^l^^lll {k2!222k       ^lll^^^l^^lll {k2!222k       ^lll^^^l^^lll {k2!222k       ^lll^^^l^^lll {k2!222k         ^lll^^^l^^lll {k2!222k      ",
"  llll^l^^^l^lx  {2!228          llll^l^^^l^lx  {2!228          llll^l^^^l^lx  {2!228         llll^l^^^l^lx  {2!228        llll^l^^^l^lx  {2!228        llll^l^^^l^lx  {2!228        llll^l^^^l^lx  {2!228          llll^l^^^l^lx  {2!228       ",
"  |lll^^^^^hh^|  e82k_           |lll^^^^^hh^|  e82k_           |lll^^^^^hh^|  e82k_          |lll^^^^^hh^|  e82k_         |lll^^^^^hh^|  e82k_         |lll^^^^^hh^|  e82k_         |lll^^^^^hh^|  e82k_           |lll^^^^^hh^|  e82k_        ",
"   x^^^hhhhxxx~ 1cya              x^^^hhhhxxx~ 1cya              x^^^hhhhxxx~ 1cya             x^^^hhhhxxx~ 1cya            x^^^hhhhxxx~ 1cya            x^^^hhhhxxx~ 1cya            x^^^hhhhxxx~ 1cya              x^^^hhhhxxx~ 1cya          ",
"   ~^^^hhhhx^xccrcysr             ~^^^hhhhx^xccrcysr             ~^^^hhhhx^xccrcysr            ~^^^hhhhx^xccrcysr           ~^^^hhhhx^xccrcysr           ~^^^hhhhx^xccrcysr           ~^^^hhhhx^xccrcysr             ~^^^hhhhx^xccrcysr         ",
"    0^hhhhhxxcsc*51s%%             0^hhhhhxxcsc*51s%%             0^hhhhhxxcsc*51s%%            0^hhhhhxxcsc*51s%%           0^hhhhhxxcsc*51s%%           0^hhhhhxxcsc*51s%%           0^hhhhhxxcsc*51s%%             0^hhhhhxxcsc*51s%%        ",
"     |^^^h^x1sc15~1s%%%             |^^^h^x1sc15~1s%%%             |^^^h^x1sc15~1s%%%            |^^^h^x1sc15~1s%%%           |^^^h^x1sc15~1s%%%           |^^^h^x1sc15~1s%%%           |^^^h^x1sc15~1s%%%             |^^^h^x1sc15~1s%%%       ",
"      ~h^x^e%%s11cc%%%i              ~h^x^e%%s11cc%%%i              ~h^x^e%%s11cc%%%i             ~h^x^e%%s11cc%%%i            ~h^x^e%%s11cc%%%i            ~h^x^e%%s11cc%%%i            ~h^x^e%%s11cc%%%i              ~h^x^e%%s11cc%%%i       ",
"        ~x$c%%%sss%%/ii%               ~x$c%%%sss%%/ii%               ~x$c%%%sss%%/ii%              ~x$c%%%sss%%/ii%             ~x$c%%%sss%%/ii%             ~x$c%%%sss%%/ii%             ~x$c%%%sss%%/ii%               ~x$c%%%sss%%/ii%      ",
"          ;(/%%%%/%//i(/                 ;(/%%%%/%//i(/                 ;(/%%%%/%//i(/                ;(/%%%%/%//i(/               ;(/%%%%/%//i(/               ;(/%%%%/%//i(/               ;(/%%%%/%//i(/                 ;(/%%%%/%//i(/      ",
"           /i//%///iii(/                  /i//%///iii(/                  /i//%///iii(/                 /i//%///iii(/                /i//%///iii(/                /i//%///iii(/                /i//%///iii(/                  /i//%///iii(/      ",
"           /iiii/iii(((r                  /iiii/iii(((r                  /iiii/iii(((r                 /iiii/iii(((r                /iiii/iii(((r                /iiii/iii(((r                /iiii/iii(((r                  /iiii/iii(((r      ",
"           riiiiiiii(((                   riiiiiiii(((                   riiiiiiii(((                  riiiiiiii(((                 riiiiiiii(((                 riiiiiiii(((                 riiiiiiii(((                   riiiiiiii(((       ",
"            ((((((((((/                    ((((((((((/                    ((((((((((/                   ((((((((((/                  ((((((((((/                  ((((((((((/                  ((((((((((/                    ((((((((((/       ",
"            i(((((((((                     i(((((((((                     i(((((((((                    i(((((((((                   i(((((((((                   i(((((((((                   i(((((((((                     i(((((((((        ",
"             ((((((((                       ((((((((                       ((((((((                      ((((((((                     ((((((((                     ((((((((                     ((((((((                       ((((((((         ",
"             r(((;((                        r(((;((                        r(((;((                       r(((;((                      r(((;((                      r(((;((                      r(((;((                        r(((;((          ",
"              y(((r                          y(((r                          y(((r                         y(((r                        y(((r                        y(((r                        y(((r                          y(((r           ",
"                #                              #                              #                             #                            #                            #                            #                              #             ",
"                7                              7                              7                             7                            7                            7                            7                              7             ",
"                &                              &                              &                             &                            &                            &                            &                              &             ",
"                7                              7                              7                             7                            7                            7                            7                              7             ",
"                &                              &                              &                             &                            &                            &                            &                              &             ",
"                7                              7                              7                             7                            7                            7                            7                              7             ",
"              7###]                          7##9]                          7##9]                         7##9]                        7###]                        7##9]                        7##9]                          7##9]           ",
"             .....##                        ......#                        ....#.#                       ....#.&                      ....9#.                      ....###                      ....###                        ....###          ",
"            .......7y                      .......7>                      .......7>                     .......7>                    ........>                    .......7>                    .......7>                      ........>         ",
"            #j5#696>7                      #j:#6#6>7                      #j:#6#6>p                     9j:#6#6>;                    #j:#6#6>7                    #j:96#6>;                    #j:#6#6>7                      9j:#6#6>p         ",
"            #*|$4lvo7                      #~~$4xvo7                      #*v$gx~o7                     #*|$4x~p7.                   #*|$4xvo7                    #*x$40vp7                    #*|$4xv,7                      #*|$4xvo7         ",
"           bo3lv6640pb                    bo3lv6660pb                    bo3l~j640pb                   bo3lv66g0pb.                 bo3lv6660pb                  bo3lv66g0pb                  bo3lv66g0pb                    bo3lv6640pb        ",
"          [<m0||vv4g><p                  [<m||0vvgj,<p                  [<m000vv4j,<p                 [<m0|00v4g><p                [<mx|00vgg><p                [<m||0v06g><p                [<mx|00v4j,<p                  [<m0|00v4g><p       ",
"         .[bq'@'='@'9b&,                .[bq@@'='@'+b&,                .[bq@@'='''+b&,               .[bq@@'='@'9b&,              .+b9@@'='@'9b&,              .[bq@@'=@@'9b&,              .[b9@''='@'+b&,                .[b#'@'='@'9b&,      ",
"        ,.[b....&9q.qb&#               ,.[b....#9...b&#               ,.[b....#9...b&#              o.[b....&9..qb79             ,.[b...q#9..qb&#             ,.[b....&9q.qb&&             ,.[b...q&9...b&#               ,.[b...q&9..qb&#      ",
"        .qb[.#,*5**p.b[&]              .qb[.&,*:)*;.b[&]              .qb[.#,*5)*;.b[&]             .qb[.#,*:)*p.b[&]            .qb[.&,*:)*p.b[&]            .qb[.#,*5**;.b[&]            .qb[.#,*:)*;.b[&]              ..b[.#,*:)*p.b[&]     ",
"       ,.#[9p*jjjjj:;++##]            ,.9[9p*jjjjj5;++&#]            ,.9[9p*jjjjj5p++##]           ,.#[9p*jjjjj:;9+&#]          ,.9[9p*jjjjj:;++&#]          ,.#[9p*jjjjj:p++##]          ,.9[9p*jjjjj5;++&#]            ,.9[9p*jjjjj:;++##]    ",
"      ]9.&[7)jjjjjj6w9qqqq]          ]#.&+7)jjjjjj6>#.qqq]          ]#.&[7)jjjjjj6w#qqqq]         ]&.&[7)jjjjjj6w#.qqq]        ]#.&+7)jjjjjj6>#.qqq]        ]9.&[7)jjjjjj6w#qqqq]        ]#.&97)jjjjjj6w9.qqq]          ]#.&[7)jjjjjj6w#qqqq]   ",
"      ..9&9wjjjjjjj6*7.q9..          ..9&9wjjjjjjj6*7.q9..          ..#&9wjjjjjjj6*7.q9..         ..979wjjjjjjjj*7.q9..        ..#&9wjjjjjjj6*7.q9..        ..9&9wjjjjjjj6*7.q9..        ..9&9wjjjjjjj6*7.q9..          ..#&9wjjjjjjj6*7.q9..   ",
"      ..&q75jjjjjjj6*]..#q.          ..&q75jjjjjjj6*]..#q.          ..&975jjjjjjj6*]..#q.         ..&q75jjjjjjj6*]..#q.        ..&q75jjjjjjj6*]..#q.        ..&975jjjjjjj6*]..#q.        ..&q;5jjjjjjj6*,..#q.          ..&q75jjjjjjj6*]..#q.   ",
"      79&.]jjjjjjjj6*>..&q7          7q&.]jjjjjjjj6*>q.&q7          7q&.]jjjjjjjj6*>q.&q7         79&.]jjjjjjjj6*>q.&q7        7q&.]jjjjjjjj6*>q.&q7        7q&.]jjjjjjjj6*>..&q7        79&.pjjjjjjjj6*>q.&q7          7q&.]jjjjjjjj6*>q.&q7   ",
"        #.,jjjjjjjj5*w&.;              &.,jjjjjjjj5*w&.;              #.,jjjjjjjj5*w&.;             #.,jjjjjjjj5*w&.;            &.,jjjjjjjj5*w&.;            #.,jjjjjjjj5*w&.;            #.,jjjjjjjj5*w&.;              #.,jjjjjjjj5*w&.;     ",
"        ].,jjjjjjj6)ww7.p              ].,jjjjjjj6)ww7.p              ].,jjjjjjj6)ww7.p             ].,jjjjjjj6)ww7.p            ].,jjjjjjj6)ww7.p            ].,jjjjjjj6)ww7.p            ].,jjjjjjj6)ww7.p              ].,jjjjjjj6)ww7.p     ",
"         .]6jj666:)*ww&.                .]6jj6665)*w>&.                .]6jjj66:)*ww&.               .]6jjj66:)*ww&.              .]6jj6665)*w>&.              .]6jj666:)*ww&.              .]6jj6665**ww&.                .]6jj666:)*w>&.      ",
"         #&)6555))*ww,.#                #&)6555))*ww,.&                ##)6555))*ww,.&               #&)6555))*ww,.#              #&)6555))*ww,.&              #&)6555))*ww,.#              #&)655:))*ww,.&                #&)6555))*wwo.#      ",
"          q;w***www>>&.o                 q;w***wwww>&.o                 qpw***wwww,&.o                q;w***wwww,&.o               q;w***wwww>&.o               q;w***www>>&.o               q;w***wwww>&.o                 q;w***wwww>&.o      ",
"          m@#p,,,,]79.@^                 m@&;,,,,]7q.@^                 m@&;,,,,]79.@l                m@&;,,,,]79.@^               m@&;,,,,]7q.@^               m@#p,,,,]79.@^               m@#p,,,,]7q.@^                 m@&;,,,,,79q@^      ",
"          $$@'@,wp'@@m$0                 $$@'@,wp'@@m$0                 $$@'@,wp'@@m$0                $$@'@,wp'@@m$v               $$@'@,wp'@@m$0               $$@'@,wp'@@m$0               $$@'@,wp'@@m$0                 $$@'@,wp''@m$0      ",
"          llll3   3$$$l                  llll3   3$$$l                  llll3   3$$$l                 llll3   3$$$l                llll3   3$$$l                llll3   3$$$l                llll3   3$$$l                  ll^l3   3$$$l       ",
"           l^^l    $ll                    l^^l    $ll                    l^^l    $ll                   l^^l    $ll                  l^^l    $ll                  l^^l    $ll                  l^^l    $ll                    l^^l    $ll        "};
