/* XPM */
static char * climber_skateboarder_xpm[] = {
"30 60 64 1",
" 	c None",
".	c #020204",
"+	c #FECA4E",
"@	c #BA0202",
"#	c #7A7A7E",
"$	c #D23A3A",
"%	c #9E0202",
"&	c #5A625E",
"*	c #DA5252",
"=	c #373637",
"-	c #DA620A",
";	c #BABABE",
">	c #272625",
",	c #DADADE",
"'	c #8E5606",
")	c #D27606",
"!	c #171716",
"~	c #F98911",
"{	c #FEDE86",
"]	c #898786",
"^	c #623606",
"/	c #E2B26E",
"(	c #FEE6AE",
"_	c #FE9606",
":	c #CE1616",
"<	c #4F4F4F",
"[	c #EAEAEE",
"}	c #FEA13E",
"|	c #929296",
"1	c #5E5A62",
"2	c #CACACE",
"3	c #FEEEBE",
"4	c #FEAA06",
"5	c #F3D696",
"6	c #0B1214",
"7	c #969696",
"8	c #725A36",
"9	c #FE9A36",
"0	c #090B0B",
"a	c #EA1F1F",
"b	c #F6F6F6",
"c	c #FEC67E",
"d	c #5A420E",
"e	c #1C2021",
"f	c #E6D2A2",
"g	c #A69E96",
"h	c #CE1010",
"i	c #FE7206",
"j	c #2B2E2E",
"k	c #9E6E1E",
"l	c #6E6E6E",
"m	c #967256",
"n	c #C50303",
"o	c #FEAA26",
"p	c #AAAAAE",
"q	c #FEAE36",
"r	c #FEA646",
"s	c #FEB606",
"t	c #F6FEFE",
"u	c #C40A0A",
"v	c #2A1A06",
"w	c #724206",
"x	c #656568",
"y	c #5A5A5A",
"   h*                         ",
"  ann*           .7           ",
"  a@n$           ..l          ",
"  h%n$           <.=          ",
" .@%n$           l..l         ",
".6@%n$            e.>         ",
"!x@%n$     xj===x <..         ",
".<u%4)+okj....0!!6... -i      ",
" .@%44_'.0=<=!.06.... r9      ",
"  u%4_)0j#ggp|x<j.... }}      ",
"  :%4_'e|ppp;;;;py0.> 9}-     ",
"  :%__w<|p;2,[[[[,&.>!}c~. .  ",
"  :%%~^lp;2[bttttt;6>!}53jj.x ",
"  :%n%y#p2,btttttt2e>!}(f8.06x",
"  :%n$g#;2[ttttttt,j>!r{5=t00!",
"  :%%%m#;,[ttttttt;6>er{5]#.!!",
"  :%4~w#;,[ttttttb#.>!/qftv0!!",
"  :%s4^y;,ttttttt;j.>!8d!=e!jx",
"  :%s4'jp[bttttt2&..>e0v>!!!1 ",
"  :%44_wy2[ttt,p<==e..x=!!x   ",
"  :%4o_)vjx##x<e==j..x]       ",
" 6@%4)   >....6==j!.0x        ",
"6.@%n$     xj==........x      ",
"0y@%n$          ..........    ",
"01u%n$            .........   ",
">!@%n$              .......   ",
" =@%n$                        ",
"  :%*                         ",
"  a*                          ",
"  *                           ",
"                         *h   ",
"           7.           *nna  ",
"          l..           $n@a  ",
"          =.<           $n%h  ",
"         l..l           $n%@. ",
"         >.e            $n%@!.",
"         ..< x===jx     $n%@x!",
"      i- ...6!!0....jko+)4%u<.",
"      }} ....60.!=<=0.'_44%@. ",
"      }} ....j<x|pgg#j0)_4%u  ",
"     -}9 e00yp;;;;ppp|e'_4%:  ",
"  . .~c}!>.&,[[[[,2;p|<w__%:  ",
" x.jj35}!e6;tttttb[2;px^~%%:  ",
"x!0.8f(}!>e2ttttttb,2p#y%n%:  ",
"!0.b=5{re>j,ttttttt[2;#g$n%:  ",
"!!0]]5{q!>6;ttttttt[,;#m%%%:  ",
"!!.!tfo/!e.#btttttt[,;#w~4%:  ",
"xjve=!d8!>.j;ttttttt,;1^4s%:  ",
" x6!!j!!!>..&2tttttb[pj'4s%:  ",
"   x!!=&..e==<p,ttt[2yw_44%:  ",
"       |x..j==e<x##l>v)_o4%:  ",
"        x0.!j==!....>   )4%@6 ",
"      x........==jx     $n%@.0",
"    ..........          $n%ny6",
"   .........            $n%uy0",
"   .......              $n%@!>",
"                        $n%@= ",
"                         *%:  ",
"                          *a  ",
"                           *  "};
