/* XPM */
static char * digger_xpm[] = {
"448 32 64 1",
" 	c None",
".	c #020202",
"+	c #FEAB02",
"@	c #FE511A",
"#	c #AE7206",
"$	c #E49E44",
"%	c #725A2A",
"&	c #ECE6D7",
"*	c #65470A",
"=	c #A2A2A0",
"-	c #6E695E",
";	c #F4AB5B",
">	c #36332D",
",	c #CDCCCB",
"'	c #CA7676",
")	c #CEC202",
"!	c #D65A0A",
"~	c #272625",
"{	c #6878DD",
"]	c #EEEA02",
"^	c #5262CA",
"/	c #FECE4A",
"(	c #FB920D",
"_	c #6F7ED1",
":	c #2E3E92",
"<	c #1D1A1B",
"[	c #6C74BA",
"}	c #D6AE62",
"|	c #884E02",
"1	c #230F02",
"2	c #FED280",
"3	c #FE6212",
"4	c #FE6C3E",
"5	c #F0EDE0",
"6	c #E1E1DE",
"7	c #B0ACA2",
"8	c #7B7A7B",
"9	c #9E7E3E",
"0	c #4A4642",
"a	c #F6CFAC",
"b	c #B9B7B8",
"c	c #13100F",
"d	c #FDFCF6",
"e	c #5560A8",
"f	c #F5E2C7",
"g	c #8B8A8A",
"h	c #DBDADB",
"i	c #C3850B",
"j	c #EE8622",
"k	c #9E6A4A",
"l	c #C26262",
"m	c #F28E42",
"n	c #FEA938",
"o	c #FEB686",
"p	c #8B59E5",
"q	c #FE750B",
"r	c #7688E8",
"s	c #0C0A08",
"t	c #959595",
"u	c #4C3610",
"v	c #DE6A02",
"w	c #FEEA02",
"x	c #5E5E5F",
"y	c #C1BFC1",
"            )w)w)w                          )w)w)w                          )w)w)w                                                          )w)w)w                            )w)w)w                          )w)w)w                                                        )w)w)w                                                        )w)w)w                                                          )w)w)w                            )w)w)w              ",
"           ))w)w)w)                        ))w)w)w)                        ))w)w)w)                         )w)w)w                         ))w)w)w)                          ))w)w)w)                        ))w)w)w)                         )w)w)w                       ))w)w)w)                         )w)w)w                       ))w)w)w)                         )w)w)w                         ))w)w)w)                          ))w)w)w)             ",
"           ])w)w)w]                        ])w)w)w]                        ])w)w)w]                        ))w)w)w)                        ])w)w)w]                          ])w)w)w]                        ])w)w)w]                        ))w)w)w)                      ])w)w)w]                        ))w)w)w)                      ])w)w)w]                        ))w)w)w)                        ])w)w)w]                          ])w)w)w]             ",
"          ))]]]w]]ww                      ))]]]w]]ww                      ))]]]w]]ww                       ])w)w)w]                       ))]]]w]]ww                        ))]]]w]]ww                      ))]]]w]]ww                       ])w)w)w]                     ))]]]w]]ww                       ])w)w)w]                     ))]]]w]]ww                       ])w)w)w]                       ))]]]w]]ww                        ))]]]w]]ww            ",
"          x<0hx~,h>.                       <.c...s.x                      x<0hx~,h>.                      ))]]]w]]ww                       <.c...s.x                         <.c...s.x                      x<0hx~,h>.                      ))]]]w]]ww                    x<0hx~,h>.                      ))]]]w]]ww                    x<0hx~,h>.                      ))]]]w]]ww                       <.c...s.x                        x<0hx~,h>.            ",
"          005dgx6dd>                      x<0hx~,h>s                      005dgx6dd>                      x<0hx~,h~s                      x<0hx~,h>s                        x<0hx~,h>s                      005dgx6dd>                      x<0hx~,h~s                    005dgx6dd>                      x<0hx~,h~s                    005dgx6dd>                      x<0hx~,h~s                      x<0hx~,h>s                        005dgx6dd>            ",
"          ..y..~.x6.t                     >0ddgxhdd>                      ..y..~.x6.t                     >05dgx6dd>                      >0ddgxhdd>                        >0ddgxhdd>                      ..y..~.x6.t                     >05dgx6dd>                    ..y..~.x6.t                     >05dgx6dd>                    ..y..~.x6.t                     >05dgx6dd>                      >0ddgxhdd>                        ..y..~.x6.t           ",
"          ~um!j5h2a<g                     ..y..>.x6.t                     ~um!j5h2a<g                     ..y.s~.x6.t                     ..y..>.x6.t                       ..y..>.x6.t                     ~um!j5h2a<g                     ..y.s~.x6.t                   ~um!j5h2a<g                     ..y.s~.x6.t                   ~um!j5h2a<g                     ..y.s~.x6.t                     ..y..>.x6.t                       ~um!j5h2a<g           ",
"         g|qqn/2f2;*>                     <um!j5aaacg                    g|qqn/2f2;*>                     ~um!j5f2acg                     <um!j5aaacg                       <um!j5aaacg                    g|qqn/2f2;*>                     ~um!j5f2acg                  g|qqn/2f2;*>                     ~um!j5f2acg                  g|qqn/2f2;*>                     ~um!j5f2acg                     <um!j5aaacg                      g|qqn/2f2;*>           ",
"        =s|v3qqq($}%.c                   g|qqn22ff;*>                   =s|v3qqq($}%.c                   g|qqn/2ff;*>                    g|qqn22ff;*>                      g|qqn22ff;*>                   =s|v3qqq($}%.c                   g|qqn/2ff;*>                 =s|v3qqq($}%.c                   g|qqn/2ff;*>                 =s|v3qqq($}%.c                   g|qqn/2ff;*>                    g|qqn22ff;*>                     =s|v3qqq($}%.c          ",
"       7...s11111<....~                 =s|v3qqq(n}%.c                 7...s11111<....~                 =s|v34qq($}%.c                  =s|v3qqq(n}%.c                    =s|v3qqq(n}%.c                 7...s11111<....~                 =s|v34qq($}%.c               7...s11111<....~                 =s|v34qq($}%.c               7...s11111<....~                 =s|v34qq($}%.c                  =s|v3qqq(n}%.c                   7...s11111<....~         ",
"       <...............>               7...s111111....~                <...............>               7...s111111....~                7...s111111....~                  7...s111111....~                <...............>               7...s111111....~              <...............>               7...s111111....~              <...............>               7...s111111....~                7...s111111....~                  <...............>        ",
"       .....<8==gx~s....8              <...............>               .....<8==gx~s....8              <...............>               <...............>                 <...............>               .....<8==gx~s....8              <...............>             .....<8==gx~s....8              <...............>             .....<8==gx~s....8              <...............>               <...............>                 ......8==g..s....8       ",
"      s...<..d5h,..><...<              ......8==g..s....8             s...<..d5h,..><...<              ......8==g..s....8              .....<.==gx~s....8                ......8==g..s....8             s...<..d5h,..><...<              ......8==g..s....8           s...<..d5h,..><...<              ......8==g..s....8           s...<..d5h,..><...<              ......8==g..s....8              .....<.==gx~s....8               s..g....fff....f..<       ",
"      .......6666....g...             ...g....fff....f..<             .......6666....g...             ...g....fff....f..<             ....<....h,=-><...<               ...g....fff....f..<             .......6666....g...             ...g....fff....f..<           ....x..d6,yb...f...             ...g....fff....f..<           ....x..d6,yb...f...             ...g....fff....f..<             ....<....h,=-><...<               ...$$..$;$}$..$$...       ",
"      ...g....fff....f...             ...$$..$};$$..$$...             ...g....fff....f...             ...$$..$$;$$..$$...             ....x$$...fff..c...               ...$$..$};$$..$$...             ...g....fff....f...             ...$$..$$;$$..$$...           ...0....fff....$...             ...$$..$$;$$..$$...           ...0....fff....$...             ...$$..$$;$$..$$...             ....x$$...fff..c...               ...0=ggd_^xbggx~...       ",
"      ...$$..$;$}$..$$<<.             ...0=ggd{^xbggx~...             ...$$..$;$}$..$$<<.             ...0=ggd_^xbggx~...             ...0=dgg$}$}f......               ...0=ggd{^xbggx~...             ...$$..$;$}$..$$<<.             ...0=ggd_^xbggx~...           ...g...$;}$$.g80<<.             ...0=ggd_^xbggx~...           ...g...$;}$$.g80<<.             ...0=ggd_^xbggx~...             ...0=dgg$}$}f......               ...g,dda444ab=80<<.       ",
"      ...g,ggd_^x,gg80~<.             ...g,dda444abt80<<.             ...g,ggd_^x,gg80~<.             ...g,dda444abt80<<.             ...g,dddd_^x$..$$<.               ...g,dda444abt80<<.             ...g,ggd_^x,gg80~<.             ...g,dda444abt80<<.           ...$$..d{^xhgbtx~<.             ...g,dda444abt80<<.           ...$$..d{^xhgbtx~<.             ...g,dda444abt80<<.             ...g,dddd_^x$..$$<.               ...yddd44444bbtx~<.       ",
"      ...yddda444abbtx>>.             ...yddd44444ybgx~<.             ...yddda444abbtx>>.             ...yddd44444ybgx~<.             ...,5ddda444bggx<~.               ...yddd44444ybgx~<.             ...yddda444abbtx>>.             ...yddd44444ybgx~<.           ...hdgga444ayb=8>>.             ...yddd44444ybgx~<.           ...hdgga444ayb=8>>.             ...yddd44444ybgx~<.             ...,5ddda444bggx<~.               ...hddd4434'yb=8>>.       ",
"      ...hddd43444yb=800<             ...hddd3444'yb=8>>.             ...hddd43444yb=800<             ...hddd4444'yb=8>>.             ...hdddd3444ab=8>>.               ...hddd3444'yb=8>>.             ...hddd43444yb=800<             ...hddd4444'yb=8>>.           ...6ddd44444,y7t00<             ...hddd4444'yb=8>>.           ...6ddd44444,y7t00<             ...hddd4444'yb=8>>.             ...hdddd3444ab=8>>.               ...6ddd@'4'',y7t00<       ",
"      <..6ddd4443',b7txx0             ...6ddd@'4'',y7t00~             <..6ddd4443',b7txx0             ...6ddd@'4'',y7t00~             ...6dddd44434y7t00~               ...6ddd@'4'',y7t00~             <..6ddd4443',b7txx0             ...6ddd@'4'',y7t00~           <..6dddd4344'yy=xx0             ...6ddd@'4'',y7t00~           <..6dddd4344'yy=xx0             ...6ddd@'4'',y7t00~             ...6dddd44434y7t00~               <..6dddl'''l,,b=xx0       ",
"      c..6ddd@'4'',,y=x-8             <..6dddl'''l,,y=xx0             c..6ddd@'4'',,y=x-8             <..6dddl'''l,,y=xx0             <..&ddd@l4'',,b=xx0               <..6dddl'''l,,y=xx0             c..6ddd@'4'',,y=x-8             <..6dddl'''l,,y=xx0           c..&dddd@l4'',y7x-8             <..6dddl'''l,,y=xx0           c..&dddd@l4'',y7x-8             <..6dddl'''l,,y=xx0             <..&ddd@l4'',,b=xx0               c..5dddd{^x5h,y7x-8       ",
"      <..5dddl'''lhyy7xx-             c..5dddd{^x5,,y=xx8             <..5dddl'''lhyy7xx-             c..5dddd{^x5,,y=xx8             c..&dddl'''l,,y=xx8               c..5dddd{^x5,,y=xx8             <..5dddl'''lhyy7xx-             c..5dddd{^x5,,y=xx8           <..5ddddl'''lyb7xx-             c..5dddd{^x5,,y=xx8           <..5ddddl'''lyb7xx-             c..5dddd{^x5,,y=xx8             c..&dddl'''l,,y=xx8               <..5ddda444a,yb7xx-       ",
"      0..5dddd{^x5,yy7xx8             <..5ddda444a,yy7x--             0..5dddd{^x5,yy7xx8             <..5ddda444a,yy7x--             <..5dddd_^x5,yy7x--               <..5ddda444a,yy7x--             0..5dddd{^x5,yy7xx8             <..5ddda444a,yy7x--           0..6ddddd_^xyyy7xx8             <..5ddda444a,yy7x--           0..6ddddd_^xyyy7xx8             <..5ddda444a,yy7x--             <..5dddd_^x5,yy7x--               0..6dddd{^:hyyy7xx8       ",
"      g..6ddda444ayyy=00=             0..6dddd{^:hyyy7xx8             g..6ddda444ayyy=00=             0..6dddd{^:hyyy7xx8             0..6ddda444ayyy7xx8               0..6dddd{^:hyyy7xx8             g..6ddda444ayyy=00=             0..6dddd{^:hyyy7xx8           g..,dd56a444ayy=:0=             0..6dddd{^:hyyy7xx8           g..,dd56a444ayy=:0=             0..6dddd{^:hyyy7xx8             0..6ddda444ayyy7xx8               g..,dd56_^:yyyy=:0=       ",
"       ..xbd6&{^:yy,bgcc              g..ydd5&{^:yyyy=>0=              ..xbd6&{^:yy,bgcc              g..ydd5&{^:yyyy=>0=             g..ydd5{^:,yyyy=>0=               g..ydd5&{^:yyyy=>0=              ..xbd6&{^:yy,bgcc              g..ydd5&{^:yyyy=>0=            ..x7d&,y{^:b,b8<c              g..ydd5&{^:yyyy=>0=            ..x7d&,y{^:b,b8<c              g..ydd5&{^:yyyy=>0=             g..ydd5{^:,yyyy=>0=                ..x7d6,{^:yy,b8<c        ",
"       g.u-=,,{^:b,,79**               ..x7d6,{^:yy,b8<c               g.u-=,,{^:b,,79**               ..x7d6,{^:yy,b8<c               ..x7d&{^:yby,b8<c                 ..x7d6,{^:yy,b8<c               g.u-=,,{^:b,,79**               ..x7d6,{^:yy,b8<c             g.u-=,,,{^:,,}9**               ..x7d6,{^:yy,b8<c             g.u-=,,,{^:,,}9**               ..x7d6,{^:yy,b8<c               ..x7d&{^:yby,b8<c                 g.u-=,,,:,,,,}9**        ",
"        k.su0,_^:,b0u...               g.u-=h,,:,,,,b9**                k.su0,_^:,b0u.=t               g.u-=,,,:,,,,b9**               g.u-=,_^:,,,,b9**                 g.u-=h,,:,,,,b9**                k.su0,_^:,b0u...               g.u-=,,,:,,,,b9**              k.s>0yyy_^:0>...               g.u-=,,,:,,,,b9**              k.s>0yyy_^:0>.=t               g.u-=,,,:,,,,b9**  tx           ,,u-=,_^:,,,,b9**                  k.su0r_^[r70>...        ",
"         ~i iyy:bbu ##c                 k.s>urr^{_b0u...                 ~iiiyy:bbui##t=                k.su0r_{^rbuu...                k.s>[y:ybd70u...                  k.s>urr^{_b0u...                 ~iiiyy:bbui##c                 k.su0r_{^rbuu...               ~jii >>>:ui##1                 k.su0r_{^rbuu...               ~jii >>>:ui##t=                k.su0r_{^rbuu...  =x           -,.s>[y:ybd70u...             xx    ~iii*r{^>ui##1         ",
"       qq(++ [{{^e (j+++/                ~ii$0r_e>ui##c                qq( +q[{{^eqj +++/                ~iii0r_e>0i##c tt                ji_{^{ >ui##c                    ~ii$0r_e>ui##c                qq( +q[{{^eqj +++/                ~iii0r_e>0i##c              qq(++q  p{{{8( ++/                ~iii0r_e>0i##c              qq(++q  p{{{8j ++/                ~iii0r_e>0i##c                   ji_{^{ >ui##c     xx       xx  qq(++4  r  4(j+++/       ",
"  xx  q3;nnn( r{p @qooom(              qq(++q  r  4j(+++/             q3;nn   r{p   ooom(              qq(++q  r  4((+++=x             qq(  r{p   4j(+++/ xx             qq(++q  r  4j(+++/              3;nn   r{p   ooom(              qq(++q  r  4((+++/           q3;nnnn   r{p  oom(              qq(++q  r  4((+++/           q3;nnnn   r{p  oom(              qq(++q  r  4((+++/              qq(  r{p   4j(+++/   xx          q3;nnnnq    @qooom(       ",
"  xx           r                      q3;nnn(4    @q;oom(                      r                      q3;nnnn4    @4;oom(             q3;nnn r    @q;oom( xx            q3;nnn(4    @q;oom( xx                   r                      q3;nnnn4    @4;oom(                      r                    q3;nnnn4    @4;oom(                      r                    q3;nnnn4    @4;oom(             q3;nnn r    @q;oom(                                     xx  "};
