/* XPM */
static char * exit_xpm[] = {
"288 64 64 1",
" 	c None",
".	c #020202",
"+	c #FEAE02",
"@	c #FE8602",
"#	c #C06D0A",
"$	c #525252",
"%	c #323232",
"&	c #282828",
"*	c #EEAE52",
"=	c #2A0428",
"-	c #EEEEEE",
";	c #1B1B1B",
">	c #DEBE6A",
",	c #A75E05",
"'	c #723E11",
")	c #131212",
"!	c #AEAEAE",
"~	c #FE940A",
"{	c #91570A",
"]	c #AE9652",
"^	c #9E9E9E",
"/	c #1E061B",
"(	c #D6BE86",
"_	c #CECECE",
":	c #120212",
"<	c #623A06",
"[	c #FE9A02",
"}	c #7A7A7A",
"|	c #0A0A0A",
"1	c #F68402",
"2	c #522A02",
"3	c #F29615",
"4	c #8E8E8E",
"5	c #4C024C",
"6	c #FED68E",
"7	c #462A02",
"8	c #3B3A3B",
"9	c #606060",
"0	c #5A3A12",
"a	c #0A020A",
"b	c #351C2B",
"c	c #DE7202",
"d	c #FEC632",
"e	c #EAE5DE",
"f	c #FEA00C",
"g	c #9E7242",
"h	c #FEFEF6",
"i	c #FE9236",
"j	c #4C4844",
"k	c #CED6D6",
"l	c #F3BE57",
"m	c #8A4414",
"n	c #BEBEBE",
"o	c #FEA51C",
"p	c #462E46",
"q	c #3A2A0A",
"r	c #21131B",
"s	c #4A2E4A",
"t	c #424242",
"u	c #DEDEDE",
"v	c #110B0B",
"w	c #FECB50",
"x	c #FEB61B",
"y	c #3F103F",
"                                                                                                                                                                                                                                                                                                ",
"                                                                                                                                                                                                                                                                                                ",
"                                                                                                                                                                                                                                                                                                ",
"                                                                                                                                                                                                                                                                                                ",
"              %..%%                           }%%}                            9%)9                                                                                                                                                                                                              ",
"             $&|...%                         $&..%9                          $&||%9                                                                                                                                                                                                             ",
"            $.......%                       &......8                        &av|a..8                                                                                                                                                                                                            ",
"             %.......                       }.......}                      $:......a;                          $);                                                                                                                                                                              ",
"           >;-.....|.                      >)v.....:%                      &a......|.                         ;||)&                                                                                                                                                                             ",
"          dxf]]&..|.;                     dxo.......;                      |.......v&                        ;....v&                                                                                           b)&                                                                              ",
"        dx+[owww....$                     +[om......$                      .a.....))t                       $;......                           p;p                                                            y:.a&                                                                             ",
"        [[f[oof~....                      f[oc......                       8)|...a))                        .......;                          s;|v%                            jrj                        ya  =...&  .y                                                                         ",
"         #@@~@#.....%                      ~~@......j                       )v|...))$                       ;.....|8                         %&||||                           &a.a&                       y.& ya..& &==                                                                         ",
"            ..:......                       2qa......                       tv|....)|                       t||..|)&                         &|||vr                           .....                       ya.& ....:.:                                                                          ",
"            .&.......%                     9.&;......t                       ||......t                       b)a.|v&8                        $a.a|)                           &...& |j                     5.:......&                                                                           ",
"           9;t....a..a                     j;tj...a..a                      &v.......;                       ;;..a|;%                         /v.|)%                       |&8 v...:.:                      y.a....=                                                                            ",
"           _.8...|&...                     _.8$..9&...                     ;..........                       8|...|)b                         &|..);                       &.:|a...|&                        =.....=                           9v9                                              ",
"          !h.%v..&)...                    !h.%9..9%...                    ;.;......;.a                      8.a....vy                        %:...|rj                       &.:....|                         =.a%|./                           ).=                                              ",
"          hh9%;..8)...%                   hh.&$a.9&....                   ..&......&.a;                    8..&...;.|8                     $|.....|v|j                       )..a../                         =a;.&./                          9va.59                                            ",
"         nhhe.%;.;8....                  nhh.&j8.99....                  )..&......&..|                    ;.%....&));                     &.......&|&                       =..&|.=                         =)&.&v=                          .:).;.                                            ",
"         uhhe|)t;.j....                  uhh.8;$%a9....                  ...8......8.||                    .;...&..&rr                      &;...;.%&                        =.&a&.=                         m<v..v'f                          :&)                                              ",
"         uhh-9|;t&8.a..                  uhh..|;9%9.a..                  ..&;..;...v&|v                    )...%%..ar;                       .a.&;..=                        =v|.|v/                        oof&//%3oi                        @~/=~@                                            ",
"         -hh--|.)8&.|..                  -hh..v.;99.v..                  .&v..&&%...v&.                    ...;..%aa/)                       .|;..;.=                        m<v..v'f                       #fo    oo#                         {  {                             a.              ",
"         uh-un4...|.|..                  kh-u.....|....                  .;...&.&.|.|..                    ...&.|%).v|                       .;%..&.=                       mo@;&&'@oi                       {'    '{                                                           ).              ",
"         khu_n^........                  >6u_n.........                  .....8.&8.....                    ;.;)..)&..|                      ,7ba.vav{,                      f1     'i                                                                                           &r              ",
"         khu_n^........                  +xl(>>gj......                  ....8&..%;....                   #~~#:.aa..|.                      ~~,....r,~                                                                                                                         #//#             ",
"         kku_n^......|)                  xoxfxxdw..a...                  {~~#.....)....                   ~#f#..|v..733                                                                                                                                                                         ",
"         ^xl(>>gj....|&);                 loo[[[od.....                 ~~~~[{.........                    $;..a))|.{##3                                                                                                                                                                        ",
"          fxf+xdw*0a.....                  6c[f@c......                  ~fo~|.|.....#@f                                                                                                                                                                                                        ",
"           3f~[[odw.....                   0r...v......                   &.a||||a..#@f[f                                                                                                                                                                                                       ",
"         #,{#'#@@@[f..v                    q[@@q0..a..                      &||||..& @~@                                                                                                                                                                                                        ",
"        o@@@1#m #1@m                      #ff~1@c                                                                                                                                                                                                                                               ",
"                                                                                                                                                                                                                                                                                                ",
"                                                                                                                                                                                                                                                                                                ",
"                                                                                                                                                                                                                                                                                                ",
"                                                                                                                                                                                                                                                                                                ",
"             %%..%                            }%%}                            9)%9                                                                                                                                                                                                              ",
"            %...v&$                          9%..&$                          9%||&$                                                                                                                                                                                                             ",
"           %.......$                        8......&                        8...||a&                                                                                                                                                                                                            ",
"           .......%                        }.......}                       ;.a.....:j                         ;)$                                                                                                                                                                               ",
"           .a.....-;>                      %a.....))>                      .).......&                        &)||;                                                                                                                                                                              ",
"           ;.v..&]]oxd                     ;.......oxd                     &)......|:                       &v....;                                                                                           &rb                                                                               ",
"           $....dwwo[+xd                   $......mo[+                     8v|a.....a                       |.....;$                          p;p                                                            &a.vy                                                                              ",
"            ....~foo[o[[                    ......cffo                      ))....v)8                       ;.......                         %vv;s                            jrj                        ya  &...=  ay                                                                          ",
"           %.....#@~@@#                    j......@~@                      $)v...|))                        8v....a;                         |||)&%                          &a.v&                       ==& &..ay %.y                                                                          ",
"           ......:..                       ......|q2                       |||...))t                        ;)|..||t                         )|v.a%                          .....                        :.:.... &..y                                                                          ",
"          %......a&.                      t......&&.9                     t......|v                        8&)...)b                          )|a.a$                       j| &...&                         &......:.5                                                                           ",
"          a..a....j;9                     a..a...jtv$                     ;...a...v;                       %;|a.|;;                         %)|.v/                        :.:...v 8&|                       =......y                                                                            ",
"          ...&|...8._                     ...&9..$8._                     ..........;                      b)v...|t                         r|a.v%                         &|...a|:.&                       =..a..=                           9v9                                               ",
"          ...v&..|%.h!                    ...&9..9%.h!                    ..;......;.;                     yv....a.8                       j)v...a%                         |......&                        /.|&a.=                           r.v                                               ",
"         %...)8.a&&9hh                   ....%9.:9&.hh                   ;a.&......&..                    8).;...&..8                     $|v|.....|$                       =..aa.v                         =.&.;a=                         95.|v9                                              ",
"         ....8;.;%.-hhn                  ....99.8t&.hhn                  v|.&......&..;                   )r)&....&.;                     &|&.......&                       /.|%..=                         /v&.&v=                         .).v:.                                              ",
"         ....$.;8)|ehhu                  ....9a&$;8.hhu                  |..8......8...                   )r&..&...;.                      &%.;...;%                        /.&.&.=                        o'v..v<m                           )&/                                               ",
"         ....%&t;|9-hhu                  ..a.9%9;...hhu                  ..&;...;..v&..                   ;r...%%...;                      =..;&.a.                         /v|a|v=                       i3o&//&ooo                        @~=/~@                                              ",
"         ..|.&8).|--hhe                  ..).99v.)..hhe                  .&)...8&&..v&.                   )/.a%..;...                      =.;..;|.                        o'v..v<m                       #oo    of#                         {  {                             ..                ",
"         ..a.v...4nu-hu                  ....).....u-hk                  ..v.v.&.&...;.                   )v.)%aa;|..                      =.%..%;.                       io1'&&&1om                       {'    '{                                                           .)                ",
"         ........^n_uhk                  .........n_ue>                  .....8&.8.....                   |..%).a;;.;                     ,{va...q7,                       i'     @o                                                                                          )&                ",
"         ........^n_uhk                  ......tg>>>lx+                  ....)8..&8....                   .a..aa.|#~~#                    ~,va|.a,~~                                                                                                                         #==#               ",
"         |a......^n_ukk                  ...a..wdxxo+fx                  ....).....#~~,                  337..||..#f#3                                                                                                                                                                          ",
"       ;;&)....tg>>(lx^                  .....do[[[ool                   .........{~~~~~                1##,.|))a..;$                                                                                                                                                                           ",
"       .....aj*wdxxoxf                   ......c@f[c6                   [@#.....||.~fo~                                                                                                                                                                                                         ",
"        .....ddf[[~f3                    ......v...r0                  [f[~#..a|||.a.&                                                                                                                                                                                                          ",
"         |..ff@@@#'#{,#                   ..a..0q@@fq                   ~@@ &.:|v||%                                                                                                                                                                                                            ",
"            m@1# m#11@@o                       c@@[[f#                                                                                                                                                                                                                                          "};
