/* XPM */
static char * floater_xpm[] = {
"240 30 64 1",
" 	c None",
".	c #1A6ABC",
"+	c #6A9ED4",
"@	c #4E4E4C",
"#	c #124254",
"$	c #262624",
"%	c #666664",
"&	c #1A2224",
"*	c #070A09",
"=	c #020204",
"-	c #2A2E2C",
";	c #363634",
">	c #AA6EAC",
",	c #32423C",
"'	c #929294",
")	c #F6FEFC",
"!	c #CED6DC",
"~	c #F6EECC",
"{	c #EAEAED",
"]	c #F6F6F4",
"^	c #5A625C",
"/	c #D6BE9C",
"(	c #F6BE74",
"_	c #DE962C",
":	c #FEDA94",
"<	c #DEB644",
"[	c #FED26C",
"}	c #9E6E1C",
"|	c #967254",
"1	c #5E5E14",
"2	c #FECA4C",
"3	c #028644",
"4	c #FE8A04",
"5	c #FEAA24",
"6	c #FEEEBC",
"7	c #FEEE84",
"8	c #0E4E2C",
"9	c #02DA6C",
"0	c #DE8614",
"a	c #FEBE3C",
"b	c #7A8624",
"c	c #024624",
"d	c #2A1A04",
"e	c #623604",
"f	c #724204",
"g	c #522A04",
"h	c #0E2A14",
"i	c #7A7A7C",
"j	c #061214",
"k	c #066E34",
"l	c #161614",
"m	c #BABABC",
"n	c #DADADC",
"o	c #CACACC",
"p	c #5C5A62",
"q	c #AAAAAC",
"r	c #A69E94",
"s	c #6A6A74",
"t	c #3E3E3C",
"u	c #D27604",
"v	c #8E5604",
"w	c #FE9604",
"x	c #FEAA04",
"y	c #FEB604",
"                                                                          ..                                                                                                                   ..                                               ",
"                                        ....                              ...                               ....                                               ....                            ...                                ....          ",
"        ...                               .....                            ..                            .....                   ...                             .....                          ..                             .....            ",
"        ......+......                        +....                          +.                        ....+                      ......+......                      +....                        +.                         ....+               ",
"              .   ...                        .   ...                        ...                     ...   .                            .   ...                      .   ...                      ...                      ...   .               ",
"            @##$%                          @##&%                          @##&%                         @##&%                        @##$%                        @##&%                        @##&%                          @##&%             ",
"           ***==$-                        **==*=-                        **==$=-                       **==$=;                      **==&$=                      **==$$-                      **==$$-                        **==$$-            ",
"          *==**==@>                      *=*=***,'                      *=*=***,'                     *=*=**=@'                    *=*=*=*='                    *=====*@'                    *=*=*=*,'                      *=*===*='           ",
"          $)!$~&{'@                      $]!$~${'@                      $)!$~${'^                     &)!$~${'@                    $]!$~${'@                    $)!&~${'@                    $)!$~${'@                      &)!$~${'^           ",
"          $/(_:<[}@                      $/(_:<[|@                      $/[_:<[}@                     $/(_:<[1@=                   $/(_:<[|@                    $/(_:2[1@                    $/(_:<[|@                      $/(_:<[}@           ",
"         3}45[6~:213                    3}45[6~7213                    3}45[~~:213                   3}45[6~:213*                 3}45[6~7213                  3}45[6~:213                  3}45[6~7213                    3}45[6~:213          ",
"        890a222[:7b9^                  890a222[:7b9^                  890a222[:7b9^                 890a222[:7b9^                890a222[:7b9^                890a222[77b9^                890a222[:7b9^                  890a222[:7b9^         ",
"       *c3defegefeh3-i                *c3dffegefeh3-i                *c3dffegeeeh3-i               *c3dffegefeh3;i              *c3dffegefeh3-i              *c3dffegefeh3-i              *c3dfeegefeh3-i                *c3dffegefeh3;i        ",
"      i=83===j-&j=*k,$               i=83===j-&*=*k,$               i=83===j-&==*k,$              |=83===*-&*=*k,$             i=83===j-&*=*k,$             i=83===j-&j=*k,-             i=83===j-&*=*k,$               i=8k===l-&*=*k,$        ",
"      =lk8=-imnom^*k8;%              =lk8=;im!om^*k8;%              =lk8=-imnom^*k8;%             *lk8=-im!om^*k8;%            =lk8=;im!om^*k8;%            =lk8=-imnomp*k8;%            =lk8=-imnom^*k8;%              =lk8=-im!om^*k8;%       ",
"     i=-8h^m]))))npcc-$%            i=&8h^m]))))npcc;$%            i=&8h^m]))))n^cc-$%           i=-8h^m)))))nphc;$%          i=&8h^m]))))npcc;$%          i=$8h^m]))))n^cc-$%          i=&8h^m]))))npcc;$%            i=&8h^m]))))npcc-$%      ",
"    %&*;c@o)))))){q&jlll%          %$*;c@o)))))){r$*lll%          %$*;8@o)))))){q-jlll%         %-*;8@o)))))){q-*lll%        %$*;c@o)))))){r$*lll%        %&*;8@o)))))){q-jlll%        %$*;h@o)))))){q&*lll%          %$*;8@o)))))){q-jlll%     ",
"    ==&;&q))))))){m@*l&==          ==$;&q))))))){m@*l&==          ==$;&q))))))){m@*l&==         ==&,&q)))))))]m@*l&==        ==$;&q))))))){m@*l&==        ==&;&q))))))){m@*l&==        =*&;&q))))))){m@*l&==          ==$;&q))))))){m@*l&==     ",
"    =*;l@n))))))){m%=*$l*          ==;l@n))))))){m%=*$l*          =*;l@n))))))){m%=*$l*         =*;l@n))))))){ms=*$l*        ==;l@n))))))){m%=*$l*        =*;l@n))))))){m%=*$l*        =*;l@n))))))){ms=*$l*          =*;l@n))))))){m%=*$l*     ",
"    @l;=%)))))))){m'==tl@          @l;=s)))))))){m'l=tl@          @l;=s)))))))){m'l=tl@         @l;=s)))))))){m'j=tl@        @l;=s)))))))){m'l=tl@        @l;=%)))))))){m'*=tl@        @l;=%)))))))){m'l=tl@          @l;=%)))))))){m'l=tl@     ",
"      -=i)))))))]nmq;=@              ;=i))))))))nmq;=@              -=i)))))))]nmq;=@             -=|)))))))]nmq;=@            ;=i))))))))nmq;=@            -=i)))))))]nmq;=@            -=i)))))))]nmq;=@              -=i)))))))]nmq;=@       ",
"      %=i))))))]{oqq@=%              %=i)))))]]{oqq@=%              s=i))))))]{oqr@=%             %=i))))))]{oqq@=%            %=i)))))]]{oqq@=%            %=i))))))]{oqq@=%            s=i))))))]{oqq@=%              %=i))))))]{oqq@=%       ",
"       =s{]){{{nomrr;=                =s{]){{{nomr';=                =%{])]{{nomqr;=               =s{])]{{nomrr;=              =s{]){{{nomr';=              =s{]){{{nomrr;=              =s{]){{{nomrr;=                =s{]){{{nomr';=        ",
"       $-o{nnnoomqqi*-                $-o{nnnoomqqi*;                $-o{nnnoomqqi*;               $-o{nnnoomqqi*-              $-o{nnnoomqqi*;              $-o{nnnoomqqi*-              $-o{nn!oomqqi*;                $-o{nnnoomqq|*-        ",
"        dpqmmmqqq''-=}                 dpqmmmqqqr'-=}                 dpqmmmqqqri-=}                dpqmmmqqqri-=}               dpqmmmqqqr'-=}               dpqmmmqqq''-=}               dpqmmmqqqr'-=}                 dpqmmmqqqq'-=}        ",
"        uf-piiiis@&*v5                 uf;piiiis@l*v5                 uf;piiiis@&*v5                uf;piiiis@&*v5               uf;piiiis@l*v5               uf-piiiis@&*v5               uf-piiiis@l*v5                 uf;piiiis@&jv5        ",
"        wwvef|rpefvuw2                 wwvef|rpeffuw2                 wwvef|rpeffuw2                wwvef|rpefvuw[               wwvef|rpeffuw2               wwvef|rpefvuw2               wwvef|rpeffuw2                 wwvef|rpeffuw2        ",
"        5xxx4   4wwwx                  5xxx4   4wwwx                  5xxx4   4wwwx                 5xxx4   4wwwx                5xxx4   4wwwx                5xxx4   4wwwx                5xxx4   4wwwx                  5xxx4   4wwwx         ",
"         xyyx    wxx                    xyyx    wxx                    xyyx    wxx                   xyyx    wxx                  xyyx    wxx                  xyyx    wxx                  xyyx    wxx                    xyyx    wxx          ",
"                                                                                                                                                                                                                                                "};
