/* XPM */
static char * skateboarder_xpm[] = {
"30 60 64 1",
" 	c None",
".	c #020204",
"+	c #FECA4E",
"@	c #BA0202",
"#	c #7A7A7E",
"$	c #D23A3A",
"%	c #9E0202",
"&	c #5A625E",
"*	c #DA5252",
"=	c #373637",
"-	c #DA620A",
";	c #BABABE",
">	c #272625",
",	c #DADADE",
"'	c #8E5606",
")	c #D27606",
"!	c #171716",
"~	c #F98911",
"{	c #FEDE86",
"]	c #898786",
"^	c #623606",
"/	c #E2B26E",
"(	c #FEE6AE",
"_	c #FE9606",
":	c #CE1616",
"<	c #4F4F4F",
"[	c #EAEAEE",
"}	c #FEA13E",
"|	c #929296",
"1	c #5E5A62",
"2	c #CACACE",
"3	c #FEEEBE",
"4	c #FEAA06",
"5	c #F3D696",
"6	c #0B1214",
"7	c #969696",
"8	c #725A36",
"9	c #FE9A36",
"0	c #090B0B",
"a	c #EA1F1F",
"b	c #F6F6F6",
"c	c #FEC67E",
"d	c #5A420E",
"e	c #1C2021",
"f	c #E6D2A2",
"g	c #A69E96",
"h	c #CE1010",
"i	c #FE7206",
"j	c #2B2E2E",
"k	c #9E6E1E",
"l	c #6E6E6E",
"m	c #967256",
"n	c #C50303",
"o	c #FEAA26",
"p	c #AAAAAE",
"q	c #FEAE36",
"r	c #FEA646",
"s	c #FEB606",
"t	c #F6FEFE",
"u	c #C40A0A",
"v	c #2A1A06",
"w	c #724206",
"x	c #656568",
"y	c #5A5A5A",
"             x!!!x            ",
"            x!0!!jx           ",
"           ......!!           ",
"            >0t]e!!x    ..    ",
"           .j8=]t=!!   ...    ",
"          -~3555f!j!   ...    ",
"       i9}}c5({{od!=  x...    ",
"       -}}9}}}rr/8!1| ....    ",
"           !!!!!!!!.xx....    ",
"    l>....>>>>>>>>>..0....    ",
"  l=......0.6ej6...e.....     ",
" 7...e<...0&;2,;#j.=j!...     ",
" ..<l  6..y,ttttb;&==j..      ",
"      x!6jp[tttttt2<==..      ",
"      =!.<;[tttttttpe=.       ",
"      =0.x;[ttttttt,<!=       ",
"      =.!7;[ttttttttx.=       ",
"      j.=p;,bttttttt#.j       ",
"      x.<gp2[btttttt#.x       ",
"       .=gp;2,[[[tb[l.        ",
"       j0#pp;22,,,[2j>        ",
"       k.j||pp;;;;pyv         ",
"       o'0e<x####yjw)         ",
"       +_)'w^ygmw^'__         ",
" *$$$$$)4___~%$%~444o)$$$$$   ",
"*nnnnnn4444_%nn%4ss444nnnnn*  ",
"un@%%%%%%%%%%%%%%%%%%%%%%%%%* ",
" aah@@uu@u:::::::::::@@@u@@:a*",
"    .6&<.            6.y1!=   ",
"     .!.              000j    ",
"            x!!!x             ",
"           xj!!06x            ",
"           !!0.....           ",
"    ..    x!e!]t0j            ",
"    ...   !!=t]=8j.           ",
"    ...   !j!f55f3~-          ",
"    ...x  =!do{{(5c}}9i       ",
"    .... ]x08/rr}9}9}r-       ",
"    ....lx.!v!e!e!!           ",
"    ....0..>>>>>>>e>....>l    ",
"     .....e...6je6.0......=l  ",
"     ...!j=.j#;,2;&0...<e...7 ",
"      ..j==&;btttt,y..6  l<.. ",
"      ..==<2tttttt[pj6!x      ",
"       .=epttttttt[;<.!=      ",
"       =!<,ttttttt[;x.0=      ",
"       =.xtttttttt[;7!.=      ",
"       j.#tttttttb,;p=.j      ",
"       x.#ttttttb[2pg<.x      ",
"        .x[bt[[[,2;pg=.       ",
"        >j2[,,,22;pp#0j       ",
"         vyp;;;;pp||j.k       ",
"         )wjy####l<e0'o       ",
"         __'^wmgy^w')_+       ",
"   $$$$$)o444~%$%~___4)$$$$$* ",
"  *nnnnn444ss4%nn%_4444nnnnnn*",
" *%%%%%%%%%%%%%%%%%%%%%%%%%@nu",
"*a:@@u@@@:::::::::::u@un@@uaa ",
"   =!1y.0            .<x60    ",
"    >060              .!.     "};
