/* XPM */
static char * splat_xpm[] = {
"384 32 6 1",
" 	c None",
".	c #DD0204",
"+	c #4A0204",
"@	c #100204",
"#	c #B10A0C",
"$	c #D8A6A6",
"                                                                                                                                                                                                                                                                                                                                                                                                ",
"                                                                                                                                                                                                                                                                                                                                                                                                ",
"                                                                               .                                                                                                                                                                                                                                                                                                                ",
"                                             +@@#                              .                               .                                                                                                                                                                                                                                                                                ",
"                                             @@@@                             ..                               .                                                                                                                                                                                                                                                                                ",
"                                              +++                             #+.                              .                                                                                                                                                                                                                                                                                ",
"                                              ..                              @@+                              .                               .                                                                                                                                                                                                                                                ",
"                                              ..                         +#@  @@@                             ..                               .                                                                                                                                                                                                                                                ",
"                                              ..                         .+@@ ...                             ..                               .                                                                                                                                                                                                                                                ",
"                                           .+#..                         ..+@ ..                      $$$     ...                              .                               .                                                                                                                                                                                                                ",
"                                           ..# .                          ..# ..       ++             @@@@    ++.      ..#                    ..       ...                     .        ...                              ...                                                                                                                                                                    ",
"                 .                        ..+@ .                           +$  .     .#@@             +#+@.   #@#     ..#@             .      ...    ...                       .       .                                                                   ..                                                                                                                                   ",
"                 .                        .##@ .   #@+                     ..  .    ..+@              ...#..  +@+   ...               $@@.    ...   ..                 ...     .                                                                             .                               ..                                                                                                 ",
"             .   .                        @@@. .  .+@@                     ..  .  ....                  ....   @   ..                $@+#.    .++                     ...     ...                              .                                                                                                                                                                                ",
"             .   .                         ... . ..#+                       .     ...                      .      ..                 @+..     +++                     ..      ...                     .        .                                                                                                                                                                                ",
"             ...+@                         ... . ...                        ..  . .                                                  #..       +        .             .       ...                     .        ..                                                                                                                                                                               ",
"             ...+@                     #   ...  ....                         .. ...  ...#$                                               ..    +       ..            @#.      ++#         .          ..       ...                                                                                                                                                                               ",
"             ..#.@@                   +@#   .. ... .  .               ...    .. ..  ....+$ $          ..  ...                          ....        ..  ...          @+..       ++       ...         ...       ...                                                                                                                                                                               ",
"           ...#@.@@                   #@.   .. ..    #$              @+#.. .    ..  ....#.          ....   ...      ..  .. #        ..  ....     ...  ...           @#.        +    ...  ..         ...       ...                                                                                                                                                                               ",
"           .@#+@....                  ..... .. ..  ..+$             ##@... @.  ..   ...  +.          ....   ..    . . ...+.$       ....          ..   . .           @..            ...   ..                   +@#    ..   .          .                                                                                                                                                          ",
"          ##@@@..  .                    .... @... ...#.$.             .     .. .    .     +           .  @   .   ..    ..#$        ....         ...                 ..            ....             @.         @@@    ..   .          .         .                                                                                                                                                ",
"          +@.@$..$  .                     ... ... ....+#                 @   .   .                #@@    @+      ..   ..  +        .   ..       .                   ..                             #.          +     ...  #.        ..         .                                                                                                                                                ",
"         #@#.. . .$ .                      ....#+#...                ... @@..    .   .   ..#      ##..   +#.    ..    .          # .   @...                 #+     .   ...                         @+.                ..  @@        ..         .                    .                                                                                                                           ",
"         ...... .#...                   .   ...$$ ..     +@@         ...  #..  ... ...   ..@@      ...   ...    .. ..            @#.    ...                .$          ..                          @@#                     +        @@         .       .   .        .                                                                                                                           ",
"         ..@#.. ..#.#@@                ..   ... ....     @@                ......#+..       @       ...    ..  ......     ..     #...                     +$           .               ..          ..  .                                      ...     ..   .        .     ..   .                                                                                                                ",
"        ...@@. . ....+@+                .. .  .......   ..                 ......$ ..               .      ...........     ..    ...                      #     # #.  @             .  .           .. ..                                    . ... .   ...  .       ..          .  ..                                                                                                            ",
"       ....@@....   ..@@                 @ . .. .. .... .                  .. .#$ ....                     ...........     ..#    ..         ......       .     #@ .          .     ....    #+#       ..                                     .....    ... ...      ..         ..       .            .                                                                                           ",
"      .....#+....  ....###              +@+#..... .......#.              ..  ..+ ......                  .......# ......   @@@    .        .....# .....   ..    @+..       .....# ......   .$$        ..   .....# ..               .  .       .#       .   ..      ...      ......     .   .        ..     .        ..    .                                                                     ",
"   .......@.......  ....#@.         ..@+#@@@..... . .....@+..        .@+#. .. ..##...   ...#@        ... .. .+..$ ...   .                 ......$ ...   .... .  .##   .   ......$ ... . .... .  #@@   . ........$ ............     .  ..     .@+..         @#     ......   ...#++.    ..   .        .#.   .    .     .    .                                                                     ",
"  .......@+.++@@#.. ..##@#.....    ...#@..##+++#.   .....#@..      ..##@.....@@@@+.... .....#      +@#...  ..@@$ @@@#. ....@+#     +@#. .. ....$ ..... ....@+#   ..+@#.  ......$ ..... ....@+#  ###+@#.. ..#++.$ #+... ....@+#     ..... ....+@+++. .......+#      .+@@@#...#.@@@@.......  .       ..+.   ....            ..                                                                    ",
"   .......##@@@@@#......#...        ......@@@@@+..   .......        .........++@+...   ......      #@... .. +@@# +++   ....#@     .#@..........# ...   ....#@#    .#@. .. .....# ...   ....# .   ..#@. .. .+@@## .#.   ....#@$$   .#+## .. ..@@@# +@..   .##.        +++....+.+@+#.......##+.         ..#.....####....#.#+...        ......#+...#.........                                      ",
"        ................                 .............                     ............                 ................               .....................              ................             .............              . ....................             ...................##.            .##.....++@....+....            ....+@...+...#+..                                        "};
