/* XPM */
static char * superpenguin_xpm[] = {
"240 60 63 1",
" 	c None",
".	c #68686B",
"+	c #212324",
"@	c #040305",
"#	c #1A1A1A",
"$	c #7D7A7A",
"%	c #151515",
"&	c #919195",
"*	c #BBBBBE",
"=	c #2A2E2E",
"-	c #DDDAD4",
";	c #373533",
">	c #4E4E4D",
",	c #EAEAEE",
"'	c #725A32",
")	c #F6FCFB",
"!	c #5F3809",
"~	c #FE8E1A",
"{	c #EA5E0E",
"]	c #FB8310",
"^	c #FEEEBE",
"/	c #E6CE92",
"(	c #FADC98",
"_	c #905505",
":	c #F67008",
"<	c #DE9E56",
"[	c #FEC67A",
"}	c #FEB606",
"|	c #774308",
"1	c #F6A03E",
"2	c #2B1A07",
"3	c #522A06",
"4	c #5D1F10",
"5	c #490614",
"6	c #600520",
"7	c #330724",
"8	c #A30329",
"9	c #700B1E",
"0	c #490A39",
"a	c #B40326",
"b	c #C31626",
"c	c #C02A36",
"d	c #240714",
"e	c #990723",
"f	c #DA3D46",
"g	c #FCE440",
"h	c #FAE409",
"i	c #D2566A",
"j	c #8A0521",
"k	c #E8C24C",
"l	c #964246",
"m	c #761E22",
"n	c #E6CA0A",
"o	c #872F33",
"p	c #FE9A6E",
"q	c #AAA9AA",
"r	c #CACACE",
"s	c #A69E92",
"t	c #5D5B5F",
"u	c #9E6E1E",
"v	c #D27606",
"w	c #FEAA0C",
"x	c #FE9606",
"                                                                                                                                                                                                                                                ",
"                                                                                                                                                                                                                                                ",
"                                                                                                                                                                                                                                                ",
"        .+@@@#$                       .+@@@#$                       .+@@@#$                       .+@@@#$                       .+@@@#$                       .+@@@#$                       .+@@@#$                       .+@@@#$               ",
"@@     %@%@@@@@.              @@     %@%@@@@@.              @@     %@%@@@@@.              @@     %@%@@@@@.              @@     %@%@@@@@.              @@     %@%@@@@@.              @@     %@%@@@@@.              @@     %@%@@@@@.              ",
"@@@   .#&*=@&-$@              @@@   .#&*=@&-$@              @@@   .#&*=@&-$@              @@@   .#&*=@&-$@              @@@   .#&*=@&-$@              @@@   .#&*=@&-$@              @@@   .#&*=@&-$@              @@@   .#&*=@&-$@              ",
"@@@   ;>,;;';&);              @@@   ;>,;;';&);              @@@   ;>,;;';&);              @@@   ;>,;;';&);              @@@   ;>,;;';&);              @@@   ;>,;;';&);              @@@   ;>,;;';&);              @@@   ;>,;;';&);              ",
"@@@.  +!~{]^/(/%              @@@.  +!~{]^/(/%              @@@.  +!~{]^/(/%              @@@.  +!~{]^/(/%              @@@.  +!~{]^/(/%              @@@.  +!~{]^/(/%              @@@.  +!~{]^/(/%              @@@.  +!~{]^/(/%              ",
"@@@@ &_::<[(^(}!              @@@@ &_::<[(^(}!              @@@@ &_::<[(^(}!              @@@@ &_::<[(^(}!              @@@@ &_::<[(^(}!              @@@@ &_::<[(^(}!              @@@@ &_::<[(^(}!              @@@@ &_::<[(^(}!              ",
"@@@@.@|:::]:]1<'              @@@@.@|:::]:]1<'              @@@@.@|:::]:]1<'              @@@@.@|:::]:]1<'              @@@@.@|:::]:]1<'              @@@@.@|:::]:]1<'              @@@@.@|:::]:]1<'              @@@@.@|:::]:]1<'              ",
"@@@@@@@2!|!3!|4565            @@@@@@@2!|!3!|4565            @@@@@@@2!|!3!|45652           @@@@@@@2!|!3!|4565#     7689  @@@@@@@2!|!3!|45666           @@@@@@@2!|!3!|45957           @@@@@@@2!|!3!|45657           @@@@@@@2!|!3!|45950           ",
" @@@@@=aabbbbabc@d6d           @@@@@=aabbbbabc@d0            @@@@@=aabbbbabc@769           @@@@@=aabbbbabc@d6400750a87   @@@@@=aabbbbabc@d6e9          @@@@@=aabbbbabc@d60           @@@@@=aabbbbabc@766           @@@@@=aabbbbabc@d93          ",
" @@@%=fga9hhgaa6i@@d           @@@%=fga9hhgaa6i@@2           @@@%=fga9hhgaa6i@@a0          @@@%=fga9hhgaa6i@@8aaaaaja@   @@@%=fga9hhgaa6i@@aa9         @@@%=fga9hhgaa5i@@66          @@@%=fga9hhgaa6i@@9d          @@@%=fga9hhgaa5i@@e          ",
"  @@=akaahhhh9a5lb@7            @@=akaahhhh9a5lb@0            @@=akaahhhh9a5lb@690          @@=akaahhhh9a5lb@6aaaaaa8     @@=akaahhhh9a5|b@6a89         @@=akaahhhh9a6lb@69           @@=akaahhhh9a5lb@67           @@=akaahhhh9a6lb@6          ",
"  @@;m8aaaaaaaeha95@            @@;m8aaaaaaaeha95@%           @@;m8aaaaaaaeha95@aae977      @@;m8aaaaaaaeha95@aaaaaa6     @@;m8aaaaaaa8ha95@aaa7        @@;m8aaaaaaaeha95@7           @@;m8aaaaaaaeha95@4           @@;m8aaaaaaaeha97@6         ",
"   @;#6jaaaaaaae65d@             @;#6jaaaaaaae65d@705          @;#6jaaaaaaae65d@aaaaa900     @;#6jaaaaaaae65d@aaaaa80      @;#6jaaaaaa8865d@aaaj         @;#6jaaaaaa8865d@7            @;#6jaaaaaaae65d@0            @;#6jaaaaaa8865d@6         ",
"   ;%>lejnhhh98eo@@@             ;%>lejnhhh98eo@@@85e9         ;%>lejnhhh98eo@@@8aaaaaa07d   ;%>lejnhhh98eo@@@aaa8aj       ;%>lejnhhh9aeo@@@aaaaj        ;%>lejnhhh9aeo@@@9            ;%>lejnhhh98eo@@@5            ;%>lejnhhh9aeo@@@6         ",
"   ;@.)of88cpafo&@@@d            ;@.)of88cpafo&@@@aj6aj        ;@.)of88cpafo&@@@aaaaee0j77   ;@.)of88cpafo&@@@aaaa87       ;@.)of8ecpafo&@@@aaaaa9       ;@.)of8ecpafo&@@@0            ;@.)of88cpafo&@@@57           ;@.)of8ecpafo&@@@97        ",
"   =@$))mj999jm*q+@d60           =@$))mj999jm*q+@da808a7       =@$))mj999jm*q+@daaaj     d   =@$))mj999jm*q+@daaaa6        =@$))me999jm*q+@daaaaa8j      =@$))me999jm*q+@d7            =@$))mj999jm*q+@d67           =@$))me999jm*q+@dj0        ",
"   .@$)))men89rqq>@56a6          .@$)))men89rqq>@6aa6ja0       .@$)))men89rqq>@6a80          .@$)))men89rqq>@6aaj7         .@$)))men89rqq>@6aaaajj8      .@$)))men89rqq>@67            .@$)))men89rqq>@6867          .@$)))men89rqq>@6a00       ",
"    @.,)),mj6r*ss;@868ad          @.,)),mj6r*ss;@e60d0a7        @.,)),mj6r*ss;@j65            @.,)),mj6r*ss;@8aa6           @.,)),mj6r*ss;@aaa86   d      @.,)),mj6r*ss;@80             @.,)),mj6r*ss;@8a66           @.,)),mj6r*ss;@8a66       ",
"    +=r,---9r*qq$@=j0980          +=r,---9r*qq$@=    09         +=r,---9r*qq$@=               +=r,---9r*qq$@=jj6            +=r,---9r*qq$@=aa97           +=r,---9r*qq$@=aj             +=r,---9r*qq$@=aa80           +=r,---9r*qq$@=aajjd      ",
"     2tq****qq&&=@u  68            2tq****qq&&=@u    70          2tq****qq&&=@u                2tq****qq&&=@u                2tq****qq&&=@u05              2tq****qq&&=@u885             2tq****qq&&=@ue880            2tq****qq&&=@u57 0@      ",
"     v|=t$$$$.>+@_w  60            v|=t$$$$.>+@_w                v|=t$$$$.>+@_w                v|=t$$$$.>+@_w                v|=t$$$$.>+@_w                v|=t$$$$.>+@_w9jj5            v|=t$$$$.>+@_w   d            v|=t$$$$.>+@_w   d       ",
"     xx_!!ust!|_vx[                xx_!!ust!|_vx[                xx_!!ust!|_vx[                xx_!!ust!|_vx[                xx_!|$st!|_vx[                xx_!!ust!|_vx[                xx_!!ust!|_vx[   @            xx_!!ust!|_vx[           ",
"     wwww~   ~xxxw                 wwww~   ~xxxw                 wwww~   ~xxxw                 wwww~   ~xxxw                 wwww]   ~xxxw                 wwww~   ~xxxw                 wwww~   ~xxxw                 wwww~   ~xxxw            ",
"      w}}w    xww                   w}}w    xww                   w}}w    xww                   w}}w    xww                   w}}w    xww                   w}}w    xww                   w}}w    xww                   w}}w    xww             ",
"                                                                                                                                                              .                                                                                 ",
"                                                                                                                                                                                                                                                ",
"                                                                                                                                                                                                                                                ",
"                                                                                                                                                                                                                                                ",
"                                                                                                                                                                                                                                                ",
"                                                                                                                                                                                                                                                ",
"               $#@@@+.                       $#@@@+.                       $#@@@+.                       $#@@@+.                       $#@@@+.                       $#@@@+.                       $#@@@+.                       $#@@@+.        ",
"              .@@@@@%@%     @@              .@@@@@%@%     @@              .@@@@@%@%     @@              .@@@@@%@%     @@              .@@@@@%@%     @@              .@@@@@%@%     @@              .@@@@@%@%     @@              .@@@@@%@%     @@",
"              @$-&@=*&#.   @@@              @$-&@=*&#.   @@@              @$-&@=*&#.   @@@              @$-&@=*&#.   @@@              @$-&@=*&#.   @@@              @$-&@=*&#.   @@@              @$-&@=*&#.   @@@              @$-&@=*&#.   @@@",
"              ;)&;';;,>;   @@@              ;)&;';;,>;   @@@              ;)&;';;,>;   @@@              ;)&;';;,>;   @@@              ;)&;';;,>;   @@@              ;)&;';;,>;   @@@              ;)&;';;,>;   @@@              ;)&;';;,>;   @@@",
"              %/(/^]{~!+  .@@@              %/(/^]{~!+  .@@@              %/(/^]{~!+  .@@@              %/(/^]{~!+  .@@@              %/(/^]{~!+  .@@@              %/(/^]{~!+  .@@@              %/(/^]{~!+  .@@@              %/(/^]{~!+  .@@@",
"              !}(^([<::_& @@@@              !}(^([<::_& @@@@              !}(^([<::_& @@@@              !}(^([<::_& @@@@              !}(^([<::_& @@@@              !}(^([<::_& @@@@              !}(^([<::_& @@@@              !}(^([<::_& @@@@",
"              '<1]:]:::|@.@@@@              '<1]:]:::|@.@@@@              '<1]:]:::|@.@@@@              '<1]:]:::|@.@@@@              '<1]:]:::|@.@@@@              '<1]:]:::|@.@@@@              '<1]:]:::|@.@@@@              '<1]:]:::|@.@@@@",
"            5654|!3!|!2@@@@@@@            5654|!3!|!2@@@@@@@           25654|!3!|!2@@@@@@@  9867     #5654|!3!|!2@@@@@@@           66654|!3!|!2@@@@@@@           75954|!3!|!2@@@@@@@           75654|!3!|!2@@@@@@@           05954|!3!|!2@@@@@@@",
"          d6d@cbabbbbaa=@@@@@            0d@cbabbbbaa=@@@@@           967@cbabbbbaa=@@@@@   78a0570046d@cbabbbbaa=@@@@@          9e6d@cbabbbbaa=@@@@@           06d@cbabbbbaa=@@@@@           667@cbabbbbaa=@@@@@           39d@cbabbbbaa=@@@@@ ",
"          d@@i6aaghh9agf=%@@@           2@@i6aaghh9agf=%@@@          0a@@i6aaghh9agf=%@@@   @ajaaaaa8@@i6aaghh9agf=%@@@         9aa@@i6aaghh9agf=%@@@          66@@i5aaghh9agf=%@@@          d9@@i6aaghh9agf=%@@@           e@@i5aaghh9agf=%@@@ ",
"          7@bl5a9hhhhaaka=@@            0@bl5a9hhhhaaka=@@          096@bl5a9hhhhaaka=@@     8aaaaaa6@bl5a9hhhhaaka=@@         98a6@b|5a9hhhhaaka=@@           96@bl6a9hhhhaaka=@@           76@bl5a9hhhhaaka=@@            6@bl6a9hhhhaaka=@@  ",
"          @59aheaaaaaaa8m;@@           %@59aheaaaaaaa8m;@@      779eaa@59aheaaaaaaa8m;@@     6aaaaaa@59aheaaaaaaa8m;@@        7aaa@59ah8aaaaaaa8m;@@           7@59aheaaaaaaa8m;@@           4@59aheaaaaaaa8m;@@           6@79aheaaaaaaa8m;@@  ",
"          @d56eaaaaaaaj6#;@          507@d56eaaaaaaaj6#;@     009aaaaa@d56eaaaaaaaj6#;@      08aaaaa@d56eaaaaaaaj6#;@         jaaa@d5688aaaaaaj6#;@            7@d5688aaaaaaj6#;@            0@d56eaaaaaaaj6#;@            6@d5688aaaaaaj6#;@   ",
"          @@@oe89hhhnjel>%;         9e58@@@oe89hhhnjel>%;   d70aaaaaa8@@@oe89hhhnjel>%;       ja8aaa@@@oe89hhhnjel>%;        jaaaa@@@oea9hhhnjel>%;            9@@@oea9hhhnjel>%;            5@@@oe89hhhnjel>%;            6@@@oea9hhhnjel>%;   ",
"         d@@@&ofapc88fo).@;        ja6ja@@@&ofapc88fo).@;   77j0eeaaaa@@@&ofapc88fo).@;       78aaaa@@@&ofapc88fo).@;       9aaaaa@@@&ofapce8fo).@;            0@@@&ofapce8fo).@;           75@@@&ofapc88fo).@;           79@@@&ofapce8fo).@;   ",
"        06d@+q*mj999jm))$@=       7a808ad@+q*mj999jm))$@=   d     jaaad@+q*mj999jm))$@=        6aaaad@+q*mj999jm))$@=      j8aaaaad@+q*mj999em))$@=            7d@+q*mj999em))$@=           76d@+q*mj999jm))$@=           0jd@+q*mj999em))$@=   ",
"       6a65@>qqr98nem)))$@.       0aj6aa6@>qqr98nem)))$@.          08a6@>qqr98nem)))$@.         7jaa6@>qqr98nem)))$@.      8jjaaaa6@>qqr98nem)))$@.            76@>qqr98nem)))$@.          7686@>qqr98nem)))$@.          00a6@>qqr98nem)))$@.   ",
"      da868@;ss*r6jm,)),.@        7a0d06e@;ss*r6jm,)),.@            56j@;ss*r6jm,)),.@           6aa8@;ss*r6jm,)),.@      d   68aaa@;ss*r6jm,)),.@             08@;ss*r6jm,)),.@           66a8@;ss*r6jm,)),.@           66a8@;ss*r6jm,)),.@    ",
"      0890j=@$qq*r9---,r=+         90    =@$qq*r9---,r=+               =@$qq*r9---,r=+            6jj=@$qq*r9---,r=+           79aa=@$qq*r9---,r=+             ja=@$qq*r9---,r=+           08aa=@$qq*r9---,r=+          djjaa=@$qq*r9---,r=+    ",
"       86  u@=&&qq****qt2          07    u@=&&qq****qt2                u@=&&qq****qt2                u@=&&qq****qt2              50u@=&&qq****qt2             588u@=&&qq****qt2            088eu@=&&qq****qt2           @0 75u@=&&qq****qt2     ",
"       06  w_@+>.$$$$t=|v                w_@+>.$$$$t=|v                w_@+>.$$$$t=|v                w_@+>.$$$$t=|v                w_@+>.$$$$t=|v            5jj9w_@+>.$$$$t=|v            d   w_@+>.$$$$t=|v            d   w_@+>.$$$$t=|v     ",
"           [xv_|!tsu!!_xx                [xv_|!tsu!!_xx                [xv_|!tsu!!_xx                [xv_|!tsu!!_xx                [xv_|!ts$|!_xx                [xv_|!tsu!!_xx            @   [xv_|!tsu!!_xx                [xv_|!tsu!!_xx     ",
"            wxxx~   ~wwww                 wxxx~   ~wwww                 wxxx~   ~wwww                 wxxx~   ~wwww                 wxxx~   ]wwww                 wxxx~   ~wwww                 wxxx~   ~wwww                 wxxx~   ~wwww     ",
"             wwx    w}}w                   wwx    w}}w                   wwx    w}}w                   wwx    w}}w                   wwx    w}}w                   wwx    w}}w                   wwx    w}}w                   wwx    w}}w      ",
"                                                                                                                                                                           .                                                                    ",
"                                                                                                                                                                                                                                                ",
"                                                                                                                                                                                                                                                "};
