/* XPM */
static char *bomber_xpm[] = {
/* width height num_colors chars_per_pixel */
"   480    30       15            1",
/* colors */
". c #8dcff4",
"# c #ecf7fd",
"a c #ccedfe",
"b c #869116",
"c c #acb552",
"d c #dde492",
"e c #f5b757",
"f c #b3864d",
"g c #9a6a37",
"h c #271c12",
"i c #bb8959",
"j c #fc8c3a",
"k c #9d653b",
"l c #bd845a",
"m c None",
/* pixels */
"mmmmmmmmmmmmmmmmmmmmmmmmmmmmmmmmmmmmmmmmmmmmmmmmmmmmmmmmmmmmmmmmmmmmmmmmmmmmmmmmmmmmmmmmmmmmmmmmmmmmmmmmmmmmmmmmmmmmmmmmmmmmmmmmmmmmmmmmmmmmmmmmmmmmmmmmmmmmmmmmmmmmmmmmmmmmmmmmmmmmmmmmmmmmmmmmmmmmmmmmmmmmmmmmmmmmmmmmmmmmmmmmmmmmmmmmmmmmmmmmmmmmmmmmmmmmmmmmmmmmmmmmmmmmmmmmmmmmmmmmmmmmmmmmmmmmmmmmmmmmmmmmmmmmmmmmmmmmmmmmmmmmmmmmmmmmmmmmmmmmmmmmmmmmmmmmmmmmmmmmmmmmmmmmmmmmmmmmmmmmmmmmmmmmmmmmmmmmmmmmmmmmmmmmmmmmmmmmmmmmmmmmmmmmmmmmmmmmmmmmmmmmmmmmmmmmmmmmmmmmmmmmmmmmmmmmmmmmmmmm",
"mmmmmmmmmmmmmmmmmmmmmmmmmmmmmmmmmmmmmmmmmmmmmmmmmmmmmmmmmmmmmmmmmmmmmmmmmmmmmmmmmmmmmmmmmmmmmmmmmmmmmmmmmmmmmmmmmmmmmmmmmmmmmmmmmmmmmmmmmmmmmmmmmmmmmmmmmmmmmmmmmmmmmmmmmmmmmmmmmmmmmmmmmmmmmmmmmmmmmmmmmmmmmmmmmmmmmmmmmmmmmmmmmmmmmmmmmmmmmmmmmmmmmmmmmmmmmmmmmmmmmmmmmmmmmmmmmmmmmmmmmmmmmmmmmmmmmmmmmmmmmmmmmmmmmmmmmmmmmmmmmmmmmmmmmmmmmmmmmmmmmmmmmmmmmmmmmmmmmmmmmmmmmmmmmmmmmmmmmmmmmmmmmmmmmmmmmmmmmmmmmmmmmmmmmmmmmmmmmmmmmmmmmmmmmmmmmmmmmmmmmmmmmmmmmmmmmmmmmmmmmmmmmmmmmmmmmmmmmmmm",
"mmmmmmmmmmmmmmmmmmmmmmmmmmmmmmmmmmmmmmmmmmmmmmmmmmmmmmmmmmmmmmmmmmmmmmmmmmmmmmmmmmmmmmmmmmmmmmmmmmmmmmmmmmmmmmmmmmmmmmmmmmmmmmmmmmmmmmmmmmmmmmmmmmmmmmmmmmmmmmmmmmmmmmmmmmmmmmmmmmmmmmmmmmmmmmmmmmmmmmmmmmmmmmmmmmmmmmmmmmmmmmmmmmmmmmmmmmmmmmmmmmmmmmmmmmmmmmmmmmmmmmmmmmmmmmmmmmmmmmmmmmmmmmmmmmmmmmmmmmmmmmmmmmmmmmmmmmmmmmmmmmmmmmmmmmmmmmmmmmmmmmmmmmmmmmmmmmmmmmmmmmmmmmmmmmmmmmmmmmmmmmmmmmmmmmmmmmmmmmmmmmmmmmmmmmmmmmmmmmmmmmmmmaaaammmmmmmmmmmmmmmmmmmmmmmmmm####mmmmmmmmmmmmmmmmmmmmm",
"mmmmmmmmmmmmmmmmmmmmmmmmmmmmmmmmmmmmmmmmmmmmmmmmmmmmmmmmmmmmmmmmmmmmmmmmmmmmmmmmmmmmmmmmmmmmmmmmmmmmmmmmmmmmmmmmmmmmmmmmmmmmmmmmmmmmmmmmmmmmmmmmmmmmmmmmmmmmmmmmmmmmmmmmmmmmmmmmmmmmmmmmmmmmmmmmmmmmmmmmmmmmmmmmmmmmmmmmmmmmmmmmmmmmmmmmmmmmmmmmmmmmmmmmmmmmmmmmmmmmmmmmmmmmmmmmmmmmmmmmmmmmmmmmmmmmmmmmmmmmmmmmmmmmmmmmmmmmmmmmmmmmmmmmmmmmmmmmmmmmmmmmmmmmmmmmmmmmmmmmmmmmmmmmmmmmmmmmmmmmmmmmmmmmmmmmmmmmmmmmmmmmmmmmmmmmmmmmmmmmmmmmammmmammmmmmmmmmmmmmmmmmmmmmmm#mmmm#mmmmmmmmmmmmmmmmmmmm",
"mmmmmmmmmmmmmmmmmmmmmmmmmmmmmmmmmmmmmmmmmmmmmmmmmmmmmmmmmmmmmmmmmmmmmmmmmmmmmmmmmmmmmmmmmmmmmmmmmmmmmmmmmmmmmmmmmmmmmmmmmmmmmmmmmmmmmmmmmmmmmmmmmmmmmmmmmmmmmmmmmmmmmmmmmmmmmmmmmmmmmmmmmmmmmmmmmmmmmmmmmmmmmmmmmmmmmmmmmmmmmmmmmmmmmmmmmmmmmmmmmmmmmmmmmmmmmmmmmmmmmmmmmmmmmmmmmmmmmmmmmmmmmmmmmmmmmmmmmmmmmmmmmmmmmmmmmmmmmmmmmmmmmmmmmmmmmmmmmmmmmmmmkmmmmmmmmmmmmmmmmmmmmmmmmmmmmmkmmmmmmmmmmmmmmmmmmmmmmmmmmmmmmmmmmmmmmmmmmmmmmmmmamammammmmmmmmmmmmmmmmmmmmmmmm#m#mm#mmmmmmmmmmmmmmmmmmmm",
"mmmmmmmmmmmmlllllmmmmmmmmmmmmmmmmmmmmmmmmmmlllllmmmmmmmmmmmmmmmmmmmmmmmmlllllmmmmmmmmmmmmmmmmmmmmmmmmmlllllmmmmmmmmmmmmmmmmmmmmmmmmmmmmmmmmmmmmmmmmmmmmmmmmmmmmmmmmmmmmmmmmmmmmmmmmmmmmmmmmmmmmmmmmmmmmmmmmmmmmmmmmmmmmmmmmmmmmmmmmmmmmmmmmmmmmmmmmmmmmmmmmmmmmmmmmmmmmmmmmmmmmmmmmmmmmmmmmmmmmmmmmmmmmmmmmmmmmmmmmmmmmmmmmmmmmmmmmmmmmmmmmmmmmmmmmmmmmllkmmmmmmmmmmmmmmmmmmmmmmmmmmmllkmmmmmmmmmmmmmmmmmmmmmm....mmmmmmmmmmmmmmmmmmmmmmamammammmmmmmmmmmmmmmmmmmmmmmm#m#mm#mmmmmmmmmmmmmmmmmmmm",
"mmmmmmmmmmlllllllllmmmmmmmmmmmmmmmmmmmmmmlllllllllmmmmmmmmmmmmmmmmmmmmlllllllllmmmmmmmmmmmmmmmmmmmmmlllllllllmmmmmmmmmmmmmmmmmmmmmmmlllllmmmmmmmmmmmmmmmmmmmmmmmmmmmmmmmmmmmmmmmmmmmmmmmmmmmmmmmmmmmmmmmmmmmmmmmmmmmmmmmmmmmmmlllllmmmmmmmmmmmmmmmmmmmmmmmmmlllllmmmmmmmmmmmmmmmmmmmmmmmmmmmmmmmmmmmmmmmmmmmmmmmmmklllmmmmmmmmmlllkmmmmmmmmmmmmlllmmbbbbbbbbbmmllkmmmmmmmmmmmmmmmmccccbbbbbmmmmmmmmmmmmmmmmmm.mmmm.mmmmmmmmmmmmmmmmmmmmmammmmammmmmmmmmmmmmmmmmmmmmmmm#mmmm#mmmmmmmmmmmmmmmmmmmm",
"mmmmmmmmmmlllllllllmmmmmmmmmmmmmmmmmmmmmmlllllllllmmmmmmmmmmmmmmmmmmmmlllllllllmmmmmmmmmmmmmmmmmmmmmlllllllllmmmmmmmmmmmmmmmmmmmmmlllllllllmmmmmmmmmmmmmmmmmmmmmmmlllllmmmmmmmmmmmmmmmmmmmmmmmmmlllllmmmmmmmmmmmmmmmmmmmmmmmmhlllllhmmmmmmmmmmmmmmmmmmmmmmmllllllgmmmmmmmmmmmmmmmmmmmmmmmmmmmmmmmmmmmmmmmmmmmmmmmkkllllmmmmmmmllllkkmmmmmmmmmmmlllbbbbbbbbbbbbbllkmmmmmmmmmmlllmccccccccbbbbbmllkmmmmmmmmmmmm.m.mm.mmmmmmmmmmmmmmmmmmmmmmaaaammmmmmmmmmmmmammmmmmmmmmmm####mmmmmmmmmmmmm#mmmmmmm",
"mmmmmmmmmllllllllllkmmmmmmmmmmmmmmmmmmmmllllllllllkmmmmmmmmmmmmmmmmmmllllllllllkmmmmmmmmmmmmmmmmmmmllllllllllkmmmmmmmmmmmmmmmmmmmmlllllllllmmmmmmmmmmmmmmmmmmmmmlllllllllmmmmmmmmmmmmmmmmmmmmmmhlllllhmmmmmmmmmmmmmmmmmmmmmmlllllllggmmmmmmmmmmmmmmmmmmmmmlllllllggmmmmmmmmmmmmmmmmmmmmmmmmmmmmmmmmmmmmmmmmmmmmmmkkllllmmmmmmmllllkkmmmmmmmmmmmlllcccccccbbbbbbllkmmmmmmmmmmllllcccdcccccbbbblllkmmmmmmmmmmmm.m.mm.mmmmmmmmmmmmmmmmmmmmmmmmmmmmmmmmmmmmmmamammmmmmmmmmmmmmmmmmmmmmmmmmm#m#mmmmmm",
"mmmmmmmmmlhhlllllhhkmmmmmmmmmmmmmmmmmmmmlhhlllllhhkmmmmmmmmmmmmmmmmmmlhhlllllhhkmmmmmmmmmmmmmmmmmmmlhhlllllhhkmmmmmmmmmmmmlllllmmllllllllllkmmlllllmmmmllllmmmmmlllllllllmmmmmllllmmmmmmmmmmmmhhlllllhhmmmmmmmmmmmmmmmmmmmmmlllllllggmmmmmmmmmmmmmmmmmmmmmlllggggggmmmmmmmmmmmmmmmmmklllmmmmmmmmmlllkmmmmmmmmmmmmmkkllllmmmmmllllkkmmmmmmmmmmmmmkkcdcccccccbbbbkkmmmmmmmmmmmlllcccdcccccccbbbbllkmmmmmmmmmmmm.mmmm.mmmmm.mmmmmmmmmmmmmmmmmmmmmmmmmmmmmmmmmammmmmmmmmmmmmmmmmmmmmmmmmmmmm#mmmmmmm",
"mmmmmmmmmihhlllllhhgmmmmmmmmmmmmmmmmmmmmihhlllllhhgmmmmmmmmmmmmmmmmmmihhlllllhhgmmmmmmmmmmmmmmmmmmmihhlllllhhgmmmmmmmmmmmlllllllmlhhlllllhhkmlllllllmmlllllllmmllllllllllkmmlllllllmmmmmmmmmmmllllllllkmmmmmmmmmmmmmmmmmmmmmilllgggkgmmmmmmmmmmmmmmmmmmmmeeeeeeeeeeemmmmmmmmmmmmmmmkkllllmmmmmmmllllkkmmmmmmmmmmmmmekklljjjjjllkkemmmmmmmmmmmmmmmcdcccccccccbbbbmmmmmmmmmmmmmkkccdcccccccccbbbkkmmmmmmmmmmmmmm....mmmmm.m.mmmmmmmmmmmmmmmmmmmmmmmmmmmmmmmmmmmmmmmmmmmmmmmmmmmmmmmmmmmmmmmmmmmmmm",
"mmmmmmmmmmilllllllgmmmmmmmmmmmmmmmmmmmmmmilllllllgmmmmmmmmmmmmmmmmmmmmilllllllgmmmmmmmmmmmmmmmmmmmmmilllllllgmmmmmmmmmmmlllllllllihhlllllhhglllllllllmkkklllllmlhhlllllhhkmlllllkkkmmmmmmmmmmmillllllkgmmmmmmmmmmmmmmmmmmkkkeeeeeeeeekkkmmmmmmmmmmmmmkkleeeeeejjjjjjjlkkmmmmmmmmmmmkkllllejjjjjellllkkmmmmmmmmmmmmmeeeeeeeeeeeeeeemmmmmmmmmmmmmmmcdccccccccccbbbmmmmmmmmmmmmmmmccdccccccccccbbmmmmmmmmmmmmmmmmmmmmmmmmmm.mmmmmmmmmmmmmmmmmmmmmmmmmmmmmmmmmmmmmmmmmmmmmmmmmmmmmmmmmmmmmmmmmmmmmmm",
"mmmmmmmmmcilllllkkgbmmmmmmmmmmmmmmmmmmmmcilllllkkgbmmmmmmmmmmmmmmmmmmcilllllkkgbmmmmmmmmmmmmmlllllmcilllllkkgbmlllllmmmmkkkkkkkllcilllllllgbllkkkkkkkmmmmkkllllihhlllllhhgllllkkmmmmmmkkkkmmmmmilllkkgmmmmmkkkkmmmmmmmmkklleeeeeeeeeejllkkmmmmmmmmmkkllleeeeeeeeeeejjlllkkmmmmmmmllkkklllleeeeellllkkkllmmmmmmmmmllccccccllkcbbbbbllmmmmmmmmmmmmmcdcccccccccccbbmmmmmmmmmmmmmmmccdccccccccccbbmmmmmmmmmmmmmmmmmmmmmmmmmmmmmmmmmmmmmmmmmmmmmmmmmmmmmmmmmmmmmmmmmmmmmmmmmmmmmmmmmmmmmmmmmmmmmmmmmm",
"mmmmlllllceekkkkkjjblllllmmmmmmmmmmlllllceekkkkkjjblllllmmmmmmmmlllllceekkkkkjjblllllmmmmmmmlllllllceekkkkkjjblllllllmmmmmmmmmkkkcilllllkkgbkkkmmmmmmmmmmmmkkllcilllllllgbllkkmmmmmmmmllllkkkkccllkkkcckkkkllllmmmmmmkklllleeeeeeeeeejllllkkmmmmmmmlllleeeeeeeeeeeejjjllllmmmmmmmllllkkklleeeeellkkkllllmmmmmmmmmllccccccllkccbbbbllmmmmmmmmmmmmmcdccccccccccccbmmmmmmmmmmmmmmmccdcccccccccccbmmmmmmmmmmmmmmmmmmmmmmmmmmmmmmmmmmmmmmmmmmmmmmmmmmmmmmmmmmmmmmmmmmmmmmmmmmmmmmmmmmmmmmmmmmmmmmmmmm",
"mmmlllkkceeeejjjjjjjbkklllmmmmmmmmlllkkceeeejjjjjjjbkklllmmmmmmlllkkceeeejjjjjjjbkklllmmmmmllllkkkkeeeejjjjjjjkkkkllllmmmmmmmmmcceeekkkkkjjjbbmmmmmmmmmmmmmmkkkeilllllkkgjkkkmmmmmmmmmmmllllllceeeeejjcllllllmmmmmmmmllllcceeeejjjjjjjbbllllmmmmmmmmmmmeeeeeejjjjjjjjjmmmmmmmmmmmmllllekkeeeeeeekkellllmmmmmmmmmmmlccccccccccccbbblmmmmmmmmmmmmmmccccccccccccccbmmmmmmmmmmmmmmmccdcccccccccccbmmmmmmmmmmmmmmmmmmmmmmmmmmmmmmmmmmmmmmmmmmmmmmmmmmmmmmmmmmmmmmmmmmmmmmmmmmmmmmmmmmmmmmmmmmmmmmmmmm",
"mmlllkkcceeeeeeeejjjbbkklllmmmmmmlllkkcceeeeeeeejjjbbkklllmmmmlllkkcceeeeeeeejjjbbkklllmmmmlllkkmcceeeeeeeejjjbbmkklllmmmmmmmmmcceeeeeeeejjjbbmmmmmmmmmmmmmmmcceeekkkkkjjjbbmmmmmmmmmmmmmmlllleeeeeejjjllllmmmmmmmmmmmmmmceeeeeeeeeeejjbmmmmmmmmmmmmmmceeeeeeeeeeejjjjbmmmmmmmmmmmmmlceeeeeeeeeeeeeblmmmmmmmmmmmmmlccccccccccccbbblmmmmmmmmmmmmllccccccccccccccllkmmmmmmmmmmmmmccccccccccccccbmmmmmmmmmmmmmmmmmmmmmmmmmmmmm...mmmmmmmmmmmmmmmmmmmmmmmmmmmmmmmmmmmmmmmmmmmmmmmmmmmmmmmmmmmmmmmmmm",
"mmlllkccceeeeeeeejjjbbbklllmmmmmmlllkccceeeeeeeejjjbbbklllmmmmlllkccceeeeeeeejjjbbbklllmmmmllkkmccceeeeeeeejjjbbbmkkllmmmmmmmmccceeeeeeeejjjbbbmmmmmmmmmmmmmccceeeeeeeejjjbbbmmmmmmmmmmmmmmccceeeeeejjjbbbmmmmmmmmmmmmmmmcjeeeeeeeeeejjbmmmmmmmmmmmmmmccjeeeeeeeeejjjjbmmmmmmmmmmmmmmccceeellkeeebbbmmmmmmmmmmmmmmmccccccccccccbbbmmmmmmmmmmmmmlllcccccccccccccllkmmmmmmmmllllmcccdccccccccccbmllllmmmmmmmm...mmmmmmmmmmmm.mmm.mmmmmmmmmmmmmmmmmmmmmmmmmmmmmmmmmmmmmmmmmmmmmmmmmmmmmmmmmmmmmmmmm",
"mmlllkcceeeejjjjjjjjjbbklllmmmmmmlllkcceeeejjjjjjjjjbbklllmmmmlllkcceeeejjjjjjjjjbbklllmmmmlkkmmcceeeejjjjjjjjjbbmmkklmmmmmmmmcceeeejjjjjjjjjbbmmmmmmmmmmmmmcceeeejjjjjjjjjbbmmmmmmmmmmmmmmcceeejjjjjjjjbbmmmmmmmmmmmmmmmcjeeejjjjjjjjjbmmmmmmmmmmmmmlllcjjjjjjjjjjjbllgmmmmmmmmmmmmmccccccllkcccbbbmmmmmmmmmmmmmmmmccccccccccbbbmmmmmmmmmmmmmmlllcccccccccccccllkmmmmmmmmkkllllcccccccccccccllllkkmmmmmmm.mmm.mmmmmmmmmmm.mmm.mmmmmmmmmmmmmmmmmmmmmmmmmmmmmmmmmmmmmmmmmmmmmmmmmmmmmmmmmmmmmmmmm",
"mmllkkcceeeeeeeeeejjjbbkkllmmmmmmllkkcceeeeeeeeeejjjbbkkllmmmmllkkcceeeeeeeeeejjjbbkkllmmmmlkmmmcceeeeeeeeeejjjbbmmmklmmmmmmmmcceeeeeeeeeejjjbbmmmmmmmmmmmmmcceeeeeeeeeejjjbbmmmmmmmmmmmmmmcceeeeeeeejjjbbmmmmmmmmmmmmmmmcjjeeeeeeeejjjbmmmmmmmmmmmmmllllccjjjjjjjbblllgmmmmmmmmmmmmmmcccccckccccbbmmmmmmmmmmmmmmmmmmccccccccbbbmmmmmmmmmmmmmmmmlllcccccccccccllkmmmmmmmmmmmkklllccccccccccclllkkmmmmmmmmm.mmm.mmmmmmmmmmm.mmm.mmmmmmmmmmmmmmmmmmmmmmmmmmmmmmmmmmmmmmmmmmmmmmmmmmmmmmmmmmmmmmmmm",
"mmkkkmcceeeeeeeeeejjjbbmkkkmmmmmmkkkmcceeeeeeeeeejjjbbmkkkmmmmkkkmcceeeeeeeeeejjjbbmkkkmmmmlkmmmcceeeeeeeeeejjjbbmmmklmmmmmmmmcceeeeeeeeeejjjbbmmmmmmmmmmmmmcceeeeeeeeeejjjbbmmmmmmmmmmmmmmccjeejjjjjjjjbbmmmmmmmmmmmmmmmccjjjjjjjjjjjbbmmmmmmmmmmmmmkkklllcjjjjjblllkkkmmmmmmmmmmmmmmcccccccccccbbmmmmmmmmmmmmmmmmmmmcccccbbbbmmmmmmmmmmmmmmmmmmlllcccccccccllkmmmmmmmmmmmmmmkkkkccccccccckkkkmmmmmmmmmmm.mmm.mmmmmmmmmmmm...mmmmmmmmmmaaammmmmmmmmmmmmmmmmmmmmmmmmmm###mmmmmmmmmmmmmmmmmmmmmmm",
"mmmkkmccjeejjjjjjjjjjbbmkkmmmmmmmmkkmccjeejjjjjjjjjjbbmkkmmmmmmkkmccjeejjjjjjjjjjbbmkkmmmmmmmmmmccjeejjjjjjjjjjbbmmmmmmmmmmmmmccjeejjjjjjjjjjbbmmmmmmmmmmmmmccjeejjjjjjjjjjbbmmmmmmmmmmmmmmccjjeeeeeejjjbbmmmmmmmmmmmmmlllcccjjjjjjjbbbllgmmmmmmmmmmmmmkkllcccccbbllkkmmmmmmmmmmmmmmmmmccccccccbbbmmmmmmmmmmmmmmmmmmmmmmlllllmmmmmmmmmmmmmmmmmmmmmmmmllllllkmmmmmmmmmmmmmmmmmmmmmmilllllkkgmmmmmmmmmmmmmmmm...mmmmmmmmmmmmmmmmmmmmmmmmmammmammmmmmmmmmmmmmmaaammmmmmm#mmm#mmmmmmmmmmmmmmm###mmmm",
"mmmmmmccbjeeeeeeeejjbbbmmmmmmmmmmmmmmccbjeeeeeeeejjbbbmmmmmmmmmmmmccbjeeeeeeeejjbbbmmmmmmmmmmmmmccbjeeeeeeeejjbbbmmmmmmmmmmmmmccbjeeeeeeeejjbbbmmmmmmmmmmmmmccbjeeeeeeeejjbbbmmmmmmmmmmmmmmccjjjeeeejjjjbbmmmmmmmmmmmmmllllllcjjjjjblllllgmmmmmmmmmmmmmmmkkbbbbbbbkkmmmmmmmmmmmmmmmmmmmmmccccbbbmmmmmmmmmmmmmmmmmmmmmmmmmmmmmmmmmmmmmmmmmmmmmmmmmmmmmmllkkkmmmmmmmmmmmmmmmmmmmmmmmlllllllkkmmmmmmmmmmmmmmmmmmmmmmmm.mmmmmmmmmmmmmmmmmmmammmammmmmmmmmmmmmmammmammmmmm#mmm#mmmmmmmmmmmmmm#mmm#mmm",
"mmmmmmmcbjjeeeeeejjjbbmmmmmmmmmmmmmmmmcbjjeeeeeejjjbbmmmmmmmmmmmmmmcbjjeeeeeejjjbbmmmmmmmmmmmmmmmcbjjeeeeeejjjbbmmmmmmmmmmmmmmmcbjjeeeeeejjjbbmmmmmmmmmmmmmmmcbjjeeeeeejjjbbmmmmmmmmmmmmmklllccjjjjjjjbblllkmmmmmmmmmmmkkklllcccccbblllkkkmmmmmmmmmmmmmmmmbbbllkbbbmmmmmmmmmmmmmmmmmmmmmmmmmmmmmmmmmmmmmmmmmmmmmmmmmmmmmmmmmmmmmmmmmmmmmmmmmmmmmmmmmmmmmmmmmmmmmmmmmmmmmmmmmmmmmmmmllllllkmmmmmmmmmmmmmmmmmmmmmmmm.m.mmmmmmmmmmmmmmmmmmammmammmmmmmmmmmmmmammmammmmmm#mmm#mmmmmmmmmmmmmm#mmm#mmm",
"mmmmmmmccbjjeeeejjjbbbmmmmmmmmmmmmmmmmccbjjeeeejjjbbbmmmmmmmmmmmmmmccbjjeeeejjjbbbmmmmmmmmmmmmmmmccbjjeeeejjjbbbmmmmmmmmmmmmmmmccbjjeeeejjjbbbmmmmmmmmmmmmmmmccbjjeeeejjjbbbmmmmmmmmmmmmmkkklllcjjjjjblllkkkmmmmmmmmmmmmmkkkkcccbbbbkkkkmmmmmmmmmmmmmmmmmmmmmmkmmmmmmmmmmmmmmmmmmmmmmmmmmmmmmmmmmmmmmmmmmmmmmmmmmmmmmmmmmmmmmmmmmmmmmmmmmmmmmmmmmmmmmmmmmmmmmmmmmmmmmmmmmmmmmmmmmmmmllllkmmmmmmmmmmmmmmmmmmmmmmmmmm.mmmmmmmmmmmmmmmmmmmmaaammmmmmmmmmmmmmmammmammmmmmm###mmmmmmmmmmmmmmm#mmm#mmm",
"mmmmmmmmcccjjjjjjjbbbmmmmmmmmmmmmmmmmmmcccjjjjjjjbbbmmmmmmmmmmmmmmmmcccjjjjjjjbbbmmmmmmmmmmmmmmmmmcccjjjjjjjbbbmmmmmmmmmmmmmmmmmcccjjjjjjjbbbmmmmmmmmmmmmmmmmmcccjjjjjjjbbbmmmmmmmmmmmmmmmmkkklcccccbblkkkmmmmmmmmmmmmmmmmmmbbbbbbbbbmmmmmmmmmmmmmmmmmmmmmmmmmmmmmmmmmmmmmmmmmmmmmmmmmmmmmmmmmmmmmmmmmmmmmmmmmmmmmmmmmmmmmmmmmmmmmmmmmmmmmmmmmmmmmmmmmmmmmmmmmmmmmmmmmmmmmmmmmmmmmmmmmmmmmmmmmmmmmmmmmmmmmmmmmmmmmmmmmmmmmmmmmmmmmmmmmmmmmmmmmmmmmmmmmmmmmmaaammmmmmmmmmmmmmmmmmmmmmmmmmm###mmmm",
"mmmmmmmlllccjjjjjbblllmmmmmmmmmmmmmmmmlllccjjjjjbblllmmmmmmmmmmmmmmlllccjjjjjbblllmmmmmmmmmmmmmmmlllccjjjjjbblllmmmmmmmmmmmmmmllllccjjjjjbbllllmmmmmmmmmmmklllllccjjjjjbblllllkmmmmmmmmmmmmmckkccccbbbkkbmmmmmmmmmmmmmmmmmmmmmmllkmmmmmmmmmmmmmmmmmmmmmmmmmmmmmmmmmmmmmmmmmmmmmmmmmmmmmmmmmmmmmmmmmmmmmmmmmmmmmmmmmmmmmmmmmmmmmmmmmmmmmmmmmmmmmmmmmmmmmmmmmmmmmmmmmmmmmmmmmmmmmmmmmmmmmmmmmmmmmmmmmmmmmmmmmmmmmmmmmmmmmmmmmmmmmmmmmmmmmmmmmmmmmmmmammmmmmmmmmmmmmmmmmmmmmmmmmmmm#mmmmmmmmmmmmmmm",
"mmmmmllllkccfbbbbbbkllllmmmmmmmmmmmmllllkccfbbbbbbkllllmmmmmmmmmmllllkccfbbbbbbkllllmmmmmmmmmmmllllkccfbbbbbbkllllmmmmmmmmmmkllllkccfbbbbbbkllllkmmmmmmmmmkkkkkkccfbbbbbbkkkkkkmmmmmmmmmmmmmmmccccbbbbbmmmmmmmmmmmmmmmmmmmmmmmmmkmmmmmmmmmmmmmmmmmmmmmmmmmmmmmmmmmmmmmmmmmmmmmmmmmmmmmmmmmmmmmmmmmmmmmmmmmmmmmmmmmmmmmmmmmmmmmmmmmmmmmmmmmmmmmmmmmmmmmmmmmmmmmmmmmmmmmmmmmmmmmmmmmmmmmmmmmmmmmmmmmmmmmmmmmmmmmmmmmmmmmmmmmmmmmmmmmmmmmmmmmmmmmmmmamammmmmmmmmmmmmmmmmmmmmmmmmmm#m#mmmmmmmmmmmmmm",
"mmmmklllkkcccccbbbbkklllkmmmmmmmmmmklllkkcccccbbbbkklllkmmmmmmmmklllkkcccccbbbbkklllkmmmmmmmmmklllkkcccccbbbbkklllkmmmmmmmmmkkkkkkcccccbbbbkkkkkkmmmmmmmmmmmmkkkcccccbbbbkkkmmmmmmmmmmmmmmmmmmmmmllkmmmmmmmmmmmmmmmmmmmmmmmmmmmmmmmmmmmmmmmmmmmmmmmmmmmmmmmmmmmmmmmmmmmmmmmmmmmmmmmmmmmmmmmmmmmmmmmmmmmmmmmmmmmmmmmmmmmmmmmmmmmmmmmmmmmmmmmmmmmmmmmmmmmmmmmmmmmmmmmmmmmmmmmmmmmmmmmmmmmmmmmmmmmmmmmmmmmmmmmmmmmmmmmmmmmmmmmmmmmmmmmmmmmmmmmmmmmmmmammmmmmmmmmmmmmmmmmmmmmmmmmmmm#mmmmmmmmmmmmmmm",
"mmmmkkkkkmmmmllkmmmmkkkkkmmmmmmmmmmkkkkkmmmmllkmmmmkkkkkmmmmmmmmkkkkkmmmmllkmmmmkkkkkmmmmmmmmmkkkkkmmmmllkmmmmkkkkkmmmmmmmmmmmmmmmmmmllkmmmmmmmmmmmmmmmmmmmmmmmmmmmllkmmmmmmmmmmmmmmmmmmmmmmmmmmmmkmmmmmmmmmmmmmmmmmmmmmmmmmmmmmmmmmmmmmmmmmmmmmmmmmmmmmmmmmmmmmmmmmmmmmmmmmmmmmmmmmmmmmmmmmmmmmmmmmmmmmmmmmmmmmmmmmmmmmmmmmmmmmmmmmmmmmmmmmmmmmmmmmmmmmmmmmmmmmmmmmmmmmmmmmmmmmmmmmmmmmmmmmmmmmmmmmmmmmmmmmmmmmmmmmmmmmmmmmmmmmmmmmmmmmmmmmmmmmmmmmmmmmmmmmmmmmmmmmmmmmmmmmmmmmmmmmmmmmmmmmmmmm",
"mmmmmmmmmmmmmmkmmmmmmmmmmmmmmmmmmmmmmmmmmmmmmkmmmmmmmmmmmmmmmmmmmmmmmmmmmmkmmmmmmmmmmmmmmmmmmmmmmmmmmmmmkmmmmmmmmmmmmmmmmmmmmmmmmmmmmmkmmmmmmmmmmmmmmmmmmmmmmmmmmmmmkmmmmmmmmmmmmmmmmmmmmmmmmmmmmmmmmmmmmmmmmmmmmmmmmmmmmmmmmmmmmmmmmmmmmmmmmmmmmmmmmmmmmmmmmmmmmmmmmmmmmmmmmmmmmmmmmmmmmmmmmmmmmmmmmmmmmmmmmmmmmmmmmmmmmmmmmmmmmmmmmmmmmmmmmmmmmmmmmmmmmmmmmmmmmmmmmmmmmmmmmmmmmmmmmmmmmmmmmmmmmmmmmmmmmmmmmmmmmmmmmmmmmmmmmmmmmmmmmmmmmmmmmmmmmmmmmmmmmmmmmmmmmmmmmmmmmmmmmmmmmmmmmmmmmmmmmmmm"
};
