/* XPM */
static char *climber_xpm[] = {
/* width height num_colors chars_per_pixel */
"   240    60        9            1",
/* colors */
". c #869116",
"# c #acb552",
"a c #dde492",
"b c #f5b757",
"c c #271c12",
"d c #9d653b",
"e c #bd845a",
"f c #e5bc9e",
"g c None",
/* pixels */
"ggggggggggggggggeeeggggggggggggggggggggggggggggeeeggggggggggggggggggggggggggeeeggggggggggggggggggggggggggeeeggggggggggggggggggggggggggggeeeggggggggggggggggggggggggggggeeeggggggggggggggggggggggggggeeeggggggggggggggggggggggggggeeegggggggggggg",
"gggggggggggggggeeeeeggggggggggggggggggggggggggeeeeeggggggggggggggggggggggggeeeeeggggggggggggggggggggggggeeeeeggggggggggggggggggggggggggeeeeeggggggggggggggggggggggggggeeeeeggggggggggggggggggggggggeeeeeggggggggggggggggggggggggeeeeeggggggggggg",
"ggggggggggggggdeeeeeeggggggggggggggggggggggggdeeeeeeggggggggggggggggggggggdeeeeeeggggggggggggggggggggggdeeeeeeggggggggggggggggggggggggdeeeeeeggggggggggggggggggggggggdeeeeeeggggggggggggggggggggggdeeeeeeggggggggggggggggggggggdeeeeeegggggggggg",
"ggggggggggggggdecceeeggggggggggggggggggggggggdecceeeggggggggggggggggggggggdecceeeggggggggggggggggggggggdecceeeggggggggggggggggggggggggdecceeeggggggggggggggggggggggggdecceeeggggggggggggggggggggggdecceeeggggggggggggggggggggggdecceeegggggggggg",
"ggggggggggggggdecceeeggggggggggggggggggggggggdecceeeggggggggggggggggggggggdecceeeggggggggggggggggggggggdecceeeggggggggggggggggggggggggdecceeeggggggggggggggggggggggggdecceeeggggggggggggggggggggggdecceeeggggggggggggggggggggggdecceeegggggggggg",
"ggggggggggggggdeeeeeeggggggggggggggggggggggggdeeeeeeggggggggggggggggggggggdeeeeeeggggggggggggggggggggggdeeeeeeggggggggggggggggggggggggdeeeeeeggggggggggggggggggggggggdeeeeeeggggggggggggggggggggggdeeeeeeggggggggggggggggggggggdeeeeeegggggggggg",
"gggggggeeeeeggddeeeeeggggggggggggggggggggggggddeeeeeggggggggggggggggggggggddeeeeeggggggggggggggggggggggddeeeeeggggggggggggggggggggggggddeeeeeggggggggggggggggggggggggddeeeeeggggggggggggggggggggggddeeeeeggggggggggggggggggggggddeeeeegggggggggg",
"ggggggdeeeeeegddeeeeeggggggggggggggggggggggggddeeeeeggggggggggggggggggggggddeeeeeggggggggggggggggggggggddeeeeeggggggggggggggggggggggggddeeeeeggggggggggggggggggggggggddeeeeeggggggggggggggggggggggddeeeeeggggggggggggggggggggggddeeeeegggggggggg",
"ggggggddddeeeefddeeeggggggggggggggggggeeeeegggddeeeggggggggggggggggggggggggddeeeggggggggggggggggggggggggddeeeggggggggggggggggggggggggggddeeeggggggggggggggggggggggggggddeeeggggggggggggggggggggggggddeeeggggggggggggggggggggggggdfffeggggggggggg",
"ggggggggdddeeebdd....ggggggggggggggggeeeeeeebbdd....gggggggggggggggggggggbbdd....gggggggggggggggggggggbbdd....gggggggggggggggggggggggbbdd....gggggggggggggggggggggggbbdd....gggggggggggggggggggggbbdd....gggggggggggggggggggggbbbeee..gggggggggg",
"gggggggggdddeebb....##ggggggggggggggeeeeeeeeebb....##ggggggggggggggeeeeeebbb....##gggggggggggggggggggbbbb....##gggggggggggggggggggggbbbb....##gggggggggggggggggggggbbbb....##gggggggggggggggggggbbbb....##gggggggggggggggggggbbbeeee.##ggggggggg",
"ggggggggggdddeb....###gggggggggggggedddddddeeb....###gggggggggggggeeeeeeeeb....###ggggggggggggggggggbbbb....###ggggggggggggggggggggbbbb....###ggggggggggggggggggggbbbb....###ggggggggggggggggggbbbb....###ggggggggggggggggggbbbeeeee###ggggggggg",
"gggggggggggddd....##a##ggggggggggggddgggggddd....##a##gggggggggggeeeeedddd....##a##ggggggggggggggeeeeee....##a##gggggggggggggggggggeee....##a##gggggggggggggggggggbbb....##a##gggggggggggggggggbbb....##a##gggggggggggggggggbeeeeedd#a##gggggggg",
"gggggggggggbb....###aa#ggggggggggggggggggbbb....###aa#gggggggggggeeeeddbb....###aa#gggggggggggggeeeedd....###aa#ggggggggggggggggggeee....###aa#ggggggggggggggggggbeee...###aa#ggggggggggggggggdeee...#eeaa#ggggggggggggggggbdeeeedd##aa#gggggggg",
"ggggggggggbb....#####a#ggggggggggggggggggbb....#####a#gggggggggggeeeddbb....#####a#ggggggggggggeeeedd....#####a#gggggggggggggggggeeee...#####a#ggggggggggggggggggeeeee.#####a#ggggggggggggggggddeeeeeeee#a#ggggggggggggggggbddeedd####a#gggggggg",
"ggggggggggbb....#####a#ggggggggggggggggggbb....#####a#gggggggggggeeddgbb....#####a#ggggggggggggeeeedb....#####a#ggggggggggggggggdeeee...#####a#ggggggggggggggggggdeeeee#####a#ggggggggggggggggbdeeeeeeee#a#ggggggggggggggggbbdddd#####a#gggggggg",
"ggggggggggbb...######a#ggggggggggggggggggbb...######a#gggggggggggeedggbb...######a#ggggggggggggeeeedb...######a#ggggggggggggggggdeeee..######a#ggggggggggggggggggddeeeeee###a#ggggggggggggggggbddeeeddd##a#ggggggggggggggggbb...######a#gggggggg",
"ggggggggggbb...######a#ggggggggggggggggggbb...######a#ggggggggggggedggbb...######a#ggggggggggggeeeddb...######a#ggggggggggggggggddeeee.######a#ggggggggggggggggggbddeeeeee##a#ggggggggggggggggbbddddd####a#ggggggggggggggggbb...######a#gggggggg",
"ggggggggggbb...########ggggggggggggggggggbb...########ggggggggggggggggbb...########gggggggggggggddddb...########gggggggggggggggggddeeee########ggggggggggggggggggbbddddddd####ggggggggggggggggbb...########ggggggggggggggggbb...########gggggggg",
"ggggggggggbb...#####a##ggggggggggggggggggbb...#####a##ggggggggggggggggbb...#####a##ggggggggggggggdddb...#####a##ggggggggggggggggggddeeee####a##ggggggggggggggggggbb...#####a##ggggggggggggggggbb...#####a##ggggggggggggggggbb...#####a##gggggggg",
"ggggggggggbb...########ggggggggggggggggggbb...########ggggggggggggggggbb...########ggggggggggggggggbb...########ggggggggggggggggggbddddd#######ggggggggggggggggggbb...########ggggggggggggggggbb...########ggggggggggggggggbb...########gggggggg",
"ggggggggggbb...########ggggggggggggggggggbb...########ggggggggggggggggbb...########ggggggggggggggggbb...########ggggggggggggggggggbb...########ggggggggggggggggggbb...########ggggggggggggggggbb...########ggggggggggggggggbb...########gggggggg",
"gggggggggdde....######ggggggggggggggggggdde....######ggggggggggggggggdde....######ggggggggggggggggdde....######ggggggggggggggggggdde....######ggggggggggggggggggdde....######ggggggggggggggggdde....######ggggggggggggggggdde....######ggggggggg",
"ggggggggddee....######gggggggggggggggggddee....######gggggggggggggggddee....######gggggggggggggggddee....######gggggggggggggggggddee....######gggggggggggggggggddee....######gggggggggggggggddee....######gggggggggggggggddee....######ggggggggg",
"ggggggggdeee....#####ggggggggggggggggggdeee....#####ggggggggggggggggdeee....#####ggggggggggggggggdeee....#####ggggggggggggggggggdeee....#####ggggggggggggggggggdeee....#####ggggggggggggggggdeee....#####ggggggggggggggggdeee....#####gggggggggg",
"ggggggggdeebb....###gggggggggggggggggggdeebb....###gggggggggggggggggdeebb....###gggggggggggggggggdeebb....###gggggggggggggggggggdeebb....###gggggggggggggggggggdeebb....###gggggggggggggggggdeebb....###gggggggggggggggggdeebb....###ggggggggggg",
"ggggggggdeegbd....#ggggggggggggggggggggdeegbd....#ggggggggggggggggggdeegbd....#ggggggggggggggggggdeegbd....#ggggggggggggggggggggdeegbd....#ggggggggggggggggggggdeegbd....#ggggggggggggggggggdeegbd....#ggggggggggggggggggdeegbd....#gggggggggggg",
"ggggggggdegggde..ggggggggggggggggggggggdegggde..ggggggggggggggggggggdegggde..ggggggggggggggggggggdegggde..ggggggggggggggggggggggdegggde..ggggggggggggggggggggggdegggde..ggggggggggggggggggggdegggde..ggggggggggggggggggggdegggde..gggggggggggggg",
"gggggggggggggdegggggggggggggggggggggggggggggdegggggggggggggggggggggggggggdegggggggggggggggggggggggggggdegggggggggggggggggggggggggggggdegggggggggggggggggggggggggggggdegggggggggggggggggggggggggggdegggggggggggggggggggggggggggdegggggggggggggggg",
"gggggggggggggdggggggggggggggggggggggggggggggdggggggggggggggggggggggggggggdggggggggggggggggggggggggggggdggggggggggggggggggggggggggggggdggggggggggggggggggggggggggggggdggggggggggggggggggggggggggggdggggggggggggggggggggggggggggdggggggggggggggggg",
"gggggggggggeeeggggggggggggggggggggggggggeeeggggggggggggggggggggggggggggeeeggggggggggggggggggggggggggggeeeggggggggggggggggggggggggggeeeggggggggggggggggggggggggggeeeggggggggggggggggggggggggggggeeeggggggggggggggggggggggggggggeeeggggggggggggggg",
"ggggggggggeeeeeggggggggggggggggggggggggeeeeeggggggggggggggggggggggggggeeeeeggggggggggggggggggggggggggeeeeeggggggggggggggggggggggggeeeeeggggggggggggggggggggggggeeeeeggggggggggggggggggggggggggeeeeeggggggggggggggggggggggggggeeeeegggggggggggggg",
"gggggggggeeeeeedggggggggggggggggggggggeeeeeedggggggggggggggggggggggggeeeeeedggggggggggggggggggggggggeeeeeedggggggggggggggggggggggeeeeeedggggggggggggggggggggggeeeeeedggggggggggggggggggggggggeeeeeedggggggggggggggggggggggggeeeeeedggggggggggggg",
"gggggggggeeeccedggggggggggggggggggggggeeeccedggggggggggggggggggggggggeeeccedggggggggggggggggggggggggeeeccedggggggggggggggggggggggeeeccedggggggggggggggggggggggeeeccedggggggggggggggggggggggggeeeccedggggggggggggggggggggggggeeeccedggggggggggggg",
"gggggggggeeeccedggggggggggggggggggggggeeeccedggggggggggggggggggggggggeeeccedggggggggggggggggggggggggeeeccedggggggggggggggggggggggeeeccedggggggggggggggggggggggeeeccedggggggggggggggggggggggggeeeccedggggggggggggggggggggggggeeeccedggggggggggggg",
"gggggggggeeeeeedggggggggggggggggggggggeeeeeedggggggggggggggggggggggggeeeeeedggggggggggggggggggggggggeeeeeedggggggggggggggggggggggeeeeeedggggggggggggggggggggggeeeeeedggggggggggggggggggggggggeeeeeedggggggggggggggggggggggggeeeeeedggggggggggggg",
"gggggggggeeeeeddggeeeeegggggggggggggggeeeeeddggggggggggggggggggggggggeeeeeddggggggggggggggggggggggggeeeeeddggggggggggggggggggggggeeeeeddggggggggggggggggggggggeeeeeddggggggggggggggggggggggggeeeeeddggggggggggggggggggggggggeeeeeddggggggggggggg",
"gggggggggeeeeeddgeeeeeedggggggggggggggeeeeeddggggggggggggggggggggggggeeeeeddggggggggggggggggggggggggeeeeeddggggggggggggggggggggggeeeeeddggggggggggggggggggggggeeeeeddggggggggggggggggggggggggeeeeeddggggggggggggggggggggggggeeeeeddggggggggggggg",
"ggggggggggeeeddfeeeeddddgggggggggggggggeeeddgggeeeeeggggggggggggggggggeeeddggggggggggggggggggggggggggeeeddggggggggggggggggggggggggeeeddggggggggggggggggggggggggeeeddggggggggggggggggggggggggggeeeddggggggggggggggggggggggggggefffdgggggggggggggg",
"ggggggggg....ddbeeedddgggggggggggggggg....ddbbeeeeeeegggggggggggggggg....ddbbggggggggggggggggggggggg....ddbbggggggggggggggggggggg....ddbbggggggggggggggggggggg....ddbbggggggggggggggggggggggg....ddbbggggggggggggggggggggggg..eeebbbgggggggggggg",
"gggggggg##....bbeedddgggggggggggggggg##....bbeeeeeeeeegggggggggggggg##....bbbeeeeeegggggggggggggggg##....bbbbggggggggggggggggggg##....bbbbggggggggggggggggggg##....bbbbggggggggggggggggggggg##....bbbbggggggggggggggggggggg##.eeeebbbggggggggggg",
"gggggggg###....bedddggggggggggggggggg###....beedddddddeggggggggggggg###....beeeeeeeeggggggggggggggg###....bbbbgggggggggggggggggg###....bbbbgggggggggggggggggg###....bbbbgggggggggggggggggggg###....bbbbgggggggggggggggggggg###eeeeebbbgggggggggg",
"ggggggg##a##....dddggggggggggggggggg##a##....dddgggggddgggggggggggg##a##....ddddeeeeeggggggggggggg##a##....eeeeeegggggggggggggg##a##....eeeggggggggggggggggg##a##....bbbggggggggggggggggggg##a##....bbbggggggggggggggggggg##a#ddeeeeebgggggggggg",
"ggggggg#aa###....bbggggggggggggggggg#aa###....bbbgggggggggggggggggg#aa###....bbddeeeeggggggggggggg#aa###....ddeeeeggggggggggggg#aa###....eeegggggggggggggggg#aa###...eeebgggggggggggggggggg#aaee#...eeedgggggggggggggggggg#aa##ddeeeedbggggggggg",
"ggggggg#a#####....bbgggggggggggggggg#a#####....bbgggggggggggggggggg#a#####....bbddeeeggggggggggggg#a#####....ddeeeegggggggggggg#a#####...eeeeggggggggggggggg#a#####.eeeeegggggggggggggggggg#a#eeeeeeeeddgggggggggggggggggg#a####ddeeddbggggggggg",
"ggggggg#a#####....bbgggggggggggggggg#a#####....bbgggggggggggggggggg#a#####....bbgddeeggggggggggggg#a#####....bdeeeegggggggggggg#a#####...eeeedgggggggggggggg#a#####eeeeedgggggggggggggggggg#a#eeeeeeeedbgggggggggggggggggg#a#####ddddbbggggggggg",
"ggggggg#a######...bbgggggggggggggggg#a######...bbgggggggggggggggggg#a######...bbggdeeggggggggggggg#a######...bdeeeegggggggggggg#a######..eeeedgggggggggggggg#a###eeeeeeddgggggggggggggggggg#a##dddeeeddbgggggggggggggggggg#a######...bbggggggggg",
"ggggggg#a######...bbgggggggggggggggg#a######...bbgggggggggggggggggg#a######...bbggdegggggggggggggg#a######...bddeeegggggggggggg#a######.eeeeddgggggggggggggg#a##eeeeeeddbgggggggggggggggggg#a####dddddbbgggggggggggggggggg#a######...bbggggggggg",
"ggggggg########...bbgggggggggggggggg########...bbgggggggggggggggggg########...bbgggggggggggggggggg########...bddddggggggggggggg########eeeeddggggggggggggggg####dddddddbbgggggggggggggggggg########...bbgggggggggggggggggg########...bbggggggggg",
"ggggggg##a#####...bbgggggggggggggggg##a#####...bbgggggggggggggggggg##a#####...bbgggggggggggggggggg##a#####...bdddgggggggggggggg##a####eeeeddgggggggggggggggg##a#####...bbgggggggggggggggggg##a#####...bbgggggggggggggggggg##a#####...bbggggggggg",
"ggggggg########...bbgggggggggggggggg########...bbgggggggggggggggggg########...bbgggggggggggggggggg########...bbgggggggggggggggg#######dddddbgggggggggggggggg########...bbgggggggggggggggggg########...bbgggggggggggggggggg########...bbggggggggg",
"ggggggg########...bbgggggggggggggggg########...bbgggggggggggggggggg########...bbgggggggggggggggggg########...bbgggggggggggggggg########...bbgggggggggggggggg########...bbgggggggggggggggggg########...bbgggggggggggggggggg########...bbggggggggg",
"gggggggg######....eddgggggggggggggggg######....eddgggggggggggggggggg######....eddgggggggggggggggggg######....eddgggggggggggggggg######....eddgggggggggggggggg######....eddgggggggggggggggggg######....eddgggggggggggggggggg######....eddgggggggg",
"gggggggg######....eeddggggggggggggggg######....eeddggggggggggggggggg######....eeddggggggggggggggggg######....eeddggggggggggggggg######....eeddggggggggggggggg######....eeddggggggggggggggggg######....eeddggggggggggggggggg######....eeddggggggg",
"ggggggggg#####....eeedgggggggggggggggg#####....eeedgggggggggggggggggg#####....eeedgggggggggggggggggg#####....eeedgggggggggggggggg#####....eeedgggggggggggggggg#####....eeedgggggggggggggggggg#####....eeedgggggggggggggggggg#####....eeedggggggg",
"gggggggggg###....bbeedggggggggggggggggg###....bbeedggggggggggggggggggg###....bbeedggggggggggggggggggg###....bbeedggggggggggggggggg###....bbeedggggggggggggggggg###....bbeedggggggggggggggggggg###....bbeedggggggggggggggggggg###....bbeedggggggg",
"ggggggggggg#....dbgeedgggggggggggggggggg#....dbgeedgggggggggggggggggggg#....dbgeedgggggggggggggggggggg#....dbgeedgggggggggggggggggg#....dbgeedgggggggggggggggggg#....dbgeedgggggggggggggggggggg#....dbgeedgggggggggggggggggggg#....dbgeedggggggg",
"ggggggggggggg..edgggedgggggggggggggggggggg..edgggedgggggggggggggggggggggg..edgggedgggggggggggggggggggggg..edgggedgggggggggggggggggggg..edgggedgggggggggggggggggggg..edgggedgggggggggggggggggggggg..edgggedgggggggggggggggggggggg..edgggedggggggg",
"gggggggggggggggedgggggggggggggggggggggggggggedgggggggggggggggggggggggggggggedgggggggggggggggggggggggggggggedgggggggggggggggggggggggggggedgggggggggggggggggggggggggggedgggggggggggggggggggggggggggggedgggggggggggggggggggggggggggggedgggggggggggg",
"ggggggggggggggggdggggggggggggggggggggggggggggdggggggggggggggggggggggggggggggdggggggggggggggggggggggggggggggdggggggggggggggggggggggggggggdggggggggggggggggggggggggggggdggggggggggggggggggggggggggggggdggggggggggggggggggggggggggggggdgggggggggggg"
};
