/* XPM */
static char *explosion_xpm[] = {
/* width height num_colors chars_per_pixel */
"    64    64        3            1",
/* colors */
". c #8dcff4",
"# c #ffff00",
"a c None",
/* pixels */
"aaaaaaaaaaaaaaaaaaaaaaaaaaaaaaaaaaaaaaaaaaaaaaaaaaaaaaaaaaaaaaaa",
"aaaaaaaaaaaaaaaaaaaaaaaaaaaaaaaaaaaaaaaaaaaaaaaaaaaaaaaaaaaaaaaa",
"aaaaaaaaaaaaaaaaaaaaaaaaaaaaaaaaaaaaaaaaaaaaaaaaaaaaaaaaaaaaaaaa",
"aaaaaaaaaaaaaaaaaaaaaaaaaaaaaaaaaaaaaaaaaaaaaaaaaaaaaaaaaaaaaaaa",
"aaaaaaaaaaaaaaaaaaaaaaaaaaaaaaaaaaaaaaaaaaaaaaaaa.....aaaaaaaaaa",
"aaaaaaaaaa.....aaaaaaaaaaaaaaaaaaaaaaaaaaaaaaaa..aaaaa..aaaaaaaa",
"aaaaaaaa..aaaaa..aaaaaaaaaaaaaaaaaaaaaaaaaaaaa.aaaaaaaaa.aaaaaaa",
"aaaaaaa.aaaaaaaaa.aaaaaaaaaaaaaaaaaaaaaaaaaaaa.aaaaaaaaa.aaaaaaa",
"aaaaaa.aaaaaaaaaaa.aaaaaaaaaaaaaaaaaaaaaaaaaa.aaaaaaaaaaa.aaaaaa",
"aaaaaa.aaaaaaaaaaa.aaaaaaaaaaaaaaaaaaaaaaaaaa.aa.aaaaaaaa.aaaaaa",
"aaaaa.aa.aaaaaaaaaa.aaaaaaaaaaaaaaaaaaaaaaaaa.aa.aaaaaaaa.aaaaaa",
"aaaaa.aa.aaaaaaaaaa.aaaaaaaaaaaaaaaaaaaaaaaaa.aa.aaaaaaaa.aaaaaa",
"aaaaa.aa.aaaaaaaaaa.aaaaaaaaaaaaaaaaaaaaaaaaa.aaa.aaaaaaa.aaaaaa",
"aaaaa.aa.aaaaaaaaa......aaaaaaaaaaaaaaaaaaaaaa.aaaa.aaaa.aaaaaaa",
"aaaaa.aaaaaaaaaa..a.aaaa..aaaaaaaaaaaaaaaaaaaa.aaaaaaaaa.aaaaaaa",
"aaaaaa.aa.aaaa..aa.aaaaaaa..aaaaaaaaaaaaaaaaaaa..aaaaa..aaaaaaaa",
"aaaaaa.aaaaaa.aaaa.aaaaaaaaa.aaaaaaaaaaaaaaaaaaaa.....aaaaaaaaaa",
"aaaaaaa.aaaaa.aaa.aaaaaaaaaa.aaaaaaaaaaaaaaaaaaaaaaaaaaaaaaaaaaa",
"aaaaaaaa..aa.aa..aaaaaaaaaaaa.aaaaaaaaa#aaaaaaaaaaaaaaaaaaaaaaaa",
"aaaaaaaaaa.....aaaaaaaaaaaaaa.aaaaaaaaa#aaaaaaaaaaaaaaaaaaaaaaaa",
"aaaaaaaaaaa.aaaaaaaaaaaaaaaaaa.aaaaa#aa#aa#aaaaaaaaaaaaaaaaaaaaa",
"aaaaaaaaaaa.aaaaaaaaaaaaaaaaaa.aaaaaa#a#a#aaaaaaaaaaaaaaaaaaaaaa",
"aaaaaaaaaaa.aaaaaaaaaaaaaaaaaa.aaaaaaa###aaaaaaaaaaaaaaaaaaaaaaa",
"aaaaaaaaaaa.aaaaaaaaaaaaaaaaaa.aaaa##########aaaaaaaaaaaaaaaaaaa",
"aaaaaaaaaaa.aaa.aaaaaaaaaaaaaa.aaaaaaa###aaaaaaaaaaaaaaaaaaaaaaa",
"aaaaaaaaaaa.aaa.aaaaaaaaaaaaaa.aaaaaa#a#a#aaaaaaaaaaaaaaaaaaaaaa",
"aaaaaaaaaaaa.aa.aaaaaaaaaaaaa.aaaaaaaaa#aa#aaaaaaaaaaaaaaaaaaaaa",
"aaaaaaaaaaaa.aaa.aaaaaaaaaaaa.aaaaaaaaa#aaaaaaaaaaaaaaaaaaaaaaaa",
"aaaaaaaaaaaaa.aaa.aaaaaaaaaa.aaaaaaaaaaaaaaaaaaaaaaaaaaaaaaaaaaa",
"aaaaaaaaaaaaa.aaaaaa.aaaaaaa.aaaaaaaaaaaaaaaaaaaaaaaaaaaaaaaaaaa",
"aaaaaaaaaaaaaa..aaaaaaaaaa..aaaaaaaaaaaaaaaaaaaaaaaaaaaaaaaaaaaa",
"aaaaaaaaaa#aaaaa..aaaaaa..aaaaaaaaaaaaaaaaaaaaaaaaaaaaaaaaaaaaaa",
"aaaaaaaaaa#aaaaaaa......aaaaaaaaaaaaaaaaaaaaaaaaa.....aaaaaaaaaa",
"aaaaaaaaaa#aaaaaaaaaaaaaaaaaaaaaaaaaaaaaaaaaaaa..aaaaa..aaaaaaaa",
"aaaaaaa#aa#aa#aaaaaaaaaaaaaaaaaaaaaaaaaaaaaaaa.aaaaaaaaa.aaaaaaa",
"aaaaaaaa#a#a#aaaaaaaaaaaaaaaaaaaaaaaaaaaaaaaaa.aa.aaaaaa.aaaaaaa",
"aaaaaaaaa###aaaaaaaaaaaaaaaaaaaaaaaaaaaaaaaaa.aa.aaaaaaaa.aaaaaa",
"aaaaa##########aaaaaaaaaaaaaaaaaaaaaaaaaaaaaa.aa.aaaaaaaa.aaaaaa",
"aaaaaaaaa###aaaaaaaaaaaaaaaaaaaaaaaaaaaaaaaaa.aaaaaaaaaaa.aaaaaa",
"aaaaaaaa#a#a#aaaaaaaaaaaaaaaaaaaaaaaaaaaaaaaa.aaaaaaaaaaa.aaaaaa",
"aaaaaaa#aa#aa#aaaaaaaaaaaaaaaaaaaaaaaaaaaaaaa.aaa....aaaa.aaaaaa",
"aaaaaa#aaa#aaaaaaaaaaaaaaaaaaaaaaaaaaaaaaaaaaa...aaaa..a.aaaaaaa",
"aaaaaaaaaa#aaaaaaaaaaaaaaaaaaaaaaaaaaaaaaaaaaa.aaaaaaaa..aaaaaaa",
"aaaaaaaaaa#aaaaaaaaaaaaaaaaaaaaaaaaaaaaaaaaaaa...aaaaa..aaaaaaaa",
"aaaaaaaaaa#aaaaaaaaaaaaaaaaaaaaaaaaaaaaaaaaaa.aaa.....aa.aaaaaaa",
"aaaaaaaaaaaaaaaaaaaaaaaaaaaaaaaaaaaaaaaaaaaaa.aaaaaaaaaa.aaaaaaa",
"aaaaaaaaaaaaaaaaaaaaaaaaaaaaaaaaaaaaaaaaaaaaa.aa.aaaaaaa.aaaaaaa",
"aaaaaaaaaaaa.....aaaaaaaaaaaaaaaaaaaaaaaaaaaa.aa.aaaaaaa.aaaaaaa",
"aaaaaaaaaa..aaaaa..aaaaaaaaaaaaaaaaaaaaaa#aaaa.aa.aaaaa.aaaaaaaa",
"aaaaaaaaa.aaa.aaaaa.aaaaaaaaaaaaaaaaaaaaa#aaaa.aaaaaaaa.aaaaaaaa",
"aaaaaaaaa.aa.aaaaaa.aaaaaaaaaaaaaaaaaaaaa#aaaaa..aaaa..aaaaaaaaa",
"aaaaaaaa.aaaaaaaaaaa.aaaaaaaaaaaaaaaaaa#a#a#aaaaa....aaaaaaaaaaa",
"aaaaaaaa.aa.aaaaaaaa.aaaaaaaaaaaaaaaaaaa###aaaaaaaaaaaaaaaaaaaaa",
"aaaaaaaa.aa.aaaaaaaa.aaaaaaaaaaaaaaaa#########aaaaaaaaaaaaaaaaaa",
"aaaaaaaa.aa.aaaaaaaa.aaaaaaaaaaaaaaaaaaa###aaaaaaaaaaaaaaaaaaaaa",
"aaaaaaaa.aaaaaaaaaaa.aaaaaaaaaaaaaaaaaa#a#a#aaaaaaaaaaaaaaaaaaaa",
"aaaaaaaaa.aaaaaaaaa.aaaaaaaaaaaaaaaaaaaaa#aa#aaaaaaaaaaaaaaaaaaa",
"aaaaaaaaa.aaaaaaaaa.aaaaaaaaaaaaaaaaaaaaa#aaaaaaaaaaaaaaaaaaaaaa",
"aaaaaaaaaa..aaaaa..aaaaaaaaaaaaaaaaaaaaaa#aaaaaaaaaaaaaaaaaaaaaa",
"aaaaaaaaaaaa.....aaaaaaaaaaaaaaaaaaaaaaaaaaaaaaaaaaaaaaaaaaaaaaa",
"aaaaaaaaaaaaaaaaaaaaaaaaaaaaaaaaaaaaaaaaaaaaaaaaaaaaaaaaaaaaaaaa",
"aaaaaaaaaaaaaaaaaaaaaaaaaaaaaaaaaaaaaaaaaaaaaaaaaaaaaaaaaaaaaaaa",
"aaaaaaaaaaaaaaaaaaaaaaaaaaaaaaaaaaaaaaaaaaaaaaaaaaaaaaaaaaaaaaaa",
"aaaaaaaaaaaaaaaaaaaaaaaaaaaaaaaaaaaaaaaaaaaaaaaaaaaaaaaaaaaaaaaa"
};
