/* XPM */
static char *faller_xpm[] = {
/* width height num_colors chars_per_pixel */
"   240    30        9            1",
/* colors */
". c #869116",
"# c #acb552",
"a c #f5b757",
"b c #b3864d",
"c c #271c12",
"d c #fc8c3a",
"e c #9d653b",
"f c #bd845a",
"g c None",
/* pixels */
"gggggggggggggggggggggggggggggggggggggggggggggggggggggggggggggggggggggggggggggggggggggggggggggggggggggggggggggggggggggggggggggggggggggggggggggggggggggggggggggggggggggggggggggggggggggggggggggggggggggggggggggggggggggggggggggggggggggggggggggggg",
"gggggggggggggggggggggggggggggggggggggggggggggggggggggggggggggggggggggggggggggggggggggggggggggggggggggggggggggggggggggggggggggggggggggggggggggggggggggggggggggggggggggggggggggggggggggggggggggggggggggggggggggggggggggggggggggggggggggggggggggggg",
"ggggggggggggfffffgggggggggggggggggggggggggggggggggggggggggggggggggggggggggggggggggggggggggggggggggggggggggggggggggggggggggggggggggggggggggggggggggggggggggggggggggggggggggggggggggggggggggggggggfffffgggggggggggggggggggggggggfffffggggggggggggg",
"ggggggggggfffffffffgggggggggggggggggggggggfffffgggggggggggggggggggggggggggggggggggggggggggggggggggggggggggggggggggggggggggggggggggggggggggggggggggggggggggggggggggfffffgggggggggggggggggggggggfffffffffgggggggggggggggggggggfffffffffggggggggggg",
"ggggggggggfffffffffgggggggggggggggggggggfffffffffgggggggggggggggggggggggfffffggggggggggggggffffgggggggfffffgggggggffffggggggggggggggfffffgggggggggggggggggggggggfffffffffgggggggggggggggggggggfffffffffgggggggggggggggggggggfffffffffggggggggggg",
"gggggggggffffffffffeggggggggggggggggggggfffffffffgggggggggggggggggggggfffffffffgggggggggggffffffggggfffffffffggggffffffgggggggggggfffffffffgggggggggggggggggggggfffffffffggggggggggggggggggggffffffffffegggggggggggggggggggffffffffffegggggggggg",
"gggggggggfccfffffcceggggggggggggfffffggffffffffffeggfffffggggffffgggggfffffffffgggggffffggeeeffffgggfffffffffgggffffeeeggffffgggggfffffffffgggggffffggggfffffggffffffffffeggfffffggggggggggggfccfffffccegggggggggggggggggggfccfffffccegggggggggg",
"gggggggggfccfffffccegggggggggggfffffffgfccfffffccegfffffffggfffffffggffffffffffeggfffffffggggeefffgffffffffffegfffeeggggfffffffggffffffffffeggfffffffggfffffffgfccfffffccegfffffffgggggggggggfccfffffccegggggggggggggggggggfccfffffccegggggggggg",
"ggggggggggffffffffegggggggggggffffffffffccfffffccefffffffffgeeefffffgfccfffffccegfffffeeeggggggeffgfccfffffccegffeggggggeeefffffgfccfffffccegfffffeeegffffffffffccfffffccefffffffffgggggggggggffffffffegggggggggggggggggggggffffffffeggggggggggg",
"gggfffffg#ffffffeee.gfffffggggeeeeeeeff#ffffffffe.ffeeeeeeeggggeefffffccfffffcceffffeeggggggggggefffccfffffcceffeggggggggggeefffffccfffffcceffffeeggggeeeeeeeff#ffffffffe.ffeeeeeeeggggfffffg#ffffffeee.gfffffggggggggggggg#ffffffeee.gggggggggg",
"ggfffffff#aaeeeeedd.fffffffgggggggggeee#ffffffeee.eeeggggggggggggeeff#ffffffffe.ffeeggggggggggggeef#ffffffffe.feeggggggggggggeeff#ffffffffe.ffeeggggggggggggeee#ffffffeee.eeegggggggggfffffff#aaeeeeedd.fffffffgggggggfffff#aaeeeeedd.fffffggggg",
"gffffeeeeaaaadddddddeeeeffffggggggggg##aaaeeeeeddd..ggggggggggggggeeeaffffffeeedeeegggggggggggggg#eaffffffeeede.ggggggggggggggeeeaffffffeeedeeegggggggggggggg##aaaeeeeeddd..gggggggggffffeeeeaaaadddddddeeeeffffgggggfffee#aaaaddddddd.eefffgggg",
"gfffeeg##aaaaaaaaddd..geefffggggggggg##aaaaaaaaddd..ggggggggggggggg##aaaeeeeeddd..ggggggggggggggg##aaaeeeeeddd..ggggggggggggggg##aaaeeeeeddd..ggggggggggggggg##aaaaaaaaddd..gggggggggfffeeg##aaaaaaaaddd..geefffggggfffee##aaaaaaaaddd..eefffggg",
"gffeeg###aaaaaaaaddd...geeffgggggggg###aaaaaaaaddd...ggggggggggggg###aaaaaaaaddd...ggggggggggggg###aaaaaaaaddd...ggggggggggggg###aaaaaaaaddd...ggggggggggggg###aaaaaaaaddd...ggggggggffeeg###aaaaaaaaddd...geeffggggfffe###aaaaaaaaddd...efffggg",
"gfeegg##aaaaddddddddd..ggeefgggggggg##aaaaddddddddd..ggggggggggggg##aaaaddddddddd..ggggggggggggg##aaaaddddddddd..ggggggggggggg##aaaaddddddddd..ggggggggggggg##aaaaddddddddd..ggggggggfeegg##aaaaddddddddd..ggeefggggfffe##aaaaddddddddd..efffggg",
"gfeggg##aaaaaaaaaaddd..gggefgggggggg##aaaaaaaaaaddd..ggggggggggggg##aaaaaaaaaaddd..ggggggggggggg##aaaaaaaaaaddd..ggggggggggggg##aaaaaaaaaaddd..ggggggggggggg##aaaaaaaaaaddd..ggggggggfeggg##aaaaaaaaaaddd..gggefggggffee##aaaaaaaaaaddd..eeffggg",
"gfeggg##aaaaaaaaaaddd..gggefgggggggg##aaaaaaaaaaddd..ggggggggggggg##aaaaaaaaaaddd..ggggggggggggg##aaaaaaaaaaddd..ggggggggggggg##aaaaaaaaaaddd..ggggggggggggg##aaaaaaaaaaddd..ggggggggfeggg##aaaaaaaaaaddd..gggefggggeeeg##aaaaaaaaaaddd..geeeggg",
"gggggg##daadddddddddd..ggggggggggggg##daadddddddddd..ggggggggggggg##daadddddddddd..ggggggggggggg##daadddddddddd..ggggggggggggg##daadddddddddd..ggggggggggggg##daadddddddddd..ggggggggggggg##daadddddddddd..ggggggggggeeg##daadddddddddd..geegggg",
"gggggg##.daaaaaaaadd...ggggggggggggg##.daaaaaaaadd...ggggggggggggg##.daaaaaaaadd...ggggggggggggg##.daaaaaaaadd...ggggggggggggg##.daaaaaaaadd...ggggggggggggg##.daaaaaaaadd...ggggggggggggg##.daaaaaaaadd...ggggggggggggg##.daaaaaaaadd...ggggggg",
"ggggggg#.ddaaaaaaddd..ggggggggggggggg#.ddaaaaaaddd..ggggggggggggggg#.ddaaaaaaddd..ggggggggggggggg#.ddaaaaaaddd..ggggggggggggggg#.ddaaaaaaddd..ggggggggggggggg#.ddaaaaaaddd..ggggggggggggggg#.ddaaaaaaddd..ggggggggggggggg#.ddaaaaaaddd..gggggggg",
"ggggggg##.ddaaaaddd...ggggggggggggggg##.ddaaaaddd...ggggggggggggggg##.ddaaaaddd...ggggggggggggggg##.ddaaaaddd...ggggggggggggggg##.ddaaaaddd...ggggggggggggggg##.ddaaaaddd...ggggggggggggggg##.ddaaaaddd...ggggggggggggggg##.ddaaaaddd...gggggggg",
"gggggggg###ddddddd...ggggggggggggggggg###ddddddd...ggggggggggggggggg###ddddddd...gggggggggggggefff###ddddddd...fffeggggggggggggg###ddddddd...ggggggggggggggggg###ddddddd...ggggggggggggggggg###ddddddd...ggggggggggggggggg###ddddddd...ggggggggg",
"gggggggfff##ddddd..fffggggggggggggggffff##ddddd..ffffgggggggggggefffff##ddddd..fffffegggggggggeeefff##ddddd..fffeeegggggggggefffff##ddddd..fffffegggggggggggffff##ddddd..ffffggggggggggggggfff##ddddd..fffgggggggggggggggfff##ddddd..fffgggggggg",
"gggggffffe##b......effffggggggggggeffffe##b......effffegggggggggeeeeee##b......eeeeeegggggggggggeeef##b......feeegggggggggggeeeeee##b......eeeeeegggggggggeffffe##b......effffeggggggggggffffe##b......effffgggggggggggffffe##b......effffgggggg",
"ggggefffee#####....eefffegggggggggeeeeee#####....eeeeeeggggggggggggeee#####....eeeggggggggggggggggee#####....eeggggggggggggggggeee#####....eeeggggggggggggeeeeee#####....eeeeeegggggggggefffee#####....eefffegggggggggefffee#####....eefffeggggg",
"ggggeeeeeggggffeggggeeeeeggggggggggggggggggffegggggggggggggggggggggggggggffegggggggggggggggggggggggggggffegggggggggggggggggggggggggggffegggggggggggggggggggggggggggffeggggggggggggggggggeeeeeggggffeggggeeeeegggggggggeeeeeggggffeggggeeeeeggggg",
"ggggggggggggggegggggggggggggggggggggggggggggegggggggggggggggggggggggggggggegggggggggggggggggggggggggggggegggggggggggggggggggggggggggggegggggggggggggggggggggggggggggegggggggggggggggggggggggggggggegggggggggggggggggggggggggggggeggggggggggggggg",
"gggggggggggggggggggggggggggggggggggggggggggggggggggggggggggggggggggggggggggggggggggggggggggggggggggggggggggggggggggggggggggggggggggggggggggggggggggggggggggggggggggggggggggggggggggggggggggggggggggggggggggggggggggggggggggggggggggggggggggggggg",
"gggggggggggggggggggggggggggggggggggggggggggggggggggggggggggggggggggggggggggggggggggggggggggggggggggggggggggggggggggggggggggggggggggggggggggggggggggggggggggggggggggggggggggggggggggggggggggggggggggggggggggggggggggggggggggggggggggggggggggggggg",
"gggggggggggggggggggggggggggggggggggggggggggggggggggggggggggggggggggggggggggggggggggggggggggggggggggggggggggggggggggggggggggggggggggggggggggggggggggggggggggggggggggggggggggggggggggggggggggggggggggggggggggggggggggggggggggggggggggggggggggggggg"
};
