/* XPM */
static char *floater_xpm[] = {
/* width height num_colors chars_per_pixel */
"   240    30       11            1",
/* colors */
". c #1a6abc",
"# c #6a9ed4",
"a c #869116",
"b c #acb552",
"c c #f5b757",
"d c #b3864d",
"e c #271c12",
"f c #fc8c3a",
"g c #9d653b",
"h c #bd845a",
"i c None",
/* pixels */
"iiiiiiiiiiiiiiiiiiiiiiiiiiiiiiiiiiiiiiiiiiiiiiiiiiiiiiiiiiiiiiiiiiiiiiiiii..iiiiiiiiiiiiiiiiiiiiiiiiiiiiiiiiiiiiiiiiiiiiiiiiiiiiiiiiiiiiiiiiiiiiiiiiiiiiiiiiiiiiiiiiiiiiiiiiiiiiiiiiiiiiiiiiiii..iiiiiiiiiiiiiiiiiiiiiiiiiiiiiiiiiiiiiiiiiiiiiii",
"iiiiiiiiiiiiiiiiiiiiiiiiiiiiiiiiiiiiiiii....iiiiiiiiiiiiiiiiiiiiiiiiiiiiii...iiiiiiiiiiiiiiiiiiiiiiiiiiiiiii....iiiiiiiiiiiiiiiiiiiiiiiiiiiiiiiiiiiiiiiiiiiiiii....iiiiiiiiiiiiiiiiiiiiiiiiiiii...iiiiiiiiiiiiiiiiiiiiiiiiiiiiiiii....iiiiiiiiii",
"iiiiiiii...iiiiiiiiiiiiiiiiiiiiiiiiiiiiiii.....iiiiiiiiiiiiiiiiiiiiiiiiiiii..iiiiiiiiiiiiiiiiiiiiiiiiiiii.....iiiiiiiiiiiiiiiiiii...iiiiiiiiiiiiiiiiiiiiiiiiiiiii.....iiiiiiiiiiiiiiiiiiiiiiiiii..iiiiiiiiiiiiiiiiiiiiiiiiiiiii.....iiiiiiiiiiii",
"iiiiiiii......#......iiiiiiiiiiiiiiiiiiiiiiii#....iiiiiiiiiiiiiiiiiiiiiiiiii#.iiiiiiiiiiiiiiiiiiiiiiii....#iiiiiiiiiiiiiiiiiiiiii......#......iiiiiiiiiiiiiiiiiiiiii#....iiiiiiiiiiiiiiiiiiiiiiii#.iiiiiiiiiiiiiiiiiiiiiiiii....#iiiiiiiiiiiiiii",
"iiiiiiiiiiiiii.iii...iiiiiiiiiiiiiiiiiiiiiiii.iii...iiiiiiiiiiiiiiiiiiiiiiii...iiiiiiiiiiiiiiiiiiiii...iii.iiiiiiiiiiiiiiiiiiiiiiiiiiii.iii...iiiiiiiiiiiiiiiiiiiiii.iii...iiiiiiiiiiiiiiiiiiiiii...iiiiiiiiiiiiiiiiiiiiii...iii.iiiiiiiiiiiiiii",
"iiiiiiiiiiiihhhhhiiiiiiiiiiiiiiiiiiiiiiiiiihhhhhiiiiiiiiiiiiiiiiiiiiiiiiiihhhhhiiiiiiiiiiiiiiiiiiiiiiiiihhhhhiiiiiiiiiiiiiiiiiiiiiiiihhhhhiiiiiiiiiiiiiiiiiiiiiiiihhhhhiiiiiiiiiiiiiiiiiiiiiiiihhhhhiiiiiiiiiiiiiiiiiiiiiiiiiihhhhhiiiiiiiiiiiii",
"iiiiiiiiiihhhhhhhhhiiiiiiiiiiiiiiiiiiiiiihhhhhhhhhiiiiiiiiiiiiiiiiiiiiiihhhhhhhhhiiiiiiiiiiiiiiiiiiiiihhhhhhhhhiiiiiiiiiiiiiiiiiiiihhhhhhhhhiiiiiiiiiiiiiiiiiiiihhhhhhhhhiiiiiiiiiiiiiiiiiiiihhhhhhhhhiiiiiiiiiiiiiiiiiiiiiihhhhhhhhhiiiiiiiiiii",
"iiiiiiiiiihhhhhhhhhiiiiiiiiiiiiiiiiiiiiiihhhhhhhhhiiiiiiiiiiiiiiiiiiiiiihhhhhhhhhiiiiiiiiiiiiiiiiiiiiihhhhhhhhhiiiiiiiiiiiiiiiiiiiihhhhhhhhhiiiiiiiiiiiiiiiiiiiihhhhhhhhhiiiiiiiiiiiiiiiiiiiihhhhhhhhhiiiiiiiiiiiiiiiiiiiiiihhhhhhhhhiiiiiiiiiii",
"iiiiiiiiihhhhhhhhhhgiiiiiiiiiiiiiiiiiiiihhhhhhhhhhgiiiiiiiiiiiiiiiiiiiihhhhhhhhhhgiiiiiiiiiiiiiiiiiiihhhhhhhhhhgiiiiiiiiiiiiiiiiiihhhhhhhhhhgiiiiiiiiiiiiiiiiiihhhhhhhhhhgiiiiiiiiiiiiiiiiiihhhhhhhhhhgiiiiiiiiiiiiiiiiiiiihhhhhhhhhhgiiiiiiiiii",
"iiiiiiiiiheehhhhheegiiiiiiiiiiiiiiiiiiiiheehhhhheegiiiiiiiiiiiiiiiiiiiiheehhhhheegiiiiiiiiiiiiiiiiiiiheehhhhheegiiiiiiiiiiiiiiiiiiheehhhhheegiiiiiiiiiiiiiiiiiiheehhhhheegiiiiiiiiiiiiiiiiiiheehhhhheegiiiiiiiiiiiiiiiiiiiiheehhhhheegiiiiiiiiii",
"iiiiiiiibheehhhhheegaiiiiiiiiiiiiiiiiiibheehhhhheegaiiiiiiiiiiiiiiiiiibheehhhhheegaiiiiiiiiiiiiiiiiibheehhhhheegaiiiiiiiiiiiiiiiibheehhhhheegaiiiiiiiiiiiiiiiibheehhhhheegaiiiiiiiiiiiiiiiibheehhhhheegaiiiiiiiiiiiiiiiiiibheehhhhheegaiiiiiiiii",
"iiiiiiib..hhhhhhhhg..aiiiiiiiiiiiiiiiib..hhhhhhhhg..aiiiiiiiiiiiiiiiib..hhhhhhhhg..aiiiiiiiiiiiiiiib..hhhhhhhhg..aiiiiiiiiiiiiiib..hhhhhhhhg..aiiiiiiiiiiiiiib..hhhhhhhhg..aiiiiiiiiiiiiiib..hhhhhhhhg..aiiiiiiiiiiiiiiiib..hhhhhhhhg..aiiiiiiii",
"iiiihhhg.chhhhhhgggf.hhhgiiiiiiiiiihhhg.chhhhhhgggf.hhhgiiiiiiiiiihhhg.chhhhhhgggf.hhhgiiiiiiiiihhhg.chhhhhhgggf.hhhgiiiiiiiihhhg.chhhhhhgggf.hhhgiiiiiiiihhhg.chhhhhhgggf.hhhgiiiiiiiihhhg.chhhhhhgggf.hhhgiiiiiiiiiihhhg.chhhhhhgggf.hhhgiiiii",
"iiihhhgg.cccgggggfff.hhhggiiiiiiiihhhgg.cccgggggfff.hhhggiiiiiiiihhhgg.cccgggggfff.hhhggiiiiiiihhhgg.cccgggggfff.hhhggiiiiiihhhgg.cccgggggfff.hhhggiiiiiihhhgg.cccgggggfff.hhhggiiiiiihhhgg.cccgggggfff.hhhggiiiiiiiihhhgg.cccgggggfff.hhhggiiii",
"iihhhhg..ccccccccfff..hhhggiiiiiihhhhg..ccccccccfff..hhhggiiiiiihhhhg..ccccccccfff..hhhggiiiiihhhhg..ccccccccfff..hhhggiiiihhhhg..ccccccccfff..hhhggiiiihhhhg..ccccccccfff..hhhggiiiihhhhg..ccccccccfff..hhhggiiiiiihhhhg..ccccccccfff..hhhggiii",
"iihhhgg.ccccfffffffff.hhhggiiiiiihhhgg.ccccfffffffff.hhhggiiiiiihhhgg.ccccfffffffff.hhhggiiiiihhhgg.ccccfffffffff.hhhggiiiihhhgg.ccccfffffffff.hhhggiiiihhhgg.ccccfffffffff.hhhggiiiihhhgg.ccccfffffffff.hhhggiiiiiihhhgg.ccccfffffffff.hhhggiii",
"iihhggg.ccccccccccfff.hhhggiiiiiihhggg.ccccccccccfff.hhhggiiiiiihhggg.ccccccccccfff.hhhggiiiiihhggg.ccccccccccfff.hhhggiiiihhggg.ccccccccccfff.hhhggiiiihhggg.ccccccccccfff.hhhggiiiihhggg.ccccccccccfff.hhhggiiiiiihhggg.ccccccccccfff.hhhggiii",
"iihhgg..ccccccccccfff..hhggiiiiiihhgg..ccccccccccfff..hhggiiiiiihhgg..ccccccccccfff..hhggiiiiihhgg..ccccccccccfff..hhggiiiihhgg..ccccccccccfff..hhggiiiihhgg..ccccccccccfff..hhggiiiihhgg..ccccccccccfff..hhggiiiiiihhgg..ccccccccccfff..hhggiii",
"iihhgibbfccffffffffffaaihggiiiiiihhgibbfccffffffffffaaihggiiiiiihhgibbfccffffffffffaaihggiiiiihhgibbfccffffffffffaaihggiiiihhgibbfccffffffffffaaihggiiiihhgibbfccffffffffffaaihggiiiihhgibbfccffffffffffaaihggiiiiiihhgibbfccffffffffffaaihggiii",
"iiiggibbafccccccccffaaaiggiiiiiiiiggibbafccccccccffaaaiggiiiiiiiiggibbafccccccccffaaaiggiiiiiiiggibbafccccccccffaaaiggiiiiiiggibbafccccccccffaaaiggiiiiiiggibbafccccccccffaaaiggiiiiiiggibbafccccccccffaaaiggiiiiiiiiggibbafccccccccffaaaiggiiii",
"iiiiiiibaffccccccfffaaiiiiiiiiiiiiiiiibaffccccccfffaaiiiiiiiiiiiiiiiibaffccccccfffaaiiiiiiiiiiiiiiibaffccccccfffaaiiiiiiiiiiiiiibaffccccccfffaaiiiiiiiiiiiiiibaffccccccfffaaiiiiiiiiiiiiiibaffccccccfffaaiiiiiiiiiiiiiiiibaffccccccfffaaiiiiiiii",
"iiiiiiibbaffccccfffaaaiiiiiiiiiiiiiiiibbaffccccfffaaaiiiiiiiiiiiiiiiibbaffccccfffaaaiiiiiiiiiiiiiiibbaffccccfffaaaiiiiiiiiiiiiiibbaffccccfffaaaiiiiiiiiiiiiiibbaffccccfffaaaiiiiiiiiiiiiiibbaffccccfffaaaiiiiiiiiiiiiiiiibbaffccccfffaaaiiiiiiii",
"iiiiiiiibbbfffffffaaaiiiiiiiiiiiiiiiiiibbbfffffffaaaiiiiiiiiiiiiiiiiiibbbfffffffaaaiiiiiiiiiiiiiiiiibbbfffffffaaaiiiiiiiiiiiiiiiibbbfffffffaaaiiiiiiiiiiiiiiiibbbfffffffaaaiiiiiiiiiiiiiiiibbbfffffffaaaiiiiiiiiiiiiiiiiiibbbfffffffaaaiiiiiiiii",
"iiiiiiiibhhgfffffhggaiiiiiiiiiiiiiiiiiibhhgfffffhggaiiiiiiiiiiiiiiiiiibhhgfffffhggaiiiiiiiiiiiiiiiiibhhgfffffhggaiiiiiiiiiiiiiiiibhhgfffffhggaiiiiiiiiiiiiiiiibhhgfffffhggaiiiiiiiiiiiiiiiibhhgfffffhggaiiiiiiiiiiiiiiiiiibhhgfffffhggaiiiiiiiii",
"iiiiiiiihhhgdaaaahhggiiiiiiiiiiiiiiiiiihhhgdaaaahhggiiiiiiiiiiiiiiiiiihhhgdaaaahhggiiiiiiiiiiiiiiiiihhhgdaaaahhggiiiiiiiiiiiiiiiihhhgdaaaahhggiiiiiiiiiiiiiiiihhhgdaaaahhggiiiiiiiiiiiiiiiihhhgdaaaahhggiiiiiiiiiiiiiiiiiihhhgdaaaahhggiiiiiiiii",
"iiiiiiiihhggbbbaahhhgiiiiiiiiiiiiiiiiiihhggbbbaahhhgiiiiiiiiiiiiiiiiiihhggbbbaahhhgiiiiiiiiiiiiiiiiihhggbbbaahhhgiiiiiiiiiiiiiiiihhggbbbaahhhgiiiiiiiiiiiiiiiihhggbbbaahhhgiiiiiiiiiiiiiiiihhggbbbaahhhgiiiiiiiiiiiiiiiiiihhggbbbaahhhgiiiiiiiii",
"iiiiiiiihhgiihhgiihhgiiiiiiiiiiiiiiiiiihhgiihhgiihhgiiiiiiiiiiiiiiiiiihhgiihhgiihhgiiiiiiiiiiiiiiiiihhgiihhgiihhgiiiiiiiiiiiiiiiihhgiihhgiihhgiiiiiiiiiiiiiiiihhgiihhgiihhgiiiiiiiiiiiiiiiihhgiihhgiihhgiiiiiiiiiiiiiiiiiihhgiihhgiihhgiiiiiiiii",
"iiiiiiiihggiiigiiihhgiiiiiiiiiiiiiiiiiihggiiigiiihhgiiiiiiiiiiiiiiiiiihggiiigiiihhgiiiiiiiiiiiiiiiiihggiiigiiihhgiiiiiiiiiiiiiiiihggiiigiiihhgiiiiiiiiiiiiiiiihggiiigiiihhgiiiiiiiiiiiiiiiihggiiigiiihhgiiiiiiiiiiiiiiiiiihggiiigiiihhgiiiiiiiii",
"iiiiiiiihgiiiiiiiiihgiiiiiiiiiiiiiiiiiihgiiiiiiiiihgiiiiiiiiiiiiiiiiiihgiiiiiiiiihgiiiiiiiiiiiiiiiiihgiiiiiiiiihgiiiiiiiiiiiiiiiihgiiiiiiiiihgiiiiiiiiiiiiiiiihgiiiiiiiiihgiiiiiiiiiiiiiiiihgiiiiiiiiihgiiiiiiiiiiiiiiiiiihgiiiiiiiiihgiiiiiiiii",
"iiiiiiiiiiiiiiiiiiiiiiiiiiiiiiiiiiiiiiiiiiiiiiiiiiiiiiiiiiiiiiiiiiiiiiiiiiiiiiiiiiiiiiiiiiiiiiiiiiiiiiiiiiiiiiiiiiiiiiiiiiiiiiiiiiiiiiiiiiiiiiiiiiiiiiiiiiiiiiiiiiiiiiiiiiiiiiiiiiiiiiiiiiiiiiiiiiiiiiiiiiiiiiiiiiiiiiiiiiiiiiiiiiiiiiiiiiiiiiii"
};
