/* XPM */
static char *tumbler_xpm[] = {
/* width height num_colors chars_per_pixel */
"   240    30       12            1",
/* colors */
". c #869116",
"# c #acb552",
"a c #dde492",
"b c #f5b757",
"c c #b3864d",
"d c #9a6a37",
"e c #271c12",
"f c #bb8959",
"g c #fc8c3a",
"h c #9d653b",
"i c #bd845a",
"j c None",
/* pixels */
"jjjjjjjjjjjjjjjjjjjjjjjjjjjjjjjjjjjjjjjjjjjjjjjjjjjjjjjjjjjjjjjjjjjjjjjjjjjjjjjjjjjjjjjjjjjjjjjjjjjjjjjjjjjjjjjjjjjjjjjjjjjjjjjjjjjjjjjjjjjjjjjjjjjjjjjjjjjjjjjjjjjjjjjjjjjjjjjjjjjjjjjjjjjjjjjjjjjjjjjjjjjjjjjjjjjjjjjjjjjjjjjjjjjjjjjjjjjjjjjj",
"jjjjjjjjjjjjjjjjjjjjjjjjjjjjjjjjjjjjjjjjjjjjjjjjjjjjjjjjjjjjjjjjjjjjjjjjjjjjjjjjjjjjjjjjjjjjjjjjjjjjjjjjjjjjjjjjjjjjjjjjjjjjjjjjjjjjjjjjjjjjjjjjjjjjjjjjjjjjjjjjjjjjjjjjjjjjjjjjjjjjjjjjjjjjjjjjjjjjjjjjjjjjjjjjjjjjjjjjjjjjjjjjjjjjjjjjjjjjjjjj",
"jjjjjjjjjjjjjjjjjjjjjjjjjjjjjjjjjjjjjjjjjjjjjjjjjjjjjjjjjjjjjjjjjjjjjjjjjjjjjjjjjjjjjjjjjjjjjjjjjjjjjjjjjjjjjjjjjjjjjjjjjjjjjjjjjjjjjjjjjjjjjjjjjjjjjjjjjjjjjjjjjjjjjjjjjjjjjjjjjjjjjjjjjjjjjjjjjjjjjjjjjjjjjjjjjjjjjjjjjjjjjjjjjjjjjjjjjjjjjjjj",
"jjjjjjjjjjjjjjjjjjjjjjjjjjjjjjjjjjjjjjjjjjjjjjjjjjjjjjjjjjjjjjjjjjjjjjjjjjjjjjjjjjjjjjjjjjjjjjjjjjjjjjjjjjjjjjjjjjjjjjjjjjjjjjjjjjjjjjjjjjjjjjjjjjjjjjjjjjjjjjjjjjjjjjjjjjjjjjjjjjjjjjjjjjjjjjjjjjjjjjjjjjjjjjjjjjjjjjjjjjjjjjjjjjjjjjjjjjjjjjjj",
"jjjjjjjjjjjjjjjjjjjjjjjjjjjjjjjjjjjjjjjjjjjjjjjjjjjjjjjjjjjjjjjjjjjjjjjjjjjjjjjjjjjjjjjjjjjjjjjjjjjjjjjjhjjjjjjjjjjjjjjjjjjjjjjjjjjjjjjjjjjjjjjjjjjjjjjjjjjjjjjjjjjjjjjjjjjjjjjjjjjjjjjjjjjjjjjjjjjjjjjjjjjjjjjjjjjjjjjjjjjjjjjjjjjjjjjjjjjjjjjj",
"jjjjjjjjjjjjiiiiijjjjjjjjjjjjjjjjjjjjjjjjjjjjjjjjjjjjjjjjjjjjjjjjjjjjjjjjjjjjjjjjjjjjjjjjjjjjjjjjjjjjjjiihjjjjjjjjjjjjjjjjjjjjjjjjjjjjhjjjjjjjjjjjjjjjjjjjjjjjjjjjjjjjjjjjjjjjjjjjjjjjjjjjjjjjjjjjjjjjjjjjjjjjjjjjjjjjjjjjjjjjjjjjjjjjjjjjjjjjjj",
"jjjjjjjjjjiiiiiiiiijjjjjjjjjjjjjjjjjjjjjjjiiiiijjjjjjjjjjjjjjjjjjjjjjjjjjjjjjjjjjjjjjjjjjjjjjjjjjjjj####.....jjjjjjjjjjjjjjjhhhhjjjjjiihjjjjjhhhhjjjjjjjjjjjjjjjjjjjjjjjjjjjjjjjjjjjjjjjjjjjjjjjjjjjjjjjjjjjjjjjjjjiiiijjjjjjjiiiiijjjjjjjiiiijj",
"jjjjjjjjjjiiiiiiiiijjjjjjjjjjjjjjjjjjjjjjeiiiiiejjjjjjjjjjjjjjjjjjjjjjjjjjjjjjjjjjjjjjjjjjjjjjiiij########.....jiihjjjjjjjjjhiiihh####.....hhiiihjjjjjjjjjjjjjjjjjjjjjjjjjjjjjjjjjjjjjjjjjjjjjjjjjjjjjjjjjjjjjjjjjiiiiiijjjjiiiiiiiiijjjjiiiiiij",
"jjiiiiijjiiiiiiiiiihjjiiiiijjjjjjjjjjjjjiiiiiiiihjjjjjjjjjjjjjjjjjjjjjjjjjjjjjjjjjjjjjjjjjjjjjiiii###a#####....iiihjjjjjjjjjjjiii######.....iiijjjjjjjjjjjjjjjjjjjjjjjjjjjjjjjjjjjjjjjjjjjjjjjjjjjjjjjjjjjjjjjjjjjhhhiiiijjjiiiiiiiiijjjiiiihhhj",
"jiiiiiiijieeiiiiieehjiiiiiiijjjjjjjjjjjjiiiiiiiihjjjjjjjjjjjjjjjjjjjjjjjjjjjjjjjjjjjjjjjjjjjjjiii###a#######....iihjjjjjjjjjjjjj########.....jjjjjjjjjjjjjjjjjjj#########jjjjjjjjjjjjjjjjjjjjjjjjjjjjjjjjjjjjjjjjjjjjhhiiijiiiiiiiiiihjiiihhjjjj",
"iiiiiiiiifeeiiiiieediiiiiiiiijjjjjjjjjjjfiiiiiihdjjjjjjjjjjjjjjjjjjjjjjjjjjjjjjjjjjjjjjjjjjjjjjhh##a#########...hhjjjjjjjjjjjjj####a#####.....jjjjjjjjjjjjiiij#############jiihjjjjjjjjjjjjjjjjjjjjjjjjjjjjjjjjjjjjjjjjhiijieeiiiiieehjiihjjjjjj",
"hhhhhhhii#fiiiiiiid.iihhhhhhhjjjhhhhjjjjjfiiihhdjjjjjhhhhjjjjjjjjjjjjjjjjjjjjjjjjjjjjjjjjjjjjjjjj##a##########..jjjjjjjjjjjjjjj###a#######....jjjjjjjjjjjjiiii###a#########iiihjjjjjjjjjjjjjj###########jjjjjjjjjjjjjjjjhiifeeiiiiieediihjjjjjjj",
"jjjjjjhhh#fiiiiihhd.hhhjjjjjjjjjiiiihhhh##iihhh##hhhhiiiijjjjjjjjjhiiijjjjjjjjjiiihjjjjjjjjjjjjjj##a##########..jjjjjjjjjjjjjjj##a########....jjjjjjjjjjjjiii###a##########.iihjjjjjjjjjjjjj############.jjjjjjjjjjjjjjjhhi#fiiiiiiid.ihhjjjjjjj",
"jjjjjjj##bbbhhhhhggg..jjjjjjjjjjjjiiiiii#bbbbbgg#iiiiiijjjjjjjjjihhiiiijjjjjjjiiiihhijjjjjjjjjjjj##a###########.jjjjjjjjjjjjjj###a#########....jjjjjjjjjjjjhh##a###########.hhjjjjjjjjjjjjj#####iiiii##...jjjjjjjjjjjjjjj#hbfiiiiihhdgh.jjjjjjjj",
"jjjjjjj##bbbbbbbbggg..jjjjjjjjjjjjjjiiiibbbbbbgggiiiijjjjjjjjjjiihhiiiibgggggbiiiihhiijjjjjjjjjjj##a###########.jjjjjjjjjjjjjj###a#########....jjjjjjjjjjjjjj##a##########..jjjjjjjjjjjjjj####iiiiiiiii....jjjjjjjjjjjjj###bbbhhhhhggg...jjjjjjj",
"jjjjjj###bbbbbbbbggg...jjjjjjjjjjjjjj###bbbbbbggg...jjjjjjjjjjjiihhhiiiibbbbbiiiihhhiijjjjjjjjjjj##############.jjjjjjjjjjjjjj###a#########....jjjjjjjjjjjjjj##a##########..jjjjjjjjjhiiij##bbiiiiiiiiibb..jiiihjjjjjjjj##bbbbggggggggg..jjjjjjj",
"jjjjjj##bbbbggggggggg..jjjjjjjjjjjjjj##bbbgggggggg..jjjjjjjjjjjjiiihhhiibbbbbiihhhiiijjjjjjjjjjjj###a##########.jjjjjjjjjjjjjj###a#########....jjjjjjjjjjjjjj############...jjjjjjjjjhiii##bbiiiiiiiiiihbb..iiihjjjjjjjj##bbbbbbbbbbggg..jjjjjjj",
"jjjjjj##bbbbbbbbbbggg..jjjjjjjjjjjjjj##bbbbbbbbggg..jjjjjjjjjjjjiiiibhhbbbbbbbhhbiiiijjjjjjjjjiiii#############iiiijjjjjjjjjjj###a#########....jjjjjjjjjhijjj###a#######....jjjihjjjjhiiii#bbiiiiiiiiiihbb.iiiihjjjjjjjj##gbbgggggggggg..jjjjjjj",
"jjjjjj##bbbbbbbbbbggg..jjjjjjjjjjjjjj##gbbgggggggg..jjjjjjjjjjjjjji#bbbbbbbbbbbbb.ijjjjjjjjjiiiiiii###########iiiiiiijjjjjjjjj############.....jjjjjjjjjhiiijb####iiiii....bjiiihjjjjjhhiiibbfeeiiiiieedbgiiihhjjjjjjjjj##.gbbbbbbbbgg...jjjjjjj",
"jjjjjj##gbbgggggggggg..jjjjjjjjjjjjjj##ggbbbbbbggg..jjjjjjjjjjjjjjj###bbbiihbbb...jjjjjjjjjjhhhhhhhh#########hhhhhhhhjjjjjjjjjj####a######....jjjjjjjjjjhiiiiib#iiiiiiiii.biiiiihjjjjjjjhhhbbbeeiiiiieebgghhhjjjjjjjjjjjj#.ggbbbbbbggg..jjjjjjjj",
"jjjjjj##.gbbbbbbbbgg...jjjjjjjjjjjjjj##gggbbbbgggg..jjjjjjjjjjjjjjj######iih###...jjjjjjjjjjjjjjjjjjfiiiiiihdjjjjjjjjjjjjjjjjjhh#########....hhjjjjjjjjjhhiiiibbiiiiiiiiibbiiiihhjjjjjjjjjjbggfiiiiihhdgggjjjjjjjjjjjjjjj##.ggbbbbggg...jjjjjjjj",
"jjjjjjj#.ggbbbbbbggg..jjjjjjjjjjjjjhiii##ggggggg..iiihjjjjjjjjjjjjjj######h####..jjjjjjjjjjjjjjjjjjjiiiiiiiihjjjjjjjjjjjhhhhhhhii#######....iihhhhhhhjjjhhiiiigiiiiiiiiiihgiiiihhjjjjjjjjjjjjggghhhhhgggjjjjjjjjjjjjjjhiii###ggggggg...iiihjjjjj",
"jjjjjjj##.ggbbbbggg...jjjjjjjjjjjjjhhhiii#ggggg.iiihhhjjjjjjjjjjjjjj###########..jjjjjjjjjjjjjjjjjjjiiiiiiiihjjjjjjjjjjjiiiiiiiii..iiiiihh..iiiiiiiiijjjjhhhhjgiiiiiiiiiihgjhhhhjjjjjjjjjjjjjjjjjjjjjjjjjjjjjjjjjjjjjjhhhiii##ggggg..iiihhhjjjjj",
"jjjjhiii###ggggggg...iiihjjjjjjjjjjjjhhhi#####..ihhhjjjjjjjjjjjjjjjjj########...jjjjjjjjjjjjjjjjjjjjjeiiiiiejjjjjjjjjjjjjiiiiiiijjiiiiiiihhjjiiiiiiijjjjjjjjjjjfeeiiiiieedjjjjjjjjjjjjjjjjjjjjjjjjjjjjjjjjjjjjjjjjjjjjjjhhhi##c......ihhhjjjjjjj",
"jjjjhhhiii##ggggg..iiihhhjjjjjjjjjjjjj#hh####...hh.jjjjjjjjjjjjjjjjjjjj####...jjjjjjjjjjjjjjjjjjjjjjjjiiiiijjjjjjjjjjjjjjjiiiiijjjiiiiiiiihjjjiiiiijjjjjjjjjjjjjeeiiiiieejjjjjjjjjjjjjjjjjjjjjjjjjjjjjjjjjjjjjjjjjjjjjjjjjhh#####....hhjjjjjjjjj",
"jjjjjjhhhi##c......ihhhjjjjjjjjjjjjjjjjj####.....jjjjjjjjjjjjjjjjjjjjjjjiiiiijjjjjjjjjjjjjjjjjjjjjjjjjjjjjjjjjjjjjjjjjjjjjjjjjjjjjiiiiiiiihjjjjjjjjjjjjjjjjjjjjjjjhhhhhjjjjjjjjjjjjjjjjjjjjjjjjjjjjjjjjjjjjjjjjjjjjjjjjjjjjjjjjiihjjjjjjjjjjjjjj",
"jjjjjjjjhh#####....hhjjjjjjjjjjjjjjjjjjjjjjiihjjjjjjjjjjjjjjjjjjjjjjjjjjjjjjjjjjjjjjjjjjjjjjjjjjjjjjjjjjjjjjjjjjjjjjjjjjjjjjjjjjjjieiiiiiehjjjjjjjjjjjjjjjjjjjjjjjjjjjjjjjjjjjjjjjjjjjjjjjjjjjjjjjjjjjjjjjjjjjjjjjjjjjjjjjjjjjjjhjjjjjjjjjjjjjjj",
"jjjjjjjjjjjjjiihjjjjjjjjjjjjjjjjjjjjjjjjjjjjhjjjjjjjjjjjjjjjjjjjjjjjjjjjjjjjjjjjjjjjjjjjjjjjjjjjjjjjjjjjjjjjjjjjjjjjjjjjjjjjjjjjjjjeiiiiiejjjjjjjjjjjjjjjjjjjjjjjjjjjjjjjjjjjjjjjjjjjjjjjjjjjjjjjjjjjjjjjjjjjjjjjjjjjjjjjjjjjjjjjjjjjjjjjjjjjjjj",
"jjjjjjjjjjjjjjhjjjjjjjjjjjjjjjjjjjjjjjjjjjjjjjjjjjjjjjjjjjjjjjjjjjjjjjjjjjjjjjjjjjjjjjjjjjjjjjjjjjjjjjjjjjjjjjjjjjjjjjjjjjjjjjjjjjjjhhhhhjjjjjjjjjjjjjjjjjjjjjjjjjjjjjjjjjjjjjjjjjjjjjjjjjjjjjjjjjjjjjjjjjjjjjjjjjjjjjjjjjjjjjjjjjjjjjjjjjjjjjjj",
"jjjjjjjjjjjjjjjjjjjjjjjjjjjjjjjjjjjjjjjjjjjjjjjjjjjjjjjjjjjjjjjjjjjjjjjjjjjjjjjjjjjjjjjjjjjjjjjjjjjjjjjjjjjjjjjjjjjjjjjjjjjjjjjjjjjjjjjjjjjjjjjjjjjjjjjjjjjjjjjjjjjjjjjjjjjjjjjjjjjjjjjjjjjjjjjjjjjjjjjjjjjjjjjjjjjjjjjjjjjjjjjjjjjjjjjjjjjjjjjj"
};
