/* XPM */
static char *walker_xpm[] = {
/* width height num_colors chars_per_pixel */
"   240    60        9            1",
/* colors */
". c #869116",
"# c #acb552",
"a c #dde492",
"b c #f5b757",
"c c #271c12",
"d c #9d653b",
"e c #bd845a",
"f c #e5bc9e",
"g c None",
/* pixels */
"gggggggggggggggggggggggggggggggggggggggggggggggggggggggggggggggggggggggggggggggggggggggggggggggggggggggggggggggggggggggggggggggggggggggggggggggggggggggggggggggggggggggggggggggggggggggggggggggggggggggggggggggggggggggggggggggggggggggggggggggg",
"gggggggggggggggggggggggggggggggggggggggggggggggggggggggggggggggggggggggggggggggggggggggggggggggggggggggggggggggggggggggggggggggggggggggggggggggggggggggggggggggggggggggggggggggggggggggggggggggggggggggggggggggggggggggggggggggggggggggggggggggg",
"gggggggggggggggggggggggggggggggggggggggggggggggggggggggggggggggggggggggggggggggggggggggggggggggggggggggggggggggggggggggggggggggggggggggggggggggggggggggggggggggggggggggggggggggggggggggggggggggggggggggggggggggggggggggggggggggggggggggggggggggg",
"gggggggggggggggggggggggggggggggggggggggggggggggggggggggggggggggggggggggggggggggggggggggggggggggggggggggggggggggggggggggggggggggggggggggggggggggggggggggggggggggggggggggggggggggggggggggggggggggggggggggggggggggggggggggggggggggggggggggggggggggg",
"gggggggggggggggggggggggggggggggggggggggggggggggggggggggggggggggggggggggggggggggggggggggggggggggggggggggggggggggggggggggggggggggggggggggggggggggggggggggggggggggggggggggggggggggggggggggggggggggggggggggggggggggggggggggggggggggggggggggggggggggg",
"gggggggggggggggggggggggggggggggggggggggggg##########gggggggggggggggggggggggggggggggggggggggggggggggggggggggggggggggggggggggggggggggggggggggggggggggggggggggggggggg##########gggggggggggggggggggggggggggggggggggggggggggggggggggggggggggggggggggg",
"gggggggggggg##########gggggggggggggggggg###aaaaa######gggggggggggggggggg##########gggggggggggggggggggggggggggggggggggggggggggggggggg##########gggggggggggggggggg###aaaaa######gggggggggggggggggg##########gggggggggggggggggggggggggggggggggggggg",
"gggggggggg###aaaaa######ggggggggeeeeeeg.##aa#####a#####ggggggggggggggg###aaaaa######gggggggggggggggggg##########gggggggggggggggggg###aaaaa######ggggggggeeeeeeg.##aa#####a#####ggggggggggggggg###aaaaa######gggggggggggggggggg##########gggggggg",
"ggeeeeeeg.##aa#####a#####ggggggeeeeeeee..###############ggggggeeeeeeg.##aa#####a#####ggggggggggggggg###aaaaa######ggggggggeeeeeeg.##aa#####a#####ggggggeeeeeeee..###############ggggggeeeeeeg.##aa#####a#####ggggggggggggggg###aaaaa######gggggg",
"geeeeeeee..###############ggggeeeeeeeee...###############ggggeeeeeeee..###############ggggggeeeeeeg.##aa#####a#####ggggggeeeeeeee..###############ggggeeeeeeeee...#####ed########ggggeeeeeeee..##eee##########ggggggeeeeeeg.##aa#####a#####ggggg",
"eeeeeeeee...###############gggeeecceeee....#############.gggeeeeeeeee...###############ggggeeeeeeee..###############ggggeeeeeeeee...###############gggeeecceeee....###eed#######.gggeeeeeeeee...#eeed##########ggggeeeeeeee..###############gggg",
"eeecceeee....#############.gggeeecceeedd....###########...ggeeecceeee....#############.gggeeeeeeeee...###############gggeeecceeee....#############.gggeeecceeedd....##eed######...ggeeecceeee....#eed#########.gggeeeeeeeefeeed##############ggg",
"eeecceeedd....###########...gggeeeeeddddb.....######......ggeeecceeedd....###########...ggeeecceeee....#############.gggeeecceeedd....###########...gggeeeeeddddb....eeed###......ggeeecceeedd....eedd#######...ggeeecceeefeeedd############.ggg",
"geeeeeddddb.....######......ggggddddddgbbb...............eeggeeeeeddddb.....######......ggeeecceeedd....###########...gggeeeeeddddb.....###ed#......ggggddddddgbbb..eeeed........eeggeeeeeddddb...eeed####......ggeeecceeefeeeedd##########...gg",
"ggddddddfbbb...............eeggggggggggbeed.............ddddggddddddgbbb...............eeggeeeeeddddb.....######......ggggddddddgbbb......eed......eeggggggggggbbbbeeeeed.......ddddggddddddgbbb..eeed.........eeggeeeeedddbeeeedd######......gg",
"ggggggggeeeed.............ddddgggggggggeeedb...........bbggggggggggggbbed.............ddddggddddddgbbb...............eeggggggggggbbbe....eeed.....ddddggggggggggbbbeeeedd......bbggggggggggggbbbbeeeed........ddddggddddddgbbeeeed...........eeg",
"gggggggeeeeddb...........bbgggggggggggeeeddbbbbbbbbbeeebggggggggggggggeedb...........bbggggggggggggbbbe.............ddddggggggggggbbeeeeeeeed....bbggggggggggggggbbeeeddbbbbeeebggggggggggggggbbbeeedd.......bbggggggggggggbbbeeed..........dddd",
"ggggggeeeedddbbbbbbbbbeeebggggggggggggeeedgbbbbbbbbbdeeeegggggggggggggeedbbbbbbbbbeeebggggggggggggggbbed...........bbggggggggggggggbeeeeeeeddbeeebgggggggggggggggggbeddbbbbbdeeeeggggggggggggggbbedddbbbbbeeebggggggggggggggbbeedd.........bbggg",
"ggggggeeedddggbbbbbbbbdeeeegggggggggggeeedggggggggggddeeeeggggggggggggeeddbbbbbbbbdeeeeggggggggggggggbeddbbbbbbbeeebgggggggggggggggggeeeeeddbbdeeeegggggggggggggggggggggggggddeeeegggggggggggggggddbbbbbbbdeeeeggggggggggggggbbddbbbbbbbeeebgggg",
"ggggggeedddgggggggggggddeeeeggggggggggeeedgggggggggggdddddggggggggggggeeeddgggggggddeeeeggggggggggggggeeddddddbbdeeeegggggggggggggggggeeeddgggddeeeegggggggggggggggggggggggggdddddggggggggggggggggggggggggddeeeegggggggggggggggbbbbbbbbbdeeeeggg",
"ggggggeeddgggggggggggggdddddggggggggggeeedggggggggggggggggggggggggggggeeeeddgggggggdddddggggggggggggggeeeeedddggddeeeegggggggggggggggggdddgggggdddddgggggggggggggggggggggggggggggggggggggggggggggggggggggggdddddggggggggggggggggggggggggddeeeegg",
"ggggggeedggggggggggggggggggggggggggggggeedggggggggggggggggggggggggggggeeeeedddggggggggggggggggggggggggeeeeeeddgggdddddgggggggggggggggggggggggggggggggggggggggggggggggggggggggggggggggggggggggggggggggggggggggggggggggggggggggggggggggggggdddddgg",
"gggggggddgggggggggggggggggggggggggggggggeddggggggggggggggggggggggggggggeeeeeeegggggggggggggggggggggggggeeeeedggggggggggggggggggggggggggggggggggggggggggggggggggggggggggggggggggggggggggggggggggggggggggggggggggggggggggggggggggggggggggggggggggg",
"gggggggggggggggggggggggggggggggggggggggggedgggggggggggggggggggggggggggggeeeeegggggggggggggggggggggggggggeeeegggggggggggggggggggggggggggggggggggggggggggggggggggggggggggggggggggggggggggggggggggggggggggggggggggggggggggggggggggggggggggggggggggg",
"gggggggggggggggggggggggggggggggggggggggggggggggggggggggggggggggggggggggggggggggggggggggggggggggggggggggggggggggggggggggggggggggggggggggggggggggggggggggggggggggggggggggggggggggggggggggggggggggggggggggggggggggggggggggggggggggggggggggggggggggg",
"gggggggggggggggggggggggggggggggggggggggggggggggggggggggggggggggggggggggggggggggggggggggggggggggggggggggggggggggggggggggggggggggggggggggggggggggggggggggggggggggggggggggggggggggggggggggggggggggggggggggggggggggggggggggggggggggggggggggggggggggg",
"gggggggggggggggggggggggggggggggggggggggggggggggggggggggggggggggggggggggggggggggggggggggggggggggggggggggggggggggggggggggggggggggggggggggggggggggggggggggggggggggggggggggggggggggggggggggggggggggggggggggggggggggggggggggggggggggggggggggggggggggg",
"gggggggggggggggggggggggggggggggggggggggggggggggggggggggggggggggggggggggggggggggggggggggggggggggggggggggggggggggggggggggggggggggggggggggggggggggggggggggggggggggggggggggggggggggggggggggggggggggggggggggggggggggggggggggggggggggggggggggggggggggg",
"gggggggggggggggggggggggggggggggggggggggggggggggggggggggggggggggggggggggggggggggggggggggggggggggggggggggggggggggggggggggggggggggggggggggggggggggggggggggggggggggggggggggggggggggggggggggggggggggggggggggggggggggggggggggggggggggggggggggggggggggg",
"gggggggggggggggggggggggggggggggggggggggggggggggggggggggggggggggggggggggggggggggggggggggggggggggggggggggggggggggggggggggggggggggggggggggggggggggggggggggggggggggggggggggggggggggggggggggggggggggggggggggggggggggggggggggggggggggggggggggggggggggg",
"gggggggggggggggggggggggggggggggggggggggggggggggggggggggggggggggggggggggggggggggggggggggggggggggggggggggggggggggggggggggggggggggggggggggggggggggggggggggggggggggggggggggggggggggggggggggggggggggggggggggggggggggggggggggggggggggggggggggggggggggg",
"gggggggggggggggggggggggggggggggggggggggggggggggggggggggggggggggggggggggggggggggggggggggggggggggggggggggggggggggggggggggggggggggggggggggggggggggggggggggggggggggggggggggggggggggggggggggggggggggggggggggggggggggggggggggggggggggggggggggggggggggg",
"gggggggggggggggggggggggggggggggggggggggggggggggggggggggggggggggggggggggggggggggggggggggggggggggggggggggggggggggggggggggggggggggggggggggggggggggggggggggggggggggggggggggggggggggggggggggggggggggggggggggggggggggggggggggggggggggggggggggggggggggg",
"gggggggggggggggggggggggggggggggggggggggggggggggggggggggggggggggggggggggggggggggggggggggggggggggggggggggggggggggggggggggggggggggggggggggggggggggggggggggggggggggggggggggggggggggggggggggggggggggggggggggggggggggggggggggggggggggggggggggggggggggg",
"gggggggggggggggggggggggggggggggggggggggggggggggggggggggggggggggggggggggggggggggggggggggggggggggggggggggggggggggggggggggggggggggggggggggggggggggggggggggggggggggggggggggggggggggggggggggggggggggggggggggggggggggggggggggggggggggggggggggggggggggg",
"gggggggggggggggggggggggggggggggggggggg##########gggggggggggggggggggggggggggggggggggggggggggggggggggggggggggggggggggggggggggggggggggggggggggggggggggggggggggggg##########gggggggggggggggggggggggggggggggggggggggggggggggggggggggggggggggggggggggg",
"gggggggg##########gggggggggggggggggg######aaaaa###gggggggggggggggggg##########gggggggggggggggggggggggggggggggggggggggggggggggggg##########gggggggggggggggggg######aaaaa###gggggggggggggggggg##########gggggggggggggggggggggggggggggggggggggggggg",
"gggggg######aaaaa###ggggggggggggggg#####a#####aa##.geeeeeegggggggg######aaaaa###gggggggggggggggggg##########gggggggggggggggggg######aaaaa###ggggggggggggggg#####a#####aa##.geeeeeegggggggg######aaaaa###gggggggggggggggggg##########gggggggggggg",
"ggggg#####a#####aa##.geeeeeegggggg###############..eeeeeeeegggggg#####a#####aa##.geeeeeegggggggg######aaaaa###ggggggggggggggg#####a#####aa##.geeeeeegggggg###############..eeeeeeeegggggg#####a#####aa##.geeeeeegggggggg######aaaaa###gggggggggg",
"gggg###############..eeeeeeeegggg###############...eeeeeeeeegggg###############..eeeeeeeegggggg#####a#####aa##.geeeeeegggggg###############..eeeeeeeegggg########de#####...eeeeeeeeegggg##########eee##..eeeeeeeegggggg#####a#####aa##.geeeeeegg",
"ggg###############...eeeeeeeeeggg.#############....eeeecceeeggg###############...eeeeeeeeegggg###############..eeeeeeeegggg###############...eeeeeeeeeggg.#######dee###....eeeecceeeggg##########deee#...eeeeeeeeegggg###############..eeeeeeeeg",
"ggg.#############....eeeecceeegg...###########....ddeeecceeeggg.#############....eeeecceeeggg###############...eeeeeeeeeggg.#############....eeeecceeegg...######dee##....ddeeecceeeggg.#########dee#....eeeecceeeggg##############deeefeeeeeeee",
"gg...###########....ddeeecceeegg......######.....bddddeeeeeggg...###########....ddeeecceeeggg.#############....eeeecceeegg...###########....ddeeecceeegg......###deee....bddddeeeeeggg...#######ddee....ddeeecceeeggg.############ddeeefeeecceee",
"gg......######.....bddddeeeeeggee...............bbbgddddddgggg......######.....bddddeeeeeggg...###########....ddeeecceeegg......#de###.....bddddeeeeeggee........deeee..bbbgddddddgggg......####deee...bddddeeeeeggg...##########ddeeeefeeecceee",
"gee...............bbbfddddddggdddd.............deebggggggggggee...............bbbgddddddgggg......######.....bddddeeeeeggee......dee......bbbgddddddggdddd.......deeeeebbbbggggggggggee.........deee..bbbgddddddgggg......######ddeeeebdddeeeeeg",
"dddd.............deeeegggggggggggbb...........bdeeegggggggggdddd.............debbggggggggggee...............bbbgddddddggdddd.....deee....ebbbggggggggggggbb......ddeeeebbbggggggggggdddd........deeeebbbbggggggggggee...........deeeebbgddddddgg",
"gggbb...........bddeeeegggggggggggbeeebbbbbbbbbddeeegggggggggggbb...........bdeeggggggggggdddd.............ebbbggggggggggggbb....deeeeeeeebbggggggggggggggbeeebbbbddeeebbggggggggggggggbb.......ddeeebbbggggggggggdddd..........deeebbbggggggggg",
"ggggbeeebbbbbbbbbdddeeeegggggggggeeeedbbbbbbbbbgdeeeggggggggggggbeeebbbbbbbbbdeegggggggggggggbb...........debbggggggggggggggbeeebddeeeeeeebggggggggggggggeeeedbbbbbddebgggggggggggggggggbeeebbbbbdddebbggggggggggggggbb.........ddeebbgggggggggg",
"gggeeeedbbbbbbbbggdddeeeggggggggeeeeddggggggggggdeeegggggggggggeeeedbbbbbbbbddeeggggggggggggggbeeebbbbbbbddebggggggggggggggeeeedbbddeeeeegggggggggggggggeeeeddgggggggggggggggggggggggggeeeedbbbbbbbddgggggggggggggggggbeeebbbbbbbddbbggggggggggg",
"ggeeeeddgggggggggggdddeeggggggggdddddgggggggggggdeeeggggggggggeeeeddgggggggddeeegggggggggggggeeeedbbddddddeeggggggggggggggeeeeddgggddeeeggggggggggggggggdddddgggggggggggggggggggggggggeeeeddgggggggggggggggggggggggggeeeedbbbbbbbbbggggggggggggg",
"ggdddddgggggggggggggddeeggggggggggggggggggggggggdeeeggggggggggdddddgggggggddeeeeggggggggggggeeeeddggdddeeeeeggggggggggggggdddddgggggdddgggggggggggggggggggggggggggggggggggggggggggggggdddddgggggggggggggggggggggggggeeeeddgggggggggggggggggggggg",
"gggggggggggggggggggggdeeggggggggggggggggggggggggdeegggggggggggggggggggggdddeeeeeggggggggggggdddddgggddeeeeeeggggggggggggggggggggggggggggggggggggggggggggggggggggggggggggggggggggggggggggggggggggggggggggggggggggggggdddddggggggggggggggggggggggg",
"gggggggggggggggggggggddggggggggggggggggggggggggddeggggggggggggggggggggggeeeeeeeggggggggggggggggggggggdeeeeeggggggggggggggggggggggggggggggggggggggggggggggggggggggggggggggggggggggggggggggggggggggggggggggggggggggggggggggggggggggggggggggggggggg",
"gggggggggggggggggggggggggggggggggggggggggggggggdeggggggggggggggggggggggggeeeeeggggggggggggggggggggggggeeeegggggggggggggggggggggggggggggggggggggggggggggggggggggggggggggggggggggggggggggggggggggggggggggggggggggggggggggggggggggggggggggggggggggg",
"gggggggggggggggggggggggggggggggggggggggggggggggggggggggggggggggggggggggggggggggggggggggggggggggggggggggggggggggggggggggggggggggggggggggggggggggggggggggggggggggggggggggggggggggggggggggggggggggggggggggggggggggggggggggggggggggggggggggggggggggg",
"gggggggggggggggggggggggggggggggggggggggggggggggggggggggggggggggggggggggggggggggggggggggggggggggggggggggggggggggggggggggggggggggggggggggggggggggggggggggggggggggggggggggggggggggggggggggggggggggggggggggggggggggggggggggggggggggggggggggggggggggg",
"gggggggggggggggggggggggggggggggggggggggggggggggggggggggggggggggggggggggggggggggggggggggggggggggggggggggggggggggggggggggggggggggggggggggggggggggggggggggggggggggggggggggggggggggggggggggggggggggggggggggggggggggggggggggggggggggggggggggggggggggg",
"gggggggggggggggggggggggggggggggggggggggggggggggggggggggggggggggggggggggggggggggggggggggggggggggggggggggggggggggggggggggggggggggggggggggggggggggggggggggggggggggggggggggggggggggggggggggggggggggggggggggggggggggggggggggggggggggggggggggggggggggg",
"gggggggggggggggggggggggggggggggggggggggggggggggggggggggggggggggggggggggggggggggggggggggggggggggggggggggggggggggggggggggggggggggggggggggggggggggggggggggggggggggggggggggggggggggggggggggggggggggggggggggggggggggggggggggggggggggggggggggggggggggg",
"gggggggggggggggggggggggggggggggggggggggggggggggggggggggggggggggggggggggggggggggggggggggggggggggggggggggggggggggggggggggggggggggggggggggggggggggggggggggggggggggggggggggggggggggggggggggggggggggggggggggggggggggggggggggggggggggggggggggggggggggg"
};
