/* XPM */
static char * angel_xpm[] = {
"276 45 65 1",
" 	c None",
".	c #030307",
"+	c #3F3C3A",
"@	c #A76E17",
"#	c #9A968E",
"$	c #FEB506",
"%	c #FAD066",
"&	c #2B2F2E",
"*	c #F8E782",
"=	c #9E9B97",
"-	c #F18E0E",
";	c #E9BB47",
">	c #262826",
",	c #85530E",
"'	c #797727",
")	c #1D2020",
"!	c #BAB7B6",
"~	c #FEEE86",
"{	c #D1D2D0",
"]	c #5E5E16",
"^	c #6F440F",
"/	c #F9D370",
"(	c #AE8137",
"_	c #7A8626",
":	c #F8D880",
"<	c #FDC855",
"[	c #F7EEDF",
"}	c #1A1814",
"|	c #5B595E",
"1	c #623606",
"2	c #9E968E",
"3	c #CDCAC9",
"4	c #DCD7D1",
"5	c #090B0C",
"6	c #EFD392",
"7	c #F9F6E9",
"8	c #FDA808",
"9	c #F3E6D3",
"0	c #E2C084",
"a	c #6E6B67",
"b	c #5A3307",
"c	c #616260",
"d	c #7C7B7D",
"e	c #ABA9AA",
"f	c #FA960A",
"g	c #EFE0D0",
"h	c #32423E",
"i	c #CD7806",
"j	c #4D2806",
"k	c #D5BFA1",
"l	c #363534",
"m	c #E9E9EB",
"n	c #EEA931",
"o	c #F6FDFD",
"p	c #AD6506",
"q	c #908D89",
"r	c #4A4A49",
"s	c #6C5A46",
"t	c #C5C4C3",
"u	c #967257",
"v	c #EAD8C8",
"w	c #FEFAEE",
"x	c #FDBB3D",
"y	c #F6EADA",
"z	c #FDA926",
"                              www w ww  ww                                                          w  w w  ww                                                          ww ww ww ww                                                          ww  w ww w w                           ",
"                               w  w   w w                                                          ww ww  w   w                                                         w   w      w                                                          w w  ww  w  w w                       ",
"                         ww w w          w  w                                                  ww w           ww w                                                  w  w      w     w ww                                                   w w   w        ww                        ",
"                         w w w           w    w                                               w  w w              ww                                              w  ww               w w                                                   ww             www                      ",
"                         w www               ww                                              ww ww             w                                                    w  w            w   w                                                 ww                 ww                     ",
"                          ww ww          w    w                                              w ww ww          w  w                                                    ww           w  ww                                                    w              ww                       ",
"                          w  w w w   w  w w ww                                                     w  ww     ww   w                                                 ww  w w w      w w w                                                     ww w w w w   w                         ",
"                               w  w    w                                                            w     w w                                                            w ww ww  w                                                           w  w w  ww  ww                        ",
"                                 w  w   w                                                               w                                                               w         w                                                           w w   w                               ",
"               #   q#             )                 #                                  #                  )            #                                                   )                                                                      r    a                            ",
"                # e             5) 5 )            y=#! #                                #             )) ))         !=    3                                  v  #           ) ))                                                    =#          +  ))} c           #!               ",
"               4 v   y          5  .. ..          y !4 ! g                            g4 g            5 . 5.            v                                     v3          5 5 . .        v                                      3  v  !           .  5} &        g ! g              ",
"             vgg v  9y        . 5}  })            yg  v g                             v v g         . } 5} 5        !3 g v                                    v  g       . } 5 )  h       v4                                     4 vg t        5a  c=> ! c     g9g gg v             ",
"             4  v vv  y {      5  & r q|hr     { y  g    vv                          v gv 9g        5  &  & |hr       v v g                                    gg        5 r& r& |  r      v                                      v gg       55 4 { ! {   #    g  g     4           ",
"          vv vgg g  gg {      )  ! 9  m   r    {  gg  g g vv                       4{ g g g 4    >>)  !q { m  r     g  g vg                                   gv        ) 3 q  qm3 r    g g  4                                  gg g  gg      d[7  {3 {  q   4 4g g gg 4            ",
"           gg g g 9 9 g4     >  {!n 6 g! |       9 9 g  g  gv                     v v g g  9 4      k{  g 0g u      99 g g g                                 v  y      > k k g6  ! |       v4                                   v g 9y  y      {  { v4 0 a    4  g    v 4v          ",
"         vv  g 9g9 y [        !0  -  ; ( a     y9   y  g gg  v g                  v g gy   yy     @ k --     u ] 9 y  y  g  v                               g  yy y      k --  ;  u       gg                                   g gg y [y     )&, x :  :/ ar .  9  99  g  v4         ",
"        g  99 9  [  7  y     @@ nz y /~:a ]     y 7 [ [  g 9  g                    g 9[ y [ y     @   n y*/~: ]  9  [  [[ 9   v                               y  y     @( n 0y* ~ a]]    [ vv                                vv 9   [ [ y99 . ,    / [  < > . y  [  yy gg           ",
"        ggg  9 [7  7 7   gm }, xz %~ / ~ ' .   y 7 7 [  y 9 gg gv                gg g y[ [ 7 4  .},  z %  /* 6 l& y [77 [[ 9 v                               g 77    . , x x   / ~ ' .  y [ gv                               4 g9y[ 77 [  d  ^ -z % %y* %e } ! 7 [ 7  9 gg          ",
"      4v    99 7  7   77 4 .   x ; ( %  * 5  tmy7 7 7 77  9  vg  4              4 gg9g  7 77 {      x ;<( % 6*_ 5 {[ 7 w [ gg                                v 77  . .. nx( <( %  * 5.} y [[                                   g    7   9 5 5 - ; ( <  / '  #!3 7 777y9  g          ",
"     { vg 9y [7  ww 7   7  . }b  ,    ^ q    r  77 7 w 7 79 y gg {{               9   77 w  [ c .5}b ^ @ ^ ^  &)) | 7  w  [[ g                                77 t! . 5}b ^, b  ^, &   r 77 g                                gg [[ w   7 >   } ^, ^ ( , ^^ .    7w     9g 4         ",
"     {4 gg  7  w w w 7 7d .}&>  1  jj>  5)& & r{  7 ww w7 7 yy  g               4v 9[7  w w   ..    5 j j > > )  + g[ 7ww [  ggg                            99  [  ..)  }51 5 j>  5 &l |= 7 9                                 gy    w 7 3 5 . 5  5 b& }}j 5  |3[ www77  yg          ",
"      gg  9  7  w ww 7   .    .   5  > ) . ll >  7 ww w w 7  yyg g                g  7  w 7[e . &l . + 5 h a . &l t4 7   w yy  g                             99 7 5  & } 5  } h> ).   l q 77                               vg y   7w w 9 d . 5. 55   d 5 }5 hh  7  w  7   g         ",
"    gg  y 9   7 ww  7 #+ . 5).. da  ! != 55  l cd 7 www      y   gg            ggg 77    w   | . }  + a 3! != 5  l m 77ww    y93 !                         3{    cr . ).  dc 3 a! . 5 +  [ [ y                             ! y y   ww 7 d)} l )l c e te |r l |ad ww    77 g         ",
"     gg9          w 7! + ) .  ce   ea   !& 5 l c d             y g                y7      4e r} .. c d >   = ! .5 + 4  m     y v                           3       ).   ce + e ) 3 &. &+| ! 4{ !                          e3 y     w   =   l r +# t c  m  |  + q [     7 y !d       ",
"                         )} ..=  &.  5 4  . . l c               9 qdd          q yy        e   } . =   . 55d {  . l   dq      g g                                  ) ... t  . 5 d {  .  +  ca e                            g             +ll rc 7 d r {o a  &l> !        [  q       ",
"     gg9              |+&  5 . 4  > +    5   5 l+                g              vg          +l 5  .)  {>r  [ a . 5 + r                                           l& 55 .)4 3 r  [  5. 5} l+                                                 5} 7  5} .> m4 55 }&          g{q       ",
"     9                 l &55 .. 3d + > d  . 5 }l                               g            l & 5 . >3   >> d  . 5 ) l         !                                 l & 5 .  3 5 >> d . 5 5 l                                  !            l) 5  { . > 5 >  55 5 >          v         ",
"                        +l  5  . .. }. ..5 5 } >                                             l } 5     .> .  .. 5 )           e                                  lll  5  . ..  . .. 55  }                                  e e          l  5 .. .   r  . 55 555 ll                  ",
"                        l .  .  .  r .5 . 5   > l                                           l  .. .....  +.55  5 . &l                                            l } .. . .. r+ 5  5  .. l                                               }} .. . ..5>.. 5   .  }                    ",
"                       l . .   5.. +  5  5. .. &                                              .. . . . }r& 5  5.. .                                              l .  .  5. }r 5 5  .. .                                                &} .  5.. .   .  55. .} l                   ",
"                       l .  ..55 } q 5 }5  .  .                                              55 }.. 5 }   5 }5   ) .)                                            l . }..5  }  & l 55 . 5.)                                              l . &    5 a| l5 5   . &l                   ",
"                       l&  c 5 l|   { |  5  l& l                                            l +a  5 l| d { | 555 l&} l                                            & a    l r 7 &|   5 l& ll                                            l . &|r 55 74 7  5 l r..5                    ",
"                       l }c { d  e o 4 # >|  }5                                            l ) a { d d o o dq >  r  &                                            l } ! & 4d  oo d e |  } >                                               } dc {  o  7o t | a +                      ",
"                        .  m o o7 o  74 3  e 5                                                . moo o oo7 7  3  e 5.                                              .. mo oo oo  7 33 ee  .                                               c cd oo oo77 m m{ e |r | a                  ",
"                          cdo7   m  m {  =e + .                                                cd  7 m  mm 3  e=                                                    c    7m 7 m 3  e  +&                                                 . !mm o  m m44  ! # >.                     ",
"                         +   mm m 4m 3 !e= a l                                                 c  [ 4 m4  33 e qa+ l                                              &+ = [m4 m m 33!e q + l                                                 }r m om4 4 4 !!! #   .                    ",
"                        & >e3  4 44t t  e dd &                                                &>e3! 4  4tt3!  =d   l                                               >  3   3 4  3 e   d &                                                   &  m  4 33! t  e 55                      ",
"                          )  e! !  e!! e=# + 5l                                              & ) !   tt  !  e # + 5                                                 )+ e!  t e! e =#q .                                                     |a  t !  ee == l  @@                    ",
"                          } ,  a =  q =  q  .                                                   j =d   d  q= | r  ,                                                 } ,  a  d  d d  r5 ,                                                  ii r e  ! d q = }>^ @                     ",
"                           ,^, | adq d rr }5 zz                                                  ^  | ad dds r }5 z                                                  ,^,| sa  d  rr^   zz                                                  i rl a   d cas)}  ,                      ",
"                          f  ,  ^   2s  ^^ ,f                                                  f- ,, ^ q = 11    ffz                                                f-  ,  ,  =s11 ^ ,f  z                                                  f  1  uu c s  ^ii <                     ",
"                          f8f i ,   =  p ,p ff                                                   f i    = 11 -,pf                                                   f  p f,  =    - pfff                                                  zz 8-,p    |  ,p   z <                    ",
"                            8  8 8      f f                                                     88$ 8        f  ff                                                   88 888       f f                                                      z    --    - - f88                       ",
"                            $ $888     f  8                                                       $   8     f888                                                       $  8        8                                                        88 $        ff  8                       "};
