/* XPM */
static char * climber_skateboarder_xpm[] = {
"45 90 65 1",
" 	c None",
".	c #020206",
"+	c #FDD16D",
"@	c #B80403",
"#	c #F79611",
"$	c #7F7E7F",
"%	c #A20303",
"&	c #565454",
"*	c #C87708",
"=	c #3A3937",
"-	c #CF5B0B",
";	c #AFAFB3",
">	c #2A2B2A",
",	c #8F6127",
"'	c #D33E39",
")	c #731012",
"!	c #FEDD87",
"~	c #202120",
"{	c #935608",
"]	c #AEACAE",
"^	c #D0312C",
"/	c #E7E7E6",
"(	c #1B1A18",
"_	c #969596",
":	c #161616",
"<	c #A34B35",
"[	c #784610",
"}	c #D2A45B",
"|	c #B3180A",
"1	c #EFEEED",
"2	c #620707",
"3	c #673F12",
"4	c #0F1214",
"5	c #F6CE86",
"6	c #DB7F0F",
"7	c #8C3031",
"8	c #FDA90C",
"9	c #4D4D4D",
"0	c #6E6D6B",
"a	c #E71E1E",
"b	c #FADA8E",
"c	c #842626",
"d	c #D55554",
"e	c #A8A8AB",
"f	c #7B5E35",
"g	c #D6BD8B",
"h	c #F2D696",
"i	c #0D0E0F",
"j	c #F5FDFD",
"k	c #626162",
"l	c #FADA9A",
"m	c #474642",
"n	c #D2D0CC",
"o	c #5E0206",
"p	c #CA1414",
"q	c #FBA139",
"r	c #FEC450",
"s	c #FCA645",
"t	c #C70404",
"u	c #412E14",
"v	c #BDBDC0",
"w	c #0A0A0B",
"x	c #F48514",
"y	c #FCC378",
"z	c #DCDBDC",
"     p^d                                     ",
"     t^'                                     ",
"    atpp'                 .9_                ",
"   aattp''                .~&k               ",
"   aa@@p^'                4w4&k              ",
"   pp@@t^'                m~w=m              ",
"   )t%@t^'                k>w4=              ",
"  .o@%@p^'                0=w.=k             ",
"..i2@%%t^'                 ~:.(=             ",
"i:>c@%@p^'                 =>ww4             ",
":~&7@%|p'd       &=>>>=>m& ==w..             ",
".4mc@%'x*#r86,=:wi4wwi4~~~:4ww..  -6         ",
".i>)@%-8#q86f=~(~~~(iwww4:i..... xxxx        ",
"  .2@%-8886{ui:=mk&m>~4::4...... sqqq        ",
"   %@%-8#x*>~uk$____$k&m=~i..... qqqq        ",
"   pp%-8#6{~=0$__ee;;__$0k=(..w: qqqx        ",
"   pp%-8#*[uk_e;;;vvvvnvve$m:.:> 6qsx-       ",
"   pp%'##*[m0_e;vvnz//z//zv_m44~(,sys*(  .   ",
"   pp%^-x,3&$_;vvzz/1j11j11v0~(>(,syy}u~~w~  ",
"   pp%%|-{30_;vnn/1jjjjjjjjze>(~(fs5!n&>~w>& ",
"   pp%@@p[&0_]vnz1jjjjjjjjjz;=~~(,sllg,>ww:>&",
"   pp%@tp<$$_;nn/jjjjjjjjjj1;m>~(,sllg0k0(i:=",
"   pp%%p^,_$_vnz/jjjjjjjjjj/vm>~(,s!lgk_v=wi4",
"   pp%%%%'$$_vnz/jjjjjjjjjjze>(>~,sb!g_$$(i:(",
"   pp%^-'{,$_vz//jjjjjjjjjjn$~:>(0sr5hv$mii::",
"   pp%-8#-[0_vn/1jjjjjjjjj1ek::~~f}}}gz$:i:(~",
"   pp%-88,3k_vz/jjjjjjjjj1n$>w4~(m,f3=9=~:~=9",
"   pp%-r8*[m$vz1jjjjjjjj1z_9:w4>(>>u~~>~(:>mk",
"   pp%-886{=kez/jjjjjjj1ne0>i.:((((~~~((~(=& ",
"   pp%-8886[&$vz1jjjj/zv_km=>~4ww>&=>::=&    ",
"   pp%-888x-[m0_evvv;e_k9m=>>:ww>&0m>:(m     ",
"   |p%-88##6[~>m&kkk&9=>>==>~w.4&0_          ",
"  42@%-#66    >(::::4:~>=>=~(.w(&0           ",
" 4w2@%^---     :4>>(~~~~(((4i..i>~           ",
"i442@%%p^'       k9>==>i..........4m9        ",
"i4mc@%@t^'              ...........4w..      ",
"i:97@%@t^'               ...............     ",
"i(mc@%@p^'                  .............    ",
"~~>)@%@t^'                    ...........    ",
"~>~)@%@p^'                     .........     ",
"  =)@%@p^                                    ",
"   |p%|'                                     ",
"   ap^'                                      ",
"   a^d                                       ",
"   d'                                        ",
"                                      d^p    ",
"                                      '^t    ",
"                 _9.                 'ppta   ",
"                k9>.                d'pttaa  ",
"               k&4wi                ^^t@tpa  ",
"               m=w~m                '^t@%pp  ",
"               =:w>k                '^p@@t)  ",
"              k>.w=0                '^t@%@o. ",
"              =(w:~                 ^^p@%@24.",
"              4ww>=                 '^@@%@c=:",
"              ..i== &m>=>>>=&       d'^@%@7&~",
"          6-  ...44:~~(:iwii4.(=,68r#*x'%@7m4",
"         xxxx .....i4:iwwi:~>~(~=f68##8-%@)~i",
"         qsqq ......4:44~==&&9=(4u{6888-%@2. ",
"         qqqq .....w~=m&k$____$k>~u,x#8-%t%  ",
"         xsqq 4ww.(=k$$__e;]e___k=>{6#8-%pp  ",
"        -xqq6 ~4w:m$evvvvvvv;]ee_ku[*##-%pp  ",
"    .  ~6qys,~~:4m$nz/////nnvv;e_0m[*##-%pp  ",
"   ~w~(u}yys,(~4~$v1111j11//zvv]e$&3-x-|%pp  ",
"  &>w~>&glhsf(~(>ezjjjjjjjj1/nvv]$03,-|%%pp  ",
"k&>(ww=fnlls,:~~=ezjjjjjjjjjjznv;_0k7|t@%pp  ",
"m=(w(k0fglls,(~>m;/jjjjjjjjj1/zn;_$$<|t@%pp  ",
"::iw>v_&glbs0~~~mv/jjjjjjjjjj1znv_$_,^p@%pp  ",
"::4i~$_$5h!r,(>~>ezjjjjjjjjjj/znv_$$'%%%%pp  ",
":((i4m_v55rsf:~:~$njjjjjjjjjj1/zve0f{'-^%pp  ",
"~~~iw4$nv}}}f(~4:ke1jjjjjjjjj1zzv_0[*#8-%pp  ",
"&&>~:(=9=3ffm(~4i>$njjjjjjjjjj1nv_&3,88-%pp  ",
"kk9u((~>~>u=>(~4w49_z1jjjjjjjj1zv$m[*88-%pp  ",
"  k=4~((>~(~(:~4wi=0en1jjjjjjj/ze0u,688-%pp  ",
"     &=::>=9>ww4(>>mk_vz1jjjj1zv$&[6888-%pp  ",
"      =:(~m$&>wi:>===&0$e;vv;;_0m[,x888-%pp  ",
"           _$94.i~>==>>m9&k0kk=~~[x##88-%p|  ",
"            0&:w.:~>==>~(4::(4~>    668-%@24 ",
"            ~>4..44:((~>~(:~>4:     ---^%@2ww",
"         9m4..........i>==>9k       '^t@%@24i",
"       ..w4...........              ^^p@%@cm(",
"      ...............               '^@@%@7m(",
"     .............                  '^t@%t7m(",
"     ...........                    '^p@%@)~~",
"      .........                     '^t%%@)>>",
"                                     ^p@%@)= ",
"                                      '^%p|  ",
"                                       ^^aa  ",
"                                        '^a  ",
"                                         'd  "};
