/* XPM */
static char * explosion_xpm[] = {
"96 96 65 1",
" 	c None",
".	c #030202",
"+	c #FEFE03",
"@	c #260202",
"#	c #FEE402",
"$	c #FEC502",
"%	c #460202",
"&	c #FEFEE6",
"*	c #FE9A02",
"=	c #6E0202",
"-	c #860202",
";	c #FE6E02",
">	c #9E0202",
",	c #FEFEC4",
"'	c #FE4D02",
")	c #C20202",
"!	c #FEFE94",
"~	c #FE3802",
"{	c #CF0202",
"]	c #FEFE72",
"^	c #FE2902",
"/	c #D60202",
"(	c #FEFE52",
"_	c #DA0202",
":	c #FE1E02",
"<	c #DF0202",
"[	c #190202",
"}	c #FEFE3B",
"|	c #E60202",
"1	c #FE1402",
"2	c #EA0202",
"3	c #100202",
"4	c #FEB802",
"5	c #FEFE2A",
"6	c #EE0202",
"7	c #FEEA02",
"8	c #3A0202",
"9	c #FE8A02",
"0	c #FED102",
"a	c #FE0B02",
"b	c #FE6502",
"c	c #4C0202",
"d	c #FEEE02",
"e	c #FEFE1D",
"f	c #F20202",
"g	c #7E0202",
"h	c #0A0202",
"i	c #FEA902",
"j	c #FEFEEA",
"k	c #560202",
"l	c #FEDC02",
"m	c #FE5902",
"n	c #FA0202",
"o	c #FEF702",
"p	c #FEFEDA",
"q	c #FEFE14",
"r	c #FEFEFD",
"s	c #930202",
"t	c #AC0202",
"u	c #FE4302",
"v	c #FE0302",
"w	c #FE7902",
"x	c #2F0202",
"y	c #FEFEAB",
"z	c #600202",
"                        .......                                                                 ",
"                        .......                                                                 ",
"                        ........                                                                ",
"                        ........                                                                ",
"                        ........                                                                ",
"                        .........                          ....                                 ",
"                         .........                        ......                                ",
"                          ...........                    ........                            ...",
"                          ....h3[[....                  .........                        .......",
"                          ....3@x@@[3..                333333....                       ........",
"                          ...h[xckk8@[h..             3[@888@[...                      .........",
"                           ..3@cgssgk8[3h...        .h[8zgs-zx[..                    ...........",
"                           ..3@z>t{)sgk8[3...      .h[8z>)))>=83..                  ............",
"                           ...x=t_2|<)>=%@[h.......h3@ks)2ff_tkx3..             ................",
"                           ...@zt|nff2/)>kx[h......3@cs{2nnff/sk[3h          .................  ",
"                           ..h@z)|nvvnf|{>gk8@@@@@x%zs)2nnnvf|)g%[3         .................   ",
"                           ...@k)6nnnnnvf<)>=zzkzz=-t/6nnvnvnf|t=%[3       hh3333h........      ",
"             .......      ...h[k{6nnvnnnnf6<{{)))){_<ffnvnvnvvn|t=%[3.....h3[[@@@[.......       ",
"            .........    ....h@z)fnnvnvvnnnnf222||2ffvvnnnvnnnnf<t=8[h....3@8ckk%@3.....        ",
"            ..................8g{fvnnvnnnnvnnnnnnnnvvnnnvvvvvvnvf<t=8[..h3xczg-=k8[...          ",
"            .................3cs_fnnnnnvnnnnnvnvvnnnnnvv:^^:1vvvnf<tg%[[@8k->>sgk@[..           ",
"             .......hh33h...38=t6nvnnnvvvnnnvnvnnvnnvv1^m;9;u^annvf<t-=zz->t)tsz8@3h            ",
"              ......[[@@@[[[xz><fnvvva:::avnnnnnnnvnva~;i$049':annvf<{)tt/</{>g%@3h             ",
"               ....3@8ckkc8c=t<fvvnv1~mmm~:avvvvvvnv:~;4l7dd$i'^vvnvf66|266<{-k@33              ",
"                ...3@c=ssss>)_fnnva:'9iii9;u::111:^~'94#o+++d0*m:anvvnnnffn<)=8[h.              ",
"                 ..3@ks)///<6nvnna:m*07d#04*b''u''m;*07++++++d0*':annnvnvvn/tc@..               ",
"                 ..h[k>{2fffnnnva^'i0d++od7l$$444$$0ld++++++++d0*u1vvnnnnff)g@3.                ",
"                 ..3@=t<fvvvnnva:m*0d++++++oo7#dd7odo+++++++++o7$;^vnnvvvn<tk@h.                ",
"                 ..[8=)6nnnnnna:'*0o+++++++++++++o+++++++++++++ol9uavnnnnf/s%3..                ",
"                 .[@k>_fnvnnva:'*0oo+++++++++++++++++++++++++++ol9uannnnf6)=@3..                ",
"                33xk-)6fnvvna:m*$d+++++++++++++++++++++++++++++o0w~vvnvvn|tk[..                 ",
"      ....    ..3xks{2nvnnna:'*0do++++qee++++++++++++++++++++++o0;^vnvnnf<-%3..                 ",
"     .........h[@ks{2nnvnva^'*0d++++e}(](5eq+++++++++q+++++++++d4m:vnnnv2)zxh..                 ",
"     .........[xks)6fnnnv:^b*07++++5(]yyy]](5eqqqee5555e++++++oliu1nnnvn<tc[...                 ",
"     ......h3[xzs{2vnvva:';i#do++qe(!,jjjpy!](((}(](]]}5q+++++o09^vnvnvv{s8[...                 ",
"     .....[[xc=t{2fnnva^b*$#o++++5(yprrrrrjp,,,,y,,,y,]}q+++++o$w:avnnnf)gx3...                 ",
"     ...h3@8zst_6nnvn1^;i0do++++e(!pjrrrrrrrj&&jjj&jjpy(5+++++o$w^vnnnvf{-x3...                 ",
"     ...h[8z>_2fnnvnv:m4#o+++++q}!pjrrrrrrrrrrrrrrrrrj,!5q++++o$9~1nvnnn/>c@...                 ",
"      ..3@%-t2fnvnnvv~;$o+++++q}!,rrrrrrrrrrrrrrrrrrrrpy(5++++olim^vvnnn<)=%3hh                 ",
"       h.[8=t<nvnnvna~9ld+++++q}yprrrrrrrrrrrrrrrrrrrrrp!(5++++dl*m^avvnf_t=%@3                 ",
"        h3@ks{2fvnvva~w0d+++++e(yprrrrrrrrrrrrrrrrrrrrrjp!(e+++odl*':annff<tg%@3                ",
"         h[8zs{6nnnnv:milo++++q}!prrrrrrrrrrrrrrrrrrrrrrjpy(5++++d0i'^vvvnf<tgk@3               ",
"          3@8z>)2fnvva~bi#o+++q5]yprrrrrrrrrrrrrrrrrrrrrrj,y(5+++od0*m:anvnf<)-k@[              ",
"           h[xzs)2fnnva^;47o++++5],&rrrrrrrrrrrrrrrrrrrrrrr&!(e++++dl*':annnf|tg%[...           ",
"            33@k-{6vvva1~;$7++++q5],jrrrrrrrrrrrrrrrrrrrrrrj,]}q+++od$9~anvvnn<tzx3....         ",
"            ..3@kt_ffvnv:~90+++++q}!,rrrrrrrrrrrrrrrrrrrrrrr&y}q+++++0iu1vnnnn6{-c[.....        ",
"            ...3x=)fnnnva:m4d+++++5],jrrrrrrrrrrrrrrrrrrrrrr&y(e+++++#i'1vvnnnn|>k@........     ",
"            ...3@ztfnnvnv1'id+++++e(yjrrrrrrrrrrrrrrrrrrrrrrp!}q++++o0*u1nnvvvf<tz[h........    ",
"            ...h@zt6nnnnv1'i#+++++e(yjrrrrrrrrrrrrrrrrrrrrr&y]5++++o7i;^annnnf<)g%[..........   ",
"            ...3@=)6fnnna:;4do++++5],jrrrrrrrrrrrrrrrrrrrr&,]}q+++od4w~1vnvf6<)sc@3..........   ",
"            ...@c>_nvvvn1~*0+++++q5!,rrrrrrrrrrrrrrrrrrrrp,]}q+++o#4w~aannvf{>=%[3..........    ",
"            ..[8=)|nnnnv^m4#o++++5(,&rrrrrrrrrrrrrrrrrrr&y]5q+++o#iw~:annf2)>z%[3h.........     ",
"           ..3@zt<fnnnv1'90o++++q}!pjrrrrrrrrrrrrrrrrrrp,]}++++o74w^1vnnf2{skx[h...             ",
"          ..[@k>{6vvnv1~9$do+++q5!,jrrrrrrrrrrrrrrrrrrj,]}q++++7$;~1vnnv2)gc@3..                ",
"         .h3xzs)ffnvv1~w47o+++e}],jrrrrrrrrrrrrrrrrrrr,!}e++++o$9u1vvnnf{sc@3..                 ",
"         .3[k>{6nvnnv^;4#o++++}]y&rrrrrrrrrrrrrrrrrrr&y(e++++o7*'1vvnvf2tzx3...                 ",
"        ..[8=)2nnvna:mi#o++++e]!&rrrrrrrrrrrrrrrrrrrj,]e+++++d0w^avfvvf<s%[....                 ",
"       ..h[k><fnnnna^w$d+++++5],&rrrrrrrrrrrrrrrrrrr&!(q+++++o0w^avvnvf/-83....                 ",
"      ...3@=t6nvnnna~w0o+++++5],pjjjpp,p&rrrrrrrrrrj,]5++++++ol9^1fnnvf_-8[....                 ",
"      ...hx=t2fnnvnv^;47+++++q(],p,,!!]]!,&rrrrrrrrp!}q++++++ol*u1vvnnn|>c@3...                 ",
"       ...[k>{2nnnvv1'9$d+++++5}]]]((}}}(]y&rrrrrrpy(e+++++++o74;^annnnf)-k@3..                 ",
"        ..[@zt{|fffva:'*0o+++++qeeeqq+qqe}],&rrrjp,]e+++++++++o0*u1vvnnn|{skx[3h                ",
"         .h[xks)<fnnva:m*ld++++++++++++++q5]ypjjpy]}q+++++++++oli'1vvnnnf<{szx[[h..             ",
"          ..[xkgt_6nnva:m*07++++++++++++++q5]!yy!]5q++++++++++oliu:nnnnnnf<)sz8@3...            ",
"           ..h[8=t<fvvvv:'*0d++++++++++++++qe}(]}eq+++++++++++d$9~anvvvnnf|/tsk8[3...           ",
"            ..h[8=t<ffvva:'*lo++++++++++++++qqqeq++++++++++++o09':annnnf2<{)t-zc@[h....         ",
"             ...[%-)2fvvva^b*lo++++++oooo++++++++++++++++++od0*m:avnnf|{t>-g=zk%@3h.....        ",
"              ..h[ks/fnfvva^m4ldooo7#l00ldo+++++++++ooo+++oo0i':annnf<)-=k888xx@[3.......       ",
"               ..h@kt|vvfvv1^;*$l0$i*9;9i$#o++++++od#ll#dd70*':avnnf<t=8@[33[3[333.......       ",
"                ..[8-)fnvvvv1^mwww;'u~~umw4#o++++o74*99*ii*w'^avnn6_>=8[h......h.........       ",
"                 .h@kt<fnnvvvv1::^:11vaa:~w4#o+oo#49'~~u'm'^1avvnn|)zx3..................       ",
"                 ..38g{fnvnfvvvaavavvvvvva~;4lddl4;~1vaa:::avnvnnn)s8[....    ..........        ",
"                  ..@zt|fvvvvnnnvnvnvnnvvv1^;*ii*;~1avvvvaavnnnnfftzx3...      ........         ",
"                  ..3%-/fnnnnnnnnnnnnnvfvnva^ubmu^vvnnnnvnnnvnnvn2>%[...                        ",
"                  ..h8={6nnnnvnnnnnnnnvnnnvva1:1aavvvvnnvvnnnnnnf|s8[..                         ",
"                  ...@z{6nnnnnvnnnnnnfffnnnnvvvavvnnnnvnnnvnvvnnf/-83..                         ",
"                  ..hxz)2nvvnnnnnff6|<__2fnnnvnvnnnnffffnfnfffff<)=x3..                         ",
"                  ..h8=)2vnnnf6||<{t>sgst{2vvnnnnnnf2<|2666f<_<{)>z@3..                         ",
"                  ..3cs{2nnf2/t>>-gzc%8cz-)|fvnvvn2{tss>t)tt>-s-gz8[h..                         ",
"                  ..[k>/fff<)>=c88@@[333@%-{6nnnf2{sz%%k===zc8888x[3...                         ",
"                 ..h[z>{|6_t=c@[3h......h[c-{2ff2{sk@[3[@xx@[333333.....                        ",
"                 ..3@k>){)>=%[3..........3xks)__)-k@3.hhhh3.....h........                       ",
"                 .h3@cg>>sz8[h............3@k-tt-c@3.....................                       ",
"                ....[x%kc%x[3..          .h3@8kc8@3.......     ..........                       ",
"               .....3[@@@[[3..            ..3[@@[[.......       .........                       ",
"               ......h3hhh.               ......h....              .......                      ",
"              ............                ..........                ......                      ",
"              ...........                  ........                  ....                       ",
"              .........                     ......                    ..                        ",
"              ......                        ......                                              ",
"               ....                         ......                                              ",
"                                            ......                                              ",
"                                             .....                                              ",
"                                             .....                                              ",
"                                             .....                                              ",
"                                             .....                                              "};
