/* XPM */
static char * faller_xpm[] = {
"360 45 65 1",
" 	c None",
".	c #030303",
"+	c #504F4E",
"@	c #FC960B",
"#	c #B79549",
"$	c #FB5A03",
"%	c #FDCC5D",
"&	c #FED374",
"*	c #3B3938",
"=	c #D25E0C",
"-	c #FEDE8E",
";	c #A55711",
">	c #FEB94F",
",	c #2B2926",
"'	c #828282",
")	c #DDDBD7",
"!	c #F9AF52",
"~	c #24201C",
"{	c #FEE8A8",
"]	c #FEAE06",
"^	c #F97109",
"/	c #A8A196",
"(	c #6F6E6B",
"_	c #151413",
":	c #E9C989",
"<	c #EFEEEA",
"[	c #8C3B09",
"}	c #E8B266",
"|	c #A7844D",
"1	c #865B25",
"2	c #FD8509",
"3	c #ACACAC",
"4	c #FDAA19",
"5	c #FED186",
"6	c #63625F",
"7	c #66390F",
"8	c #662C04",
"9	c #BF923F",
"0	c #FEB42E",
"a	c #F5F5F1",
"b	c #A97544",
"c	c #CB955B",
"d	c #D5791D",
"e	c #0F0E0D",
"f	c #765924",
"g	c #B9B9B8",
"h	c #FDA414",
"i	c #351605",
"j	c #E8E7E2",
"k	c #CCCAC6",
"l	c #563714",
"m	c #FEC63F",
"n	c #989590",
"o	c #0A0A0A",
"p	c #6F532B",
"q	c #532A05",
"r	c #FC942A",
"s	c #D8D6D2",
"t	c #F69C36",
"u	c #A66C31",
"v	c #4E2106",
"w	c #FEDBA6",
"x	c #F6FEFE",
"y	c #2A1908",
"z	c #BE9560",
"                                                                                                                                                                                                                                                                                                                                                                        ",
"                                                                                                                                                                                                                                                                                                                                                                        ",
"                                                                                                                                                                                                                                                                                                                                                                        ",
"                                                                                                                                                                                                                                                                                                                                                                        ",
"                                                                                                                                                                                                                                                                                                                                                                        ",
"                                                                                                                                                                                                                                                                                                                                                                        ",
"                                                                                                                                                                                                                                                                                                                                                                        ",
"                 n6*_o..._**                                                                                                                                                                                                                                                                   n6*_o..._**                                  (+,e...._**                 ",
"                ',_eo...oe__,                                 3'*~o..._*                                     6~e...e~                      ++                                +++                       6~e...e~                                   3'*_...._*                                  ',_eo...oe__,                                +___e...e__,+                ",
"               ++**6+,._+(6*,(                               (6*,_...o_,~                                   ,,_o...o_e                     ++*                              e**                       ,,_o...o_e                                 (6*,_...o_,,                                ++**6+,._+(6*,(                              ,,*+(*~o*+(+*,                ",
"               e_+n3'+o,'gg'*('                             '6~_,~e.o_*~__                  '6,*+(         e_~~_.._~,__       ++*,,~6'      +,_,,        **_o...o~~       ,~e~        '6,*+(         e_~~_.._~,__       ++*,~,+'                '6~_,~e..~,~~,                               e_+n3'+o,'gg'*('                             __(/3(*_6ngg6~                ",
"               e~'3/*,q++6sg(6+                             ***(/'*.,(g/6,'                  n'*,_._*'    +,+nn+.o6n/'**  (+~.e_~+6          **e._6     ..ee....e_o.   _o..,*          n'*,_.e*'    +,+nn+._+/3(,*  '+~.e_,*6                   ***'n'*.,(g/6*'                              e~'3/*,q++6sg(6+                            n*,3/(*l++6'sn+6               ",
"               ,~(/z;1bnnn)36+6                             *,(//6l*+(nkn+6(                  n+*,ooy*,  **+'3(+~,+'k3',_e*,e._,,+            *_o.,*   *~*66*.o*6(+,e .o.o~*            n+**oo_*,  **+'g(+~,+nkg(,__*~e._,,+                    *~(n36**+(nkn+6(                             ,~(/z;1bnnn)36+6                            '+,zcu[b//n/)n+6(              ",
"            6((*v1dd^r%{w:-/+,+(                           (*_'/n7+u'6()g(*+(                    6~o..._+*_6/g+7p666k)3,.....e,+               ,e..e~ *+*'g/6y~63s/+_....e*                6~o..._+*~63g+lp666k)g,.....e,+                     (*~'/nlpu'6(jg(*+(                         6((*v1dd^r%{w:-/+,+(                           6+7=^^^4{{---|*+6              ",
"        '(+,~_~l;d^dt!5w{-&9f___oy,+(n            '(*~__ooe~e~1bd=2:s::-/+___..o,*+(              6,....ee_+br=dtkkg&k'~...._++                 ......e~+ng+*lpp6gk3~...._                  6,...._o_+dr=dt:kg-k'~...._+6             '(*~__ooe~_~1bd=c}s::w/+___..o,*+(              '(+,~_~l;d^dt!5w{-&9f___oy,+(n                  #'67;d$^t!>w{w&%9p,,+(            ",
"       ,**~_o..v;^^^rtt!>>m}1y...oy~*+*          ~**,eo.....,[=d22!&{{--zf_....._,,*,              +*o...i8;d224%--5-}|~....~+                  *,....._6|}[;b/znkk/~...,+                   +*o...y7;d^2t5-w5-}|~...o_+             ~**,eo.....v[=d22!-{{-&zf_....._,,*,            ,**~_o..v;^^^rtt!>>m}1y...oy~*+*                ~pl**[=^^^rtt!!}}9p__,*,           ",
"     *,e.......v[======dddc9f~........,+(    (6*_o....oe....[=^2rt}:>55%cu~...o_.....e~+'           6_...8=^^^t>555&%}9qo.._,                    6e...oipd2^r>{{w-}|y...*'                    6o...q;^^^t>5:&-&}9qo.._,          (6*_o....oe....8=^^rt!%5&&%cb_...o_.....e~+'      *,e.......v[======dddc9f~........,+(          666*eo.._8;;======d|b1l_....._*6       ",
"  (*.e.........o_,vviiyv,i~~_..........e,*(n          **o..ol1$=$$^^^d2c|pe...,+                     ....q;=$^^2rtt4>t|qe..o                      _...v;=^2t!%w--&m9qo.e,                      o...v==^^^2thtt0t|qe..o                    **o..ol;=$$$^^^d2c|p_...,+            (*.e.........o_,vviiyv,i~~_..........e,*(n     (+,eeo..oo.ooiiieiiiiy~_e.......e_,+(    ",
"  +*,*,..,*_.....eooo_~~~oo.........._,*,,+6           *e...yl8;uubbdbbu+~o..~*                      _o..i8uc}}}}}}}:z6yo.oe                      *_..q;^^^ttt!!>>}9,o.__                      _o..y7bc}t}}}}::z6y..oe                     *e..._l8;uubbbdb(7,o..~*            6+*,*,..,*_.....eooo_~~~oo.........._,*,,+6    +,,_._eo......................_,_o._,*'   ",
"  ~*+6    (,e.....e~,+++*,ye.....e,   (6*oo,             ....o,6'n/n//'p,_..e*+                      ,_..o,ngss)j)))s/+_..ee                      +,.ol|d2rtrrtt!}}|,oo~,                      ,_..e,ng))))))s)/+_..ee                       ....o,6'n/n//'6*e..e*+           (6,*+6    (,e.....e~,+++*,ye.....e,   (6*oo,   6*...e~_eo........oooo.........~+,~__o_6'  ",
"           6,....o+'gsss3n6*o....,6                      ....,nkjjjjj)sg'+_..__                      ~e..~6s<aaaaaaajkn*o...                      +~o,'kjwj))sss:)kn,o.~,                      ~e..~6saaxaxa<<<kn*e...                       ....,nkjjjjj)s3'+_o.__                      6,....o+'gsss3n6*o....,6          n'*,       eo.....o_,**+~e......e_  +++~._*( ",
"           +,..._+ns<aa<s3n6,e...,+                      _..,(k<xxxx<jsk3'*_oe,                      _o..*njxxxxxx<jjk36,..,                      ,_e*/<axa<<jj)ssk3+_o__                      _o..*njxxxxxx<jjs36,..,                       _..,(k<xxxx<jsk3'+_oe,                      +,..._+ns<aa<s3n6,e...,+          n'*        _o....y+''nnn(+*_o....,   (+,..6' ",
"           ~e..o*n)xxxaj)kgn+~o.._,                     ,_.o63axxxxx<skkgn(*_.*6                     ...e(kaxxxxxxj))kg'+e.*6                     _o_6gxxxxa<<jskkkg6,ooo                      ...e(kaxxxxxaj))kg'+e.*6                     ,_.e63axxxxx<skkgn6*_.*6                     ~e..o*n)xxxaj)kgn+~o.._,                     _....~6/jjjs)gn6*e....*6        n ",
"          (_...*(sxxxaajskk3'*_...o                     o..*n<xxxxxx<)kgg3'+,e~,                    6e.o,'axxxxxxa<jskkn+~o~,                     ..~'kxxxxxaj)skggg'*_o.                     6e..,'jxxxxxxx<jskkn+~o~,                     o..*njxxxxxx<)kgg3n+,e~,                    (_...*(sxxxaajskk3'*_...o                    (_...~6gjaxaj)kgn6,_..._,          ",
"         (6e...+3jxxxxajskkg/6,o..e6                   +o.e+3xxxxxxx<)kggg/(*__~                   +*o.o*/axxxxxxaajskk3(*e_,                     ..~nsxxxxxa<jskgkgn+_o.                    +*o.e*naxxxxxxxajskk3(,__,                    +o.e+3xxxxxxxajkgg3/(*__~                   (6e...+3jxxxxajskkg/6,o..e6                  ++e..e+/jxxxajjkk3'*~o.._~          ",
"         **o.._(kaxxxxx<)kgg3'*_.._('                 6+_.e6gxxxxxxxaj)ggg3'+~__                   ~~..e*/xxxxxxxxaj)skg'+~~~                     .._nsxxxxxxa<j)ggg/6~..                    ~~.._*/xxxxxxxxaj)kkk'+~~~                   6+_.e6gxxxxxxxxjsg3g3'+~__                   **o.._(kaxxxxx<)kgg3'*_.._('                 ,_...,'jxxxxa<)skgn(*_..._          ",
"         ~_...,')xxxxxxx)sgg3n+~o._6(                 **.._(kxxxxxxxxjsggggn+~o_6                  __..e*3xxxxxxxxxaj)kkn6___                     .._nsxxxxxxajjsggg3(,o.                    __.._*3xxxxxxxxx<)skkn+~__                   **.._'kxxxxxxxajsggggn+~o_6                  ~_...,')xxxxxxx)sgg3n+~o._6(                 __..e+3axxxxx<j)kg/'+~..o_          ",
"         ee.._*n<xxxxxxx<skg3n6,e.e+6                 ,,o.,nsxxxxxxxaj)ggggn6,_e**                 _e.._*/xxxxxxxxxajskgn6,__                    6o.~'sxxxxxxa<jskgg3(*o,                    _e..e*/xxxxxxxxxx)kkk/6~__                   ,,o.~nsxxxxxxxxjsgg3gn6,_e**                 ee.._*n<xxxxxxx<skg3n6,e.e+6                 _e.._'gxxxxxxx<skg3n+,e..o          ",
"         ...._6gxxxxxxxx<skk3/6,_.o*+                 ~~.e*3jxxxxxxxxjsggggn6*_.o.                 _e.._+3xxxxxxxxa<)kkgn6~_e                   '(_.~'sxxxxxxx<)sggg3'+e*(                   __.._+/xxxxxxxxa<)kkkn6~_e                   ~_oe,3jxxxxxxxajsgg3gn6*_.o.                 ...._6gxxxxxxxx<skk3/6,_.o*+                 ....~nsxxxxxxx<skgg36,_e..          ",
"         ...._(gxxxxxxxxx)kgg/(*~e.~,                 oo.e*g<xxxxxxxajsgg3g/(*_..o                 __.._+3axxxxxxxxjskggn6~__                   n'_._(kxxxxxxa<)kggg3'*_*(                   _e..e+gxxxxxxxxxjskggn6~ee                   ee._*g<xxxxxxxxjsg33g/(*_..o                 ...._(gxxxxxxxxx)kgg/(*~e.~,                 ....~/)xxxxxxx<jsgg3'*_o..          ",
"         ....,'sxxxxxxxx<sgg33'*~oo,,                 .o._*g<xxxxxxxajkgg3gn(,o..o                 ~~.._+3aaxxxxxx<)kggg'+~e_                   n'~._6gxxxxxa<jskggg3'*_*(                   ,y.._+3xxxxxxxx<)kggg'+~oe                   .o._+gjxxxxxxxajkk33gn(,e..o                 ....,'sxxxxxxxx<sgg33'*~oo,,                 ...o,3jxxxxxxx<jkgg3'+_e..          ",
"         ~..o,/)xxxxxxxx<sggg3'+_oo,*                 ,eo_*gjxxxxxxx<skg33gn6~e.y*                 17io_*njxxxxxx<jkggg3'*__~                   c|l~~+/xxxxa<j)kkgg33'*_l( >>%m              17yo_*njxxxxxx<jsgggg'*__~                   ,o.e*g<xxxxxxxjskgg3gn(~e.y*                 ~..o,/)xxxxxxxx<sggg3'+_oo,*                 ...o*3jxxxxxxxx)kgg3n+~e..          ",
"        :6o..,n)xxxxxxxxjsggg3(*_.e*+               {-b,_e,/)xxxxxajjsk3gggn6_o_p955             %m49;8l,'kaxxaa<jskggg/(*~8;2r2@             %m04tbufnjxa<jj))kggggn(**;^2@r4>%           %m49;8l,(kaxxaa<)skggg/(*~8;2r2@             {-|,_e,/)xxxxxxajkk3gggn6_o_p9%-              :6o..,n)xxxxxxxxjsggg3(*_.e*+                 eo.o*gjxxxxxxx<)kgg3n+~e..          ",
"       m:9pl,*nsxxxxxxxj)kgggg'+,q81d              --%tu1p6nsxxxxa<jskg33g3'6l[[dt0%5           %%>h@9d|1|gj<<jj)kkkgg3'(7[;d2@@h0           %%m]h]4}#})jj)jskkkggg3n1[;d2@@2h>&          %%>]@2|bu|gja<<j)skggg3'fp[;d2@@h0           --%tu1p6nsxxxxa<jskg33gg'677[dt>%&            m:9pl,*nsxxxxxxxj)kgggg'+,q81d                 f~..,3jxxxxxxx<)kgggn+~oevu         ",
"      %%m4ru;1/)xxxxa<<)sg33gg'p7;=^2h4>          -&%m0]]t#/kaxaaj)skgg3gg3|1;^222@0%{         %%%0h@4m%}cg)jjssskgggg3'u=^2@@@2h>&         %%%4@@4>m%&&ksssskgggg3n(u^2@@]h2r!-         %&%0h@4>m}zg)<jj)skgggg3'1=^2@@@2h>&         -&%m0]4t#/k<xa<j)skgg3g33|1;^22@@45{          %%m4ru;1/)xxxxa<<)sg33gg'p7;=^2h4>           &5&97,y,3)xxxxxaa<sk333'6~_,722@       ",
"     %&%0h@h}}:wxxxa<jkkkgg3g3z=dd@@@r!m-         &&m0h@4>mm:s<aj)kggg3gg3|d^d@h@@r!%-         %%%@2@h0>%m::))skggggg3nub2@hh]@2@>-        {&%0222@h>%%m}gkkkkggggn'=^2h]]]@2^!&{        %%mh2@@]0%%::)jskkkggg/'ub2@hh]@2@>-         &&m0h@4>mm:)<ajskggg3gg3|d^^@h@@@!%-         %&%0h@h}}:wxxxa<jkkkgg3g3z=dd@@@r!m-         %&%>h@916nsxxa<<<j)kggg3'+l[=d2@@4      ",
"     %%>h@@h0m%-{axajskkgg3ggcd^@@h@22h%w        {%%>h@2h4m%%:)jjkgggg3g3z=d2@h]@22r>w{       -%m!2^2@h0m%%::kkgggg3n'(=d@hh]]@2^h%&      {{%!t^$^2h]m%5}3/3ggg3/n';=2@h]]]h@^t%&-      -%m!2^^2h0m%%::kgkggg3n'(=d@hh]]@2^h&&       {%m>h@2h4m%%:wjjsgggg3g/z=d@@hh@22r>w{        %%>h@@h0m%-{axajskkgg3ggcd^@@h@22h%w        -%%m4hh4c#}saxajjj)skgggn';;d2@2@@>%     ",
"     %>!222@]m&%5{<jskgggg3gc^2@h]h@22t>-       <{&m4222@h0&&%:kkkg3gg33|b$2h]]]h@^r!-{a     {-50t$$^2@]>%&>3/3333/n(f1$2@]]]]@2^r>%&     {w>t2$$$^@44m-&#6'nnnn'61;^@]]]]]h@$2>m%     {-&>t$$$2@]>%5>3n33333n(f1$^@]]]]@2^rm&&     <{5m4222@h0%&::kssg3gg33|b$2h]]]h@^r>-{a       %>!222@]m&%5{<jskgggg3gc^2@h]h@22t>-       {-&>!@@hm%%m&<aaj)sskggggnbd2@h@h2@>%-    ",
"    -&>h^^^@h0m%%5:gg3g3//3zd^r]]]]h22r>-{      -w%>2^$$2h]m%%}#nggg33n'u$^@]]]]h@^2!&{{     --m42$$$^@hh0&%9+6(''6+,7;^@]4]]>h2$2tm%     -5>t^$$$$^@h0&&|+*+++**,7=^@4]0m00h$^h>m     --m02$$$^@hh05%|p6('((+*p;2@4]44]t2^^h>m     -w%>2^$$2h0m%%}|n3gg3/n'u$^@]]]]h@^2!&{{      -&>h^^^@h0m%%5:gg3g3//3zd^r]]]]h22r>-{      &&&>@222]mm&&&)jj)skkkgg/b^2@h]hh^^h%w    ",
"   --%0r$$^2@h>%&%n6(((''('b^2@]]]]h@^2h%-{     &&mt2$$$^2h4m&}'+(''(66+[^2h4]]00@22h%-{      %!r2^$$$^2@!%m|q,****,_l=^@]00mm>t22@0       54trrr2$^22@0m|q,,,~~~oq;^@]0>mm%>!r@>       %0r2^$$$^2@0m%|,,,+**,_8;2@400>>0t^2@>      &&mt2$$$^2h0m&0'+((''(++;$2h4]000@22tm-{     --%0r$$^2@h>%&%n6(((''('b^2@]]]]h@^2h%-{     &&%4^^^2h]m%%&ggg333/nn'ud^@h]]]h2^t>&{   ",
"    5>t2^$$^2@h>&%u~,*+*+*+[^2h]0000h@^@>-       %0r^$$$$^2@4%mu~,***,~y[$2h]0mmmhr2r>-        r^^r^$^^^@@!>b,o._ooe.q;^@hmm%%%>t22         rt>5>t^^2222tu~ooeo...v;$@]mmm%w{w>r         r2^r^$^^^2r4>|vooe__e.q;2@40%%%%mtr2        %0r^$$$$^2h0%mu_~**+,~_[$@h40mmmhr2@>-       5>t2^$$^2@h>&%u~,*+*+*+[^2h]0000h@^@>-      mm>r^$$^@@]m%%#'6(((66++[$2h]]]]]@^@4%-{  ",
"     @@22^$$^2@4m}u___~,~~~[$2h0>mm>0h@@]         tth^^^$^^^@0>1eoo_eoe.[$2h0>mm>>4!h]               t2^^2@h1y...oo..q;^2@40%                      !!r^==8e.......i8=20>%-                     t2^^2@t1y...oo..8;^2@]m%               tth^^^$^^2t0>1_oo___e.[$2@0>mm>0!!4]         @@22^$$^2@4m}u___~,~~~[$2h0>mm>0h@@]       >0h^$$$$^@h4m&c+~,,**,,,[$2h]>m>>h22t>ww  ",
"      r2r^$^^^2@t1l_ooo_ooyv[^@40m%m!4r@           t!2^^$2rrrt1l_.......v[2t0m%%>m>!4                 r^^dbu*e.......vpud@h>                        mt^=;8........ev=^0>&                       r^^2@tf_.......v=^22hm                 t!2^^$2r2rt1le......ov[2t0m%%m>>0!           r2r^$^^^2@t1l_ooo_ooyv[^@40m%m!4r@         hr2^^^$^^2@0m97ooeeee_,[^2h]mmm%>!hh05   ",
"           >r^^2dyoe......iei=2@0m&                       !r@d,o........oydh0%                            6*_........y*6                                                                                                                      !r@d,oo.......oydh>m                       >r^^2dyoe......iei=2@0m&               rrrr2^$^2rt097.....eyq;$2h]m%%5w5>04    ",
"                                                                                                                                                                                                                                                                                                                                       ttrh0            rt0%&           "};
