/* XPM */
static char * floater_xpm[] = {
"360 45 65 1",
" 	c None",
".	c #050608",
"+	c #13BE5F",
"@	c #CC7A0D",
"#	c #057F41",
"$	c #0B542D",
"%	c #26883E",
"&	c #0B2B1E",
"*	c #4B504C",
"=	c #02DA6E",
"-	c #547828",
";	c #BABABE",
">	c #663D0C",
",	c #ACADAD",
"'	c #FAD97F",
")	c #0D6436",
"!	c #26C25A",
"~	c #FEE685",
"{	c #78797A",
"]	c #FBCF69",
"^	c #4C2C08",
"/	c #CC9241",
"(	c #9A5E0E",
"_	c #5B96CF",
":	c #104734",
"<	c #C6B599",
"[	c #1A5B3A",
"}	c #FEEE86",
"|	c #F1C674",
"1	c #1B4036",
"2	c #AD8950",
"3	c #875108",
"4	c #FDAA0D",
"5	c #131412",
"6	c #F8DB8F",
"7	c #FDC74B",
"8	c #2E7CB5",
"9	c #8F9194",
"0	c #222422",
"a	c #73842C",
"b	c #E3B154",
"c	c #6D6358",
"d	c #606461",
"e	c #CAC9C9",
"f	c #F1EEE3",
"g	c #2D3431",
"h	c #08A755",
"i	c #FBE3A4",
"j	c #444442",
"k	c #1A6ABD",
"l	c #FEDA96",
"m	c #A77A22",
"n	c #B29A36",
"o	c #8B827A",
"p	c #F5FCFC",
"q	c #EA8608",
"r	c #EAB33F",
"s	c #F7960A",
"t	c #F3CD87",
"u	c #DADADB",
"v	c #5B5851",
"w	c #2B2E2D",
"x	c #E8E8E6",
"y	c #9D9D9E",
"z	c #383734",
"                                                                                                               kkkk                                                                                                                                                                            kkk                                                                      ",
"                                                                                                               kkkk                                                                                                                                                                            kkk                                                                      ",
"                                                             kkkkk                                             kkkkk                                               kkkkk                                                                       kkkkkk                                          kkkk                                                 kkkkk               ",
"                                                             kkkkkk                                             kkkk                                              kkkkkk                                                                        kkkkkk                                          kkkk                                               kkkkkk               ",
"            kkkkk                                               kkkkkkk                                          kk8                                          kk8kkkk                             kkkkk                                           kkkkk8kk                                       kk8                                           kk8kkkk                  ",
"            kkkkkkkkk8_kkkkkkkkk                                    _8kkkkk                                       __k                                     kkkkk8_                                 kkkkkkkk8_8kkkkkkkk                                 __kkkkkk                                    _8k                                      kkkkk8_                      ",
"             kkkkkkkk8_kkkkkkkkk                                    88kkkkkk                                      888k                                   kkkkkk88                                  kkkkkkkk_8kkkkkkkkk                                888kkkkkk                                   88kk                                    kkkkkk88                      ",
"                     kk     kkkk                                    kk    kkkk                                    kkkkk                                kkkk    kk                                          kk    kkkk                                 kk     kkkk                                 kkkkk                                 kkkk    kk                      ",
"                   *1110*d                                       *j:1gwv                                        *1110jd                                      *111&jd                                    *j:1gwv                                     *111&jd                                    *j:1ggvd                                       *111&jd                   ",
"                  00&&55wjz                                     5w0&&55gg                                      0w5&&0wzg                                    00&5&0wzz                                  500&&5wjw                                   0w&5&0zjz                                  5w0&&&0jj                                      00&5&0zjz                  ",
"                 .......50wj                                   .........5z                                    ......55.wz                                  ......55.gj                                ......5505.                                 ......500gj                                ......5500g                                    ......5000z                 ",
"                .........5zco                                 ..........&jo                                  .......5.5gd9                                .......5.5jc9                              .........5.5{                               .........5zc9                              ........5.&*o                                  .........5.j9                ",
"               5wd{d0*c0j{ccc                                 5*{{z0c*wd{d{d                                5w{{v0*cwj{d{{                               50{{d0*c0j{{{c                              0j{{z0d*0dd*c{                             5wd{v0jcw*{{{c                              5*{{z0c*0c{d{d                                50{{d0jc0j{*d{                ",
"               w*ex;v9ev9uyc*                                 woxu9vtyve;ov*                                0jex;*9uv9uy{d                               &jeu;*2uv9uyd*                              09xu9vt9ve;ov*                             0*eu;*9tv9uyd*                              09fu9vt9ve;ov*                                &jeu;v2ec9uy{d                ",
"               0j,|b/b]bb|2c*                                 0{||//t|n]<{v*                                wj,t|/b]bb|mc*                               0j<|b/btbb|avj5                             0{||//t|b|<cv*                             0j<|b/b6b||av*                              0{e|//t|b|<cv*                                0j<eb/b6nr|2c*                ",
"               v3/brrtit67bmv#                               )*mbrr|66''rnvd                                *3/rrr|it'tbmv#                              vc/brr|itt|/a*:&                           )*mbrr|66t'|/c[                             v3/brrti6]|/av#                            #>mbrr|66t'|/c[                                v3/rrrti6']/mv#               ",
"              #%@ssr]lif6l]n-%#                             #%m@s47]iii}'ra%#                              h-ms4r]6xii']n-%#                            h-mq4r]6if~6]n-%$5                         #%m@s47]ii}}'ra-h                           h-mssr]l}fi6]n-%#                          #%m@s47]iif~'|a-#                              h-mq4r]lifi']n-%#              ",
"             )+y/4777]]'l'~,a!hd                           $h!nsr77]]''6~]2h+-                            )+_q4r77]''''~,a!hd                          )+yqrr77]]'''~,a+%*                        $h+nsr77]]'''~'2h+-                         )+_q47777]]~~}na!hd                        :h!nsr777]]''~t2!+-                            )+y/4r77]]'''~<a!hd             ",
"            &)h%3mm2@mmm22na[h%jc                         5:#hv(@2@mm222n2-%h*v                          &)h%(m2/mmmm22na[h%jc                        &$h%3m@/mmm22/na[h%*c                      5:#h3(2@2mmm22nad%h*v                       &)h%(m@2mmm22nna[h-*d                      5:#hv(@2mmmm22nav%h*v                          &)h%(m@2@mm22n2a[h-*d            ",
"           .&$#:5^>^>^^^>>^^&)[jdc                       55&))w^>>>^^^^>^^0:#1*c                        .&$#:0^>^>^^>^^^^&)[jdc                      .&$#:0^>>>^^^>^^^&#[jdc                    55&)#w^^>>^^^^>^^0:#1*c                     .&$#:0^>>>^^^>>^^&#[zdc                    551))w^>^^>^^>>^^&:#1*c                        .&:#:0^>>>^^^^>^w&#[jdc           ",
"          d5&$#:..5550w005.5&)$zzz                      {z5:)#5...50ww055..:)1jg                       d5&$#:.55.50w05..5&)$zzz                     c5&$#:.5..50w005.55)[jzg                   {z5:)#5.5.50ww055.5:)1jg                    d5&$#:..5.50w005.55)$jzj                   {z5:)#5.5555w0055.5:)1jg                       d5&$)1...550^w555.5)[zzz           ",
"         jz5&))1.50jv{o{cvz55)[:gj                      j&5$)$550z*c{{cc*05:):1zv                     jz5&))&.5w*v{o{{vz55)[:gj                    >z5&))&.5wjv{{{cvz&5)$1gj                   j&5:)$550z*c{{{c*0.:):1zv                  jz5&))&.5wjd{o{cdz5&$[:gj                   j&5$)$555gvdo{{c*w.:):1zv                     jg5&$)&.5wjd{o{cvz0&$)1gj           ",
"         5.5:):&5jcy;exue;oj&$$:gjd                     .5&$):5wvo,euueeyd0:)$1zvv                    5.51)$&5zcy;euue;oj&$$:gjd                   555:)$&5jcy;euue;oj&$$$g*v                  .5&$$:5wvo,euueeyd01)$1zvv                 5.5:)$&5jcy;exee;oj&$$$gjd                  ..0$$:5w*o,euueeyd01)$1zvv                    5.5:)$&0zcy;euue;oj&$$$gjd          ",
"        {z.01:1zd9exfpfppxe9j$$:gggd                   d55&::&*{,uxppppfu,d:::1zw*d                  {z.51$&jdy;xfppffxe9*$$:gggd                 {z.01$&jv9exfppfpxeoj11:zgzd                d55&$:&*{,uxpfppfu;d:$:1zw*d               {z.0&$&jd9;xfppppxeo*$::gwzd                d55&$:&*{,uxpfppfu,d:$:1zw*d                  {z.&&$&zvy;xxppfpxeoj$::gwzd         ",
"       d*w.w1:1dyexpppppppx,{1&&000z*                 vj55w::j9;upppppppfe9v&&&00wjv                d*w.01:1dyefpppppppx,{:&&000z*               dvw501$1d,efpppppppx,{g&&000z*              vj55w:1*o;upppppppxe9v&&&00wjv             d*w.w1$gdyuxpppppppx;{:&&000z*              vj55w&1*o;upppppppfey*&&&00wjv                d*w.01$1dyuxpppppppx,{1&&000z*        ",
"      **055w1:*yupppppppppxey1555555gv               vz550g1*-;xpppppppppu;c0555555*v              **w55g1:vyupppppppppxeyj055555gv             v*w55gz:vyuppppppppppe9j0.5555gv            vz550g1:{;xppppppppfx,dw.55555*v           **055wg$vyupppppppppxeyj&55555gv            vz550g&1{;xpppppppppx;d0.55555*v              v*w55gz:vyupppppppppfeyj&55555gv       ",
"      55.50ww1oeppppppppppxe,vw.550..5               55.5gw&v,xppppppppppu;oz55505.55              55.50ggzoefpppppppppfe,v0.550..5             555501g1oefppppppppppu,v0.550..5            55.5gg&d,xppppppppppue{j55505.55           55.50gwzoefpppppppppxe,v0.550..5            5555wg0v,xpppppppppfx;oj55505.55              5.550ggzoefpppppppppfe,vw.550..5       ",
"      ...50ww*,uppppppppppfu,dw.5505..               ..50wwg{efppppppppppx;9*5.505...              ...0w0g*,xpppppppppppe,dg.5505..             ...5wwg*,uppppppppppfe,dg.5505..            ..50w0g{efppppppppppueo*5.505...           ...5w0w*,xpppppppppppe,dg.5505..            ..50wwg{efppppppppppx;9*5.505...              ...5w0w*,xppppppppppxu,dg.5505..       ",
"      5.50w5gcefppppppppppxe,{z..50555               5..w00jyxppppppppppfx;9v5.500555              5..0w5gdexppppppppppxe;{z..50555             5.50w5gdefppppppppppfu,oz..50555            5..w00jyxpppppppppppue9v5.500555           5.50g5gdexppppppppppfe,{z..50555            5.5w00jyxppppppppppfue9d5.500555              5.50g0gdexppppppppppxe,{z..50555       ",
"      jj50w5g{upppppppppppfu;9j..0z0wj               jw5g55*,ppppppppppppue,{05.g00zj              jz00w5goupppppppppppfu,9*5.0z0wj             jz50w5z{xpppppppppppfe;9*..0z0wj            jw5w05*,pppppppppppfxey{w..g00zj           jz50w5g{upppppppppppfu;9*..0z0wj            jg5w05*,ppppppppppppuey{w..g00zj              jj5005g{uppppppppppppe;9*5.0z0wj       ",
"       j0w05z9xpppppppppppxe;,v5.0j0g                 g0z05d;pppppppppppfu;,9z5.jg0j                j00w.z9xpppppppppppue;,d0.0j0g               j00w.joxpppppppppppxe;yd0.0j0g              g0z55d;pppppppppppfu;,9z55zz0j             j0w0.z9xpppppppppppue;yd5.0j0g              g0w55d,pppppppppppfu;,oj5.jg0j                j0w0.z9xpppppppppppxe;,d0.0j0g        ",
"         gg.z9xppppppppppfue,,{z.0*                     z05d;pppppppppppxu;,9*05j*                    zw5z9xppppppppppfue;y{g.0*                   zw.z9xppppppppppfue;,{w50*                  j05d;pppppppppppxu;<9*05j*                 zg519xppppppppppfue;,{g50*                  z05d;ppppppppppfxue,9*05j*                    zw519xppppppppppfue,y{g.0*          ",
"         v*5z9xpppppppppfxe;,,{j5wc                     dw5d;ppppppppppfue,,yv05*c                    d*5z9xpppppppppfxu;,y{z5zd                   d*5z9xpppppppppfxe;,,{z5zc                  dw5d;ppppppppppfue,,yv05*c                 v*5z9xpppppppppfxu;,,{z5wc                  dg5d;ppppppppppxu;;,yv05*c                    d*5z9xpppppppppfxu;,,{j5zc          ",
"          *.19uppppfppfxuue;yy{z50                       05d,pppppfpfxxue;,y9*0.*                      *51oupppppppfxxee;,y{z.0                     j.jouppppppfpxuue;yy{z.0                    05d,pppppfpfxxue;,y9*0.*                   *.z9uppppfppfxuue,yy{z.0                    05d,pppppfppfxue;,y9*0.*                      j5zouppppfppfxuue,,ycz.0           ",
"           .z{efppfxxxxuee;,yyv05.                       .5vyxfpffxxxuuee,,9oz0.                        .z{efppffxxxuee;,,ycw5.                      .z{efppffxxuuee;,yycw5.                    .5vyxfpffxxxuue;;yy{j0.                     .g{efppfxxxxuee;,yycw5.                    .5vyxfpffxxuuuee,,yoj0.                        .z{efppfxxxuuee;,y9dw5.           ",
"           0w*;uxuuuuueee;,,yo*500                       00gouxxuuuueee;;,,yc00w                        0w*;uxxuuuueee;,,yoj5ww                      0w*;uxxuuuuuee;,,yoj500                    00gouxxuuuueee;;,,9c00w                     0w*;uxuuuuueee;,,yoj50w                    00gouxxuuuueue;;,,yc00w                        0w*;uxuuuuuuee;,,ymj500           ",
"            0zo,eeeee;;;;,yyyvw5>v                        00vy;eeeeee;;,,yy{j5w3                         0zo,eeeee;;;;,,yodw5>v                       0zo,eeeee;;;;,,y9dw5>v                     00vy;eeeee;;;,,yy{j5w3                      0zo,eeeee;;;;,yyydw5>*                     00vy;eeeee;;;,,yy{j5w3                         0zo,eeeee;;;;,,y9cw5>*           ",
"            ^^*{y,,;,,yyyy9o{z00(m                         ^jd9,,,,,yy,yy9o*05>m                         ^^*{y,,;,,yyyy9odw00(m                       ^^*{y,,;,,yyyy9{vg50(m                      ^jc9y,,,,,y,yy9ov05>m                      ^^*{y,,,,,y,yy9o{w00(m                      ^jd9y,,,,,yyyy9ov05>m                         ^^*{y,,,,,yyyyy9{z00(m           ",
"            m(3>jd{o9ooo{{vjw5^3/4                         ((>jv{oo9oo{{c*z05>ms                         ((3>*d{o9ooo{{vjw5^3ss                       m(3>*d{oo9oo{{cjw5^3/4                      ((>*d{oooooo{c*z50>ms                      m(3jjd{9oooo{{vjw5^3ss                      ((>jv{{ooooo{c*z55>@s                         ((3**d{9oooo{{vjw5^3s4           ",
"            q@m(>jvc{oo{vv>j>>(@4r                         q@(v>jcc{9{cvv>^^3@sr                         q@@(j>vc{oo{c>*>^>(@r7                       qqm(>jvc{{o{vv>j>>(qr7                      q@(3>*v{{9{cvv>^^3ms7                      qq@3*>vc{oo{vv>j>>(@r7                      q@m>>vv{{9{cvv>^>3msr                         qq@(>>vc{oo{cv>j^>(@rr           ",
"            sss@(333(99c3>3((@s47                          sss@333(my{v3333(qqr]                         sss@(333(99cv333(@q4r                        sss@(333(99c3>3((@qs7                       sssm333(m9{v3333(qq47                      sss@(333(99c3>3((@q4r                       sssm3333my{v3333(@s4]                         sss@(333(99cv333(@q47            ",
"            4444ssqq    @qqqsqs4                           444ssqq@    @qqqqs44                          4444ssqq    @qqqqss4                         4444ssqq    @qqqsss4                        444ssqq@    @qqqqs44                       4444ssqq    @qqqqss4                        4s4ssqq@    @qqqss44                          4444ssqq    @qqqqss4             ",
"             444444s     qss4s4                             444r4ss     ss4s44                            444444s     qsss4s                           444444s     qsss44                          44444ss     ss4ss4                         444444s     sss4s4                          444444s     ssss44                            444r44s     qsss4s              ",
"              4r4r44      ss44                               44744       s444                              474r44      s444                             447r44      s444                            44744       s444                           4r4r44      s444                            44744       s444                              4r4r44      s444               ",
"                                                                                                                                                                                                                                                                                                                                                                        "};
