/* XPM */
static char * skateboarder_xpm[] = {
"45 90 65 1",
" 	c None",
".	c #020206",
"+	c #FCD16F",
"@	c #B10303",
"#	c #CE550B",
"$	c #6F6E6C",
"%	c #A20303",
"&	c #525252",
"*	c #C36D0D",
"=	c #373736",
"-	c #ABABAF",
";	c #700F10",
">	c #252523",
",	c #C7830D",
"'	c #FEDD87",
")	c #925A13",
"!	c #D23635",
"~	c #AAA6A2",
"{	c #1C1B1A",
"]	c #E8E7E6",
"^	c #959494",
"/	c #F79612",
"(	c #784511",
"_	c #161616",
":	c #BB2413",
"<	c #D2A458",
"[	c #EFEEED",
"}	c #A04840",
"|	c #895F29",
"1	c #673F12",
"2	c #CC1615",
"3	c #F6CE8A",
"4	c #0F1214",
"5	c #FDA90C",
"6	c #DA4D4D",
"7	c #626162",
"8	c #FBDB94",
"9	c #484744",
"0	c #BCBCC0",
"a	c #E4690A",
"b	c #D7BD8A",
"c	c #8F3333",
"d	c #C51211",
"e	c #0D0E0F",
"f	c #DE211F",
"g	c #F2D696",
"h	c #F5FDFD",
"i	c #DCDBDC",
"j	c #917D67",
"k	c #D1D0CD",
"l	c #C10706",
"m	c #EA8613",
"n	c #5E0206",
"o	c #872B2B",
"p	c #A4A4A8",
"q	c #2D2E2E",
"r	c #7C7C7F",
"s	c #FCA646",
"t	c #FE9E3A",
"u	c #FEC44E",
"v	c #523F1D",
"w	c #795E39",
"x	c #0A0A0B",
"y	c #7A5214",
"z	c #FCC378",
"                    7={__>77                 ",
"                    7=4{_{&7                 ",
"                   &q{e_{{q97                ",
"                  >q4x.exe>q9                ",
"                 .xx.{>{4x__{                ",
"                  {{4$0r9{__>&       ..      ",
"                  {q=7p^rr={>==     ....     ",
"                 {=&w77jki&>{{{    .....     ",
"                aa<3bbbbg0=>>{_    .....     ",
"               mmsu]'''g+<v>>>>   9x....     ",
"           amtstszz3'8g+u<yq{=9  &94....     ",
"           amttttsssssuss<|=>9$^ _4.....     ",
"            msttm||||)|||wvq{q&r$>......     ",
"                 {{{{{{{{{{__xq&&q......     ",
"       7q_....._>>>>{>>>>>>>{xx__e......     ",
"      =={x.....x{4_{>>>{_44_4ex.x......      ",
"   7&=_..ee....xx4>q=99=>4xxx{_x......       ",
"  ^&_xxx{q=e....49$p--0pr7q4xqq>{e....       ",
"  9>x{q=>==4...{9^0i]]]ik-r&qqqq>4...        ",
"  x.e97$   44.e=$k]hhhhhh[k^$9==q{...        ",
"          &>44>7-i[hhhhhhhhk-7==={...        ",
"         &9{44qr0][hhhhhhhh[k^&qq{..         ",
"         =q{449r0]hhhhhhhhhh[0$qq{e          ",
"         =q_.4&^0i[hhhhhhhhhhi^=>>q          ",
"         =q4e{$^k]hhhhhhhhhhh[p&{{=          ",
"         =qxe=r-0i[hhhhhhhhhhh0&4{=          ",
"         q>x_9^-0i]hhhhhhhhhhh07__q          ",
"         99e>&^-0k][hhhhhhhhhh0$_q9          ",
"          &4>7^p-0i][hhhhhhhhh074q7          ",
"           .{9^p-00ki]][[[hh[]-7_4           ",
"           {{qrp-000kiii]i[[[i^9{_           ",
"           =>{7rpp-000kkikkii0$q>            ",
"           |=xq$^^p-00000000-r9{             ",
"           ,)q>=7$rr^^^pp^^r7&((             ",
"           5,)q>=977$rrr$$79vy*,             ",
"           u5m*)((117r^jw(11),m/             ",
"          #/t/m,***)c}*}}***,///m            ",
"  6!!!!!!!!*/5////ma@::%#/555555m#!!!!!!!    ",
"662lllllldfm55555/#d@ll%#555u5555#llllll26   ",
"!fdll@l@@@d#######:%@@@%:#*######:@@@@@@@:!  ",
"lllll@%%%%%%%%%@%%%%%%%%%@%@%%%@%@@%@%@%%%:6 ",
"  ff2dl@@@lll@lddd2d222d2d2d22ddl@@@@l@@@dff6",
"   ff2%nnoco;n@d222222222222222dnn;oco;;odff6",
"       .eq&9>.                  4xx999>>=    ",
"        .4>44                    xx__{>q     ",
"                  77>__{=7                   ",
"                  79>{__=&                   ",
"                 79={__4{q&                  ",
"                 9q{4exxx4q>                 ",
"                 {_{44{>_.xx.                ",
"       ..       &>{_{9r0$e{>                 ",
"      ....     =={>=rr^p7=q{                 ",
"      .....    {{{>&i0^&w$&={                ",
"      .....    __>>=0gbbbb3<*a               ",
"      ....x9   >q>>v<+'88g8ztm/              ",
"      ....49&  9={=y<u+g88gzzstttma          ",
"      ....x44 ^$&_=|<sussssssttssma          ",
"      ......>$$&q{>vww|||||)|mttsm           ",
"      ......q7&q._{{{>>{{{{{{                ",
"      ......4{_xx{>>>>>>>>>>{>_....._q7      ",
"       ........x4___4_{q>>{_4_e.....e{q=     ",
"        .....xx_{x.x4>q99=q>4e.....exxx{=&7  ",
"        ....x_>qqx_=&rp0--p$9_....x=q_.xe_&^ ",
"         ...4>q==q&r-ki]]]i0^9{..x4==>=q{x>& ",
"         ...{qq=9$pk[hhhhhh]kr=x.e_   $79x.. ",
"         ...{==9&pk[hhhhhhh[ip7>44>&         ",
"          ..{=q&^k[hhhhhhhh[]0$=4e>9&        ",
"           x{q>$0[hhhhhhhhh[ikr94e{q=        ",
"           q>>9^ihhhhhhhhhhhi0^&4._q=        ",
"           =>49p]hhhhhhhhhhhik^${xeq=        ",
"           q{_&-hhhhhhhhhhh[i0-r=exq=        ",
"           q_{70hhhhhhhhhhh[i00^9{x>q        ",
"           &>470hhhhhhhhhh[ik0p^&>e=9        ",
"           7q{70hhhhhhhh[[]i0-~^&>4&         ",
"            44&-[hhh[[[[]ik00-p^9{x          ",
"            4{9^i][]]]iikkk0--^r={_          ",
"             >>$0iikkkikk00---^&{>=          ",
"              >9r-0000000--p^^7=e=|          ",
"              ((&$r^^p^^^^^r$7={q)m          ",
"              ,*(=9&$rrrr$779q>q),5          ",
"              /m,)(11wj^r711(()*m5u          ",
"             m/5/,,**}}*}c)***mm/s/6         ",
"     !!!!!!!#m555555/#%:2d#m////5/*6!!!!!!!6 ",
"    6dllllll#55555555#%dll2#/55555mflllllld26",
"   !:@@@@l@@:####*###:%%@%%:#######@@@@l@lllf",
"  6:%%@%%%%@%%%%%@%%%%%%%%%%%@%%%%%%@%%%@llld",
"66!fd@@@ll@@lld2d222d2222222d2d@@lll@@@@l2ff ",
"66ffdo;;ooonnnd222222222222222d@n;cc;;n%dff  ",
"     =>>9994xe                  .>9&=4e      ",
"      >>{{_ex                    e_>_.       "};
