/* XPM */
static char * tumbler_xpm[] = {
"360 45 65 1",
" 	c None",
".	c #030206",
"+	c #FEB213",
"@	c #FE2A7E",
"#	c #CF6415",
"$	c #7F7D7B",
"%	c #5B5A59",
"&	c #6F2F17",
"*	c #4C4B4A",
"=	c #BABAB8",
"-	c #3C3735",
";	c #F0EAD7",
">	c #42241B",
",	c #29282A",
"'	c #D59538",
")	c #FE7C09",
"!	c #F8B27D",
"~	c #221E1C",
"{	c #D9D9D8",
"]	c #FE8F0F",
"^	c #B76722",
"/	c #AEABA7",
"(	c #291211",
"_	c #FEA4B8",
":	c #D48220",
"<	c #A46934",
"[	c #181616",
"}	c #BB8240",
"|	c #FEA910",
"1	c #AE4B0E",
"2	c #FCD886",
"3	c #17100D",
"4	c #9E9C98",
"5	c #996528",
"6	c #724720",
"7	c #121213",
"8	c #F45D09",
"9	c #F4EEDD",
"0	c #FEB52B",
"a	c #FEAD83",
"b	c #0F0909",
"c	c #DAA26A",
"d	c #ED7114",
"e	c #ECDAB7",
"f	c #5A1A5A",
"g	c #A3886D",
"h	c #FE9834",
"i	c #866444",
"j	c #FE9C0D",
"k	c #CACAC7",
"l	c #8F8F8E",
"m	c #D8C9B6",
"n	c #8F4A12",
"o	c #6A6867",
"p	c #FE680B",
"q	c #F08117",
"r	c #F8AC3C",
"s	c #FBB749",
"t	c #FEAC59",
"u	c #B59587",
"v	c #F9FDF9",
"w	c #F9C76B",
"x	c #992F34",
"y	c #FEC650",
"z	c #F39B26",
"                                                                                                                                                                                                                                                                                                                                                                        ",
"                                                                                                                                                                                                                                                                                                                                                                        ",
"                                                                                                                                                                                                                                                                                                                                                                        ",
"                                                                                                                                                                                                                                                                                                                                                                        ",
"                                                                                                                                                                                                                                                                                                                                                                        ",
"                                                                                                                                                                                                                                                                                                                                                                        ",
"                                                                                                                                                                                                                                                                                                                                                                        ",
"                                                                                                                                                                                                                                                                                                                                                                        ",
"                 /$-~b...7-                                                                                                                                                                      tq1x3bb......b3>i#qw                                                                                                                                                   ",
"                $%-,7b..b7~,                                                                                                                                                                    q:^&fb.........b(&n^ty                                                                                                                                                  ",
"               $o~~~~7.b~-~,,                                                                                                                            {k{k{k{k{k                      hzh)dp881&>b............[>6'sws0rrr+                                                                                                                                           ",
"               ~,-o/$-b,$/4%-$                                   ....                                                                         p])p     $={9v9v9v9v{=$     ppdp          wsh)p8881&3b..............(-<cssr])j02                   x3..........(&                                  ***%%*****                                   %~bb..3~                  ",
"               -~o4/o--*o4k4%%o                                 ......                                                                       )]j]))   ~-ol={9vv;{=lo-,   ))]))p        22yj)8881x~b...............b(n}+0j))jy29                 >(b..........bf>                                **%%%o%%%%%%                                 ,-7b...b77                 ",
"              $-~l4g&6i$oo{=o-*o                              ..b~7b[7...                                                                    ]j|jj)) 37..,o/k{;k/o>(bb3 )qj]])         22ws]pp81&(.................b>5jj])]0y;;       zh]pp881x((..............b>x188pp]hh                   ****%%oooooooo%%*               l%,-%o         37~~7..[,~~7       %%-,~,%l ",
"  o  $o*~33bbb~[~5}d#'s{mw;u*~[[..b,*%o                       .b,$*~$*....                                                                   ))rzj]]#&~3bb,o$$$$o,b.(>6d]rr]p          9;2y0]d#n(b.................bb6^zq)]s299      2yrqp881x>b................b>&#888]zs2                7-****%oooooooooo%*-*o      o      l$*~[.[-$    -,%ll*bb*4/$--  $*~.b[~*o    ",
"  *-[*-,7bb...b>n#d)'r2;922u63....b[,--,                     ..-o4%~l$*7..                                                                    )qjjj]q^1&b.7,----,b.(&5}]hzh)            ;wysjq#&(...................b>nq]qhy2;      ;2wsjp881>bb................b3>1#pphsw2e              .7-*****%%%o%%%oooo*--*     7--      l*--7b~--  *-*$=$*~,%$k/$-77-,7b7,,*     ",
"  ,[.....bb...b&#pd]zsw2222'63...b7.....3~%$                ...*l$-~ol$~..                                 $*,,,,,,,,*o                        p)jr|jj]#>b.........(#)jrz]p              2wy0q^>b....................[&:q]rw2        ;wyr]d#&>...................b(&#)]rswe              ~37-****-***%***%o%%*---   %,..          %,b...[*,~o4=6&6oook{/,.....7,*       ",
"         --b..b-n88pddpqq:c}n[...,%                         ...[~~7b7[~....                             o-,/k{{{{{k=//4,-o                      p)jrrjjq8&.........~:|+j])               22yy'n(....................bb>n:]r2;         wyy+:5>3....................(>^q+yww              o-,,-***,7,----******,,,,3..7b.            %-....733*}]##'w=!eml~....7*%        ",
"          -7..b(>&n^}}^}}}i%>3.b~-                          .b~>6&no$io6~...                           '-%${9vvvvv9;k=4%-*g                      d^55d]]p&.........(#^in66                22s<-b.....................b[-^0w2           wys}6(b...................bb(n:022              %*---**--7.7[[[~,,,,,~[[773b...              %-b....(ndqqhw;2e2u*[b..b[*         ",
"            .b.b3,%$44444g%-7..7--               ....      ..b&1ddzy22w}-....      ...               cc'-%=;vvv9;{{k==/<6-}cc                     &((1#:#&.........(1&.bbb                 ec6.........................3iw2             yy<>b......................b>5s2               ,-,-***-[~,[7.7[,,7b......(b..                %[....(1d)ts2222c%.(b..[,          ",
"            ....,lk;;;;;{{=l*[..7[                 ..........36^dd:''rc}-............             __!!rhq6*k;;;{==/4/4$*i]zr!!__                 b(3b((((3.........b(b..(>                   ~..........................,                 -(.......................b,-               %[[,,--,,--o4$-b,o/4%[b........                  b.....(ndd]hjr'-(b(3.bb           ",
"            7..,ok;vvvvv;{k/$-[b.,                  ........b[i}'awwmwmu6...........              _atrh]]^6o$l/4llllo%*6}z]hrta_                ..3b....................3>                   ............................                 -,b......................b~               ,,77[[,--,-o4/o--*o4k4*7....b6>                    ......>&&66nn63..bb...           ",
"           ~7.b%/9vvvvv;{kk=4o-[.-o                  .......3-o4k9vv;;;=o[b........               atrh]]qq^3b,oo%%o%~b(^d]]]hrta    *%          ..b......................b                   ............................                  *7.....................bb               ..b37.b[,,,-$l$,>*%**=/%[....(^'                    ........b.............           ",
"           bbb-l9vvvvvv;{===/$*~7~-                     ....-$={9vvvvvv9=o~b...             ..7%^phh]))]]]:~b[[[~~~~~b(:j]]q)]hhd^%777          ........................b.b                  ...........................b             f     ...................7~b7~              ...[1&..bbb77~~~bb7b77,,[b....~#]|                   ......................           ",
"          %b.7*/vvvvvv9;{k===4o,[7~                    ...b[%/{vvvvvvvvvkl-[...              .b,n)qqqq]jjj:n>>bbb7.b(>n:jj]])]]hdn,b.           ..........................bb                 ~[b......................7--              f    [7.................b[.,*             .b,-nd<6b......,6iii6666>......(#]j                   ....b(>-&-*-&*,~b..b[~           ",
"         o%7b[o=vvvvvvv9;{===/$*~77                   ....7*l{vvvvvvvvvv{4o-...               b.&#ddq]j||jzdn~b...b.(n:j||jz]]]j#&..            bb........................[[                 --b......................[o                fff -~b..................b>i ff         ..[%<dhh:~......6}sywzh]#&.....7&:hh                   ...7~6i}ggugggo*~b.b,,           ",
"         *-b.~lkvvvvvvvv{{=//=l%,3[%                  ....~4k;vvvvvvvvv;{=4%...                .b>8d'|r++|jd6b....bb.6:||+++r'q#>7.             ,,b......................[%o                 o%7.....................b3                  i&fff(b................b~, ff                at:~.....b~6}ryh]#&(.....6:rta                   ...[*/{;;;{{{m=l%~b.73           ",
"         ,,b.,l{vvvvvvvv;{==/=lo,77--                 gi*~,lk;vvvvvvvvv{k/4*bb>                 ,-&&i'0+++j]1>b...b>>5zj++++cn6&3.               ,b..................b7b.b--                  %b..................7[.7~                   ff(f(b................b~,f((                _ac5-...7%o$=wwtt!g$%[...6ra!_                   b.7*l{9vvvv9{mk/$*,[.~           ",
"         ,~b.,/;vvvvvvvv;{====lo,bbbb                22r}6>o=vvvvvvvvv9{k/$*(~6}sw2              %[.>}r0++||:x3...b(xq|||+0r'~...                 ...................7~777b[-$                 b..................[,b[-                    (bbb.b...............b~ff.                 __!t5[b7-/m{9;wsevv9k*[b~5!!a_                  3bb,${vvvvvv9{k==/$*,b~-          ",
"         bb.7,=;vvvvvvvv;{==/=4$-[..b               2y+jqd#1cvvvvvvvv9{kk/inn#d]z0w2               b><'r+|||#&3...b3x^jjj+0'5>b.           %-[b......................b~*%%                     ,7.................7[b-o                     bb(b.................((f                     c'}~%=kkkmkkm{{{;;{o,}c/                    ...7*/9vvvvvv9;{=//lo-[[~          ",
"         7b.7-=;vvvvvvv9{{=//=4o,7.bb              ;2szj]]]#'w9vvvvv;{{k/g<##q]]]jw2;              ---<'+|j]#xb....3&#]jzz'5-(b            %-7~*-,7bb.................7-o                       b..................bb,                       (((b..............bb(f                       c'-o/kkkkkkkk{{{{/o*}c                    ~[b.[$kvvvvvvv9{{===/$*~37*         ",
"         -,b7-=;vvvvvvv9{k==/=4o~b.(-              22sjqjj|jqqe9vv99{k==u^d]]|jj]hs22               %[-}'zq81fb...bbf1dq':<-..                 l$*~77b.................                         ....................[~                        (~7....77..77b..[[b(                          oi$==///4///=k=&6o                      -,b.~l{vvvvvvvv9{====l%,b[-*        ",
"       ;2r^,b,4{vvvvv9;{kk/===lo[b36'w2           9;wt])j|j|j]q!vv;k===='d]jj+|j)qtw;9               b3,5^1xfbb....bbf1#^5>3b                        ..................                         b..................b--                          7...[o-..-o7.7-*                               $*~~,~,~~,*$                         [[bb,4{vvvvvvvv;{====4o-7b[[        ",
"      22yy'56%4{vvvvv9{{k=//=/l%&&n^zsw2          92wh))j|+||h)h!kkkk=/'q)j|+++j)qhy29                .b>>&((.......bb>&&>b~-                         ................                          .b.................b~-                          ,,b,%/$--$/%,7*                                 -........-                          bbb7~o/;vvvvvvv{==//4$-~7b.b        ",
"     22yy+j+''/k9vvvv{{k==/==4gn^#]qjjrw;         920j)qj++++|]d#gl444g8d]j++++|)]]s29                 .....b...........bb.-o                         ................                       --b.....................-*                          *~*l=l%%l=l*3                                                                      -,,~[,${9vvvv9;k=/=/$*,3(~~-        ",
"     22y+jj+swww{;;;{k====/=/g}dqjjj]]tw2         2w+q)]|0y++|j)1>~~~~>1dj+++sy0])]+y;                   ................b                            ................              $o-[b.....b...bb.................7[.....3~%$                  $%-,[77~---                                                                      2y':^n6$={9vv;{{k/=//o%&x5:'rw       ",
"    2wy0j]]|0y2wme{;{==//==4u#d]jj|j]]hy2;         y+hj|0sys0|jd8(....(8pj|+yyysjhh+y                     ...............                              ..............               $o-7~--~7bb...b....................[,--,7~%                    g$56666nnn                                                                     wws+j':}cme;99;k==//u}<^^::qz|s2      ",
"   9;2s|]qqjz+y2wmk{kk=////u^dqj|++j))]s299         +ss00yyys|]dx(....(xd]+0ywss00r+                         ..........                                 ............                     l$-[77...[7.............b7[..7,*%o                         y+j]])dp                                                                     wysz])]z+yw2e{k==//4g}dqq]|jj)qh22     ",
"   222r]pp)qj|+y20'l===/4l$^8)jj+|||]))r229                yy+]n(b....b(nz+sw                                                                            ..........                               o-.............~*$                                 y0j)dp                                                                     !sshq8pd)j|+wycool$%6#dqjj+++|]]]swe    ",
"   22yz)88pd]jjsy+$*o$$$o%*18]j+++0|j))|y2;                 s'5>.......b>n'y                                                                              ........                                 -b...........7*o                                   s|)p                                                                       hq)p8888]zj0'5----->x#j|++]qq)pddh     ",
"    wshd8888)]j0s|nb,--,,[[x8]j++sy0j]qj02                    ...........b                                                                                 ......                                  ,~b..........~$                                     s)                                                                         88888@@]h]h}6bb7b7(&1]+srp88888@      ",
"     hh])pp8p))]r+i7b77773b&8qj+yyws0tr+0                                                                                                                                                          $o[..b...b7.7~                                                                                                                                                       ",
"      h]))p8)]q]'5-b.....bb>1qz0yyys0ts0                                                                                                                                                            $%*~3b...7,,                                                                                                                                                        ",
"             th]:>bb......b.~:rsw                                                                                                                                                                    4$-~b...[-                                                                                                                                                         ",
"                                                                                                                                                                                                                                                                                                                                                                        "};
